<svg width="710" height="628" viewBox="0 0 710 628" fill="none" xmlns="http://www.w3.org/2000/svg">
<g filter="url(#filter0_d)">
<path d="M106 251.724L255.353 0H552.331L706 251.724L552.331 500H255.353L106 251.724Z" fill="#02F2C2"/>
</g>
<g filter="url(#filter1_d)">
<path d="M106 371.724L255.353 120H552.331L706 371.724L552.331 620H255.353L106 371.724Z" fill="#03CEA4"/>
</g>
<g filter="url(#filter2_d)">
<path d="M4 292.724L153.353 41H450.331L604 292.724L450.331 541H153.353L4 292.724Z" fill="#02A181"/>
</g>
<path d="M204.746 137.586V188H197.539V166.414H168.676V188H161.469V137.586H168.676V159.207H197.539V137.586H204.746ZM227.893 150.559V188H220.967V150.559H227.893ZM220.616 136.145H228.245V143.352H220.616V136.145ZM245.942 169.297L243.059 137.586H252.833L249.95 169.297H245.942ZM242.673 177.488H253.184V188H242.673V177.488Z" fill="#C9FFF4"/>
<g filter="url(#filter3_d)">
<path d="M282.305 188C282.305 187.656 282.18 187.461 281.93 187.414C281.852 187.398 281.773 187.391 281.695 187.391H280.453V174.547H282.305V173.938H276.562V174.547H278.438V187.391H276.562V188H282.305ZM286.828 174.312C286.828 173.469 286.516 172.969 285.891 172.812C285.766 172.781 285.648 172.766 285.539 172.766C285.039 172.766 284.695 173 284.508 173.469C284.445 173.625 284.414 173.781 284.414 173.938C284.414 174.438 284.664 174.781 285.164 174.969C285.242 174.984 285.305 175 285.352 175.016C285.695 175.109 285.875 175.242 285.891 175.414C285.875 175.836 285.531 176.398 284.859 177.102L285.352 177.453C286.305 176.422 286.797 175.375 286.828 174.312ZM293.039 187.414H291.984V182.352C292.031 180.977 292.508 179.953 293.414 179.281C293.836 178.969 294.258 178.812 294.68 178.812C295.461 178.812 296 179.242 296.297 180.102C296.422 180.477 296.484 180.898 296.484 181.367V186.008C296.484 186.727 296.312 187.156 295.969 187.297C295.75 187.375 295.375 187.414 294.844 187.414V188H299.883C299.883 187.656 299.766 187.469 299.531 187.438C299.469 187.422 299.391 187.414 299.297 187.414H298.242V181.602V181.414C298.492 180.273 299.047 179.477 299.906 179.023C300.234 178.867 300.547 178.789 300.844 178.789C301.641 178.789 302.203 179.203 302.531 180.031C302.688 180.422 302.766 180.867 302.766 181.367V186.008C302.766 186.727 302.594 187.156 302.25 187.297C302.031 187.375 301.656 187.414 301.125 187.414V188H306.305C306.305 187.656 306.188 187.469 305.953 187.438C305.891 187.422 305.812 187.414 305.719 187.414H304.523V181.602C304.523 179.992 304 178.867 302.953 178.227C302.484 177.945 301.977 177.805 301.43 177.805C300.242 177.805 299.289 178.359 298.57 179.469C298.383 179.75 298.227 180.047 298.102 180.359C297.82 179.125 297.203 178.328 296.25 177.969C295.969 177.859 295.68 177.805 295.383 177.805C294.258 177.805 293.328 178.281 292.594 179.234C292.328 179.578 292.117 179.961 291.961 180.383L291.867 178.039H288.469V178.625H290.227V186.008C290.227 186.727 290.023 187.156 289.617 187.297C289.383 187.375 289 187.414 288.469 187.414V188H293.625C293.625 187.672 293.508 187.484 293.273 187.438C293.195 187.422 293.117 187.414 293.039 187.414ZM324.305 186.922C324.305 187.578 324.398 187.953 324.586 188.047C324.695 188.094 324.844 188.117 325.031 188.117V183.688H324.469C323.672 186.266 322.078 187.562 319.688 187.578C317.656 187.578 316.273 186.555 315.539 184.508C315.18 183.508 315 182.328 315 180.969C315 178.047 315.805 176.062 317.414 175.016C318.117 174.578 318.898 174.359 319.758 174.359C321.711 174.359 323.125 175.281 324 177.125C324.156 177.453 324.289 177.789 324.398 178.133H324.961L324.891 173.82C324.547 173.82 324.336 173.93 324.258 174.148C324.211 174.336 324.188 174.641 324.188 175.062C323.734 174.609 322.961 174.242 321.867 173.961C321.148 173.789 320.414 173.703 319.664 173.703C317.195 173.703 315.305 174.617 313.992 176.445C313.086 177.742 312.633 179.234 312.633 180.922C312.633 182.969 313.266 184.688 314.531 186.078C315.875 187.516 317.625 188.234 319.781 188.234C321.359 188.219 322.867 187.781 324.305 186.922ZM335.25 188.234C336.453 188.234 337.117 187.508 337.242 186.055C337.258 185.961 337.266 185.875 337.266 185.797L336.656 185.773C336.547 186.914 336.242 187.492 335.742 187.508C335.336 187.477 335.125 187.07 335.109 186.289V181.344C335.109 179.109 333.992 177.93 331.758 177.805C331.617 177.805 331.477 177.805 331.336 177.805C329.586 177.805 328.414 178.211 327.82 179.023C327.633 179.289 327.539 179.555 327.539 179.82C327.539 180.305 327.766 180.586 328.219 180.664C328.297 180.68 328.375 180.688 328.453 180.688C328.812 180.688 329.078 180.461 329.25 180.008C329.469 179.43 329.617 179.086 329.695 178.977C329.992 178.586 330.453 178.391 331.078 178.391C332.547 178.484 333.305 179.289 333.352 180.805V182.281C329.68 182.281 327.578 183.047 327.047 184.578C326.953 184.875 326.906 185.195 326.906 185.539C326.906 186.727 327.43 187.539 328.477 187.977C328.898 188.148 329.344 188.234 329.812 188.234C330.953 188.234 331.914 187.844 332.695 187.062C332.977 186.766 333.188 186.453 333.328 186.125C333.516 187.516 334.156 188.219 335.25 188.234ZM330.586 187.297C329.633 187.297 329.047 186.82 328.828 185.867C328.781 185.648 328.758 185.406 328.758 185.141C328.758 184.094 329.359 183.43 330.562 183.148C331.203 183.008 332.133 182.93 333.352 182.914V184.789C333.117 185.867 332.547 186.625 331.641 187.062C331.281 187.219 330.93 187.297 330.586 187.297ZM337.852 178.625H339.492V185.234C339.602 187.188 340.5 188.195 342.188 188.258C343.625 188.258 344.523 187.375 344.883 185.609C344.883 185.594 344.883 185.578 344.883 185.562L344.25 185.445C343.859 186.742 343.289 187.445 342.539 187.555C341.695 187.523 341.266 186.922 341.25 185.75V178.625H344.883V178.039H341.25V175.32L339.492 175.812V178.039H337.852V178.625ZM350.508 187.414H349.336V178.039H345.703V178.625H347.578V186.008C347.578 186.727 347.336 187.164 346.852 187.32C346.617 187.383 346.234 187.414 345.703 187.414V188H351.094C351.094 187.656 350.977 187.469 350.742 187.438C350.664 187.422 350.586 187.414 350.508 187.414ZM349.617 174.617C349.617 174.07 349.375 173.68 348.891 173.445C348.703 173.367 348.523 173.328 348.352 173.328C347.805 173.328 347.414 173.578 347.18 174.078C347.102 174.25 347.062 174.43 347.062 174.617C347.062 175.195 347.32 175.594 347.836 175.812C348.008 175.875 348.18 175.906 348.352 175.906C348.898 175.906 349.281 175.656 349.5 175.156C349.578 174.984 349.617 174.805 349.617 174.617ZM357.633 178.391C358.727 178.391 359.453 178.852 359.812 179.773C359.938 180.07 360 180.391 360 180.734C360 181.516 359.625 181.992 358.875 182.164C358.484 182.242 357.93 182.273 357.211 182.258L354.727 182.188C354.805 180.391 355.391 179.219 356.484 178.672C356.844 178.484 357.227 178.391 357.633 178.391ZM361.711 185.75L361.125 185.539C360.578 186.727 359.695 187.398 358.477 187.555C358.32 187.57 358.172 187.578 358.031 187.578C356.391 187.578 355.359 186.602 354.938 184.648C354.812 184.102 354.742 183.5 354.727 182.844L357.539 182.891C359.445 182.922 360.672 182.742 361.219 182.352C361.641 182.039 361.852 181.594 361.852 181.016C361.852 179.953 361.312 179.109 360.234 178.484C359.469 178.031 358.586 177.805 357.586 177.805C355.633 177.805 354.234 178.617 353.391 180.242C352.953 181.086 352.734 182.039 352.734 183.102C352.734 185.039 353.43 186.477 354.82 187.414C355.648 187.961 356.594 188.234 357.656 188.234C359.344 188.234 360.586 187.625 361.383 186.406C361.508 186.188 361.617 185.969 361.711 185.75ZM374.625 174.547C376.016 174.547 376.914 175.172 377.32 176.422C377.445 176.828 377.508 177.266 377.508 177.734C377.508 179.766 376.602 180.883 374.789 181.086C374.602 181.102 374.414 181.109 374.227 181.109H372.07V174.547H374.625ZM374.414 188C374.414 187.656 374.289 187.461 374.039 187.414C373.961 187.398 373.883 187.391 373.805 187.391H372.07V181.789H374.133C376.695 181.789 378.391 181.062 379.219 179.609C379.547 179.062 379.711 178.43 379.711 177.711C379.711 176.164 379.039 175.078 377.695 174.453C376.977 174.109 376.117 173.938 375.117 173.938H368.18V174.547H370.055V187.391H368.18V188H374.414ZM383.344 183.008C383.344 180.586 384.008 179.109 385.336 178.578C385.68 178.453 386.039 178.391 386.414 178.391C388.148 178.391 389.156 179.484 389.438 181.672C389.484 182.047 389.508 182.461 389.508 182.914C389.508 185.539 388.789 187.078 387.352 187.531C387.07 187.609 386.781 187.648 386.484 187.648C384.906 187.648 383.914 186.711 383.508 184.836C383.398 184.289 383.344 183.68 383.344 183.008ZM386.484 177.805C384.984 177.805 383.734 178.32 382.734 179.352C381.812 180.305 381.352 181.492 381.352 182.914C381.352 184.883 382.07 186.359 383.508 187.344C384.383 187.938 385.352 188.234 386.414 188.234C387.914 188.234 389.156 187.703 390.141 186.641C391.047 185.672 391.5 184.461 391.5 183.008C391.5 181.039 390.773 179.578 389.32 178.625C388.461 178.078 387.516 177.805 386.484 177.805ZM395.484 181.508C395.516 179.445 396.297 178.406 397.828 178.391C399.359 178.422 400.133 179.461 400.148 181.508C400.117 183.633 399.344 184.703 397.828 184.719C396.281 184.688 395.5 183.617 395.484 181.508ZM397.852 177.805C396.445 177.805 395.328 178.258 394.5 179.164C393.906 179.836 393.609 180.625 393.609 181.531C393.609 182.719 394.188 183.703 395.344 184.484C395.453 184.562 395.562 184.633 395.672 184.695C394.672 184.695 394.047 185.125 393.797 185.984C393.75 186.188 393.727 186.391 393.727 186.594C393.742 187.422 394.078 188.039 394.734 188.445C394.219 188.992 393.961 189.547 393.961 190.109C393.961 190.969 394.469 191.609 395.484 192.031C396.125 192.312 396.914 192.453 397.852 192.453C400.227 192.453 401.797 191.875 402.562 190.719C402.812 190.328 402.938 189.914 402.938 189.477C402.938 188.133 402.164 187.359 400.617 187.156C400.414 187.125 400.203 187.109 399.984 187.109L395.719 187.016C395 186.969 394.633 186.656 394.617 186.078C394.617 185.672 394.875 185.414 395.391 185.305C395.5 185.289 395.617 185.281 395.742 185.281L397.805 185.305C399.195 185.305 400.305 184.836 401.133 183.898C401.727 183.227 402.023 182.43 402.023 181.508C402.008 180.336 401.555 179.398 400.664 178.695C400.805 178.195 401.07 177.898 401.461 177.805C401.523 177.789 401.586 177.781 401.648 177.781C401.867 177.781 402.102 177.898 402.352 178.133C402.523 178.289 402.68 178.367 402.82 178.367C403.211 178.273 403.438 178.023 403.5 177.617C403.5 177.133 403.273 176.805 402.82 176.633C402.648 176.57 402.477 176.539 402.305 176.539C401.57 176.539 400.977 176.867 400.523 177.523C400.352 177.773 400.219 178.047 400.125 178.344C399.422 177.984 398.664 177.805 397.852 177.805ZM397.852 191.844C396.305 191.844 395.328 191.438 394.922 190.625C394.812 190.406 394.758 190.188 394.758 189.969C394.773 189.547 394.961 189.125 395.32 188.703C395.633 188.766 395.891 188.797 396.094 188.797L399.703 188.844C400.875 188.859 401.555 189.125 401.742 189.641C401.789 189.766 401.812 189.922 401.812 190.109C401.812 190.797 401.172 191.297 399.891 191.609C399.266 191.766 398.586 191.844 397.852 191.844ZM406.758 181.508C406.789 179.445 407.57 178.406 409.102 178.391C410.633 178.422 411.406 179.461 411.422 181.508C411.391 183.633 410.617 184.703 409.102 184.719C407.555 184.688 406.773 183.617 406.758 181.508ZM409.125 177.805C407.719 177.805 406.602 178.258 405.773 179.164C405.18 179.836 404.883 180.625 404.883 181.531C404.883 182.719 405.461 183.703 406.617 184.484C406.727 184.562 406.836 184.633 406.945 184.695C405.945 184.695 405.32 185.125 405.07 185.984C405.023 186.188 405 186.391 405 186.594C405.016 187.422 405.352 188.039 406.008 188.445C405.492 188.992 405.234 189.547 405.234 190.109C405.234 190.969 405.742 191.609 406.758 192.031C407.398 192.312 408.188 192.453 409.125 192.453C411.5 192.453 413.07 191.875 413.836 190.719C414.086 190.328 414.211 189.914 414.211 189.477C414.211 188.133 413.438 187.359 411.891 187.156C411.688 187.125 411.477 187.109 411.258 187.109L406.992 187.016C406.273 186.969 405.906 186.656 405.891 186.078C405.891 185.672 406.148 185.414 406.664 185.305C406.773 185.289 406.891 185.281 407.016 185.281L409.078 185.305C410.469 185.305 411.578 184.836 412.406 183.898C413 183.227 413.297 182.43 413.297 181.508C413.281 180.336 412.828 179.398 411.938 178.695C412.078 178.195 412.344 177.898 412.734 177.805C412.797 177.789 412.859 177.781 412.922 177.781C413.141 177.781 413.375 177.898 413.625 178.133C413.797 178.289 413.953 178.367 414.094 178.367C414.484 178.273 414.711 178.023 414.773 177.617C414.773 177.133 414.547 176.805 414.094 176.633C413.922 176.57 413.75 176.539 413.578 176.539C412.844 176.539 412.25 176.867 411.797 177.523C411.625 177.773 411.492 178.047 411.398 178.344C410.695 177.984 409.938 177.805 409.125 177.805ZM409.125 191.844C407.578 191.844 406.602 191.438 406.195 190.625C406.086 190.406 406.031 190.188 406.031 189.969C406.047 189.547 406.234 189.125 406.594 188.703C406.906 188.766 407.164 188.797 407.367 188.797L410.977 188.844C412.148 188.859 412.828 189.125 413.016 189.641C413.062 189.766 413.086 189.922 413.086 190.109C413.086 190.797 412.445 191.297 411.164 191.609C410.539 191.766 409.859 191.844 409.125 191.844ZM420.492 187.414H419.32V178.039H415.688V178.625H417.562V186.008C417.562 186.727 417.32 187.164 416.836 187.32C416.602 187.383 416.219 187.414 415.688 187.414V188H421.078C421.078 187.656 420.961 187.469 420.727 187.438C420.648 187.422 420.57 187.414 420.492 187.414ZM419.602 174.617C419.602 174.07 419.359 173.68 418.875 173.445C418.688 173.367 418.508 173.328 418.336 173.328C417.789 173.328 417.398 173.578 417.164 174.078C417.086 174.25 417.047 174.43 417.047 174.617C417.047 175.195 417.305 175.594 417.82 175.812C417.992 175.875 418.164 175.906 418.336 175.906C418.883 175.906 419.266 175.656 419.484 175.156C419.562 174.984 419.602 174.805 419.602 174.617ZM424.711 183.008C424.711 180.586 425.375 179.109 426.703 178.578C427.047 178.453 427.406 178.391 427.781 178.391C429.516 178.391 430.523 179.484 430.805 181.672C430.852 182.047 430.875 182.461 430.875 182.914C430.875 185.539 430.156 187.078 428.719 187.531C428.438 187.609 428.148 187.648 427.852 187.648C426.273 187.648 425.281 186.711 424.875 184.836C424.766 184.289 424.711 183.68 424.711 183.008ZM427.852 177.805C426.352 177.805 425.102 178.32 424.102 179.352C423.18 180.305 422.719 181.492 422.719 182.914C422.719 184.883 423.438 186.359 424.875 187.344C425.75 187.938 426.719 188.234 427.781 188.234C429.281 188.234 430.523 187.703 431.508 186.641C432.414 185.672 432.867 184.461 432.867 183.008C432.867 181.039 432.141 179.578 430.688 178.625C429.828 178.078 428.883 177.805 427.852 177.805ZM439.359 187.414H438.094V172.766H434.578V173.352H436.336V186.008C436.336 186.727 436.133 187.156 435.727 187.297C435.492 187.375 435.109 187.414 434.578 187.414V188H439.945C439.945 187.656 439.828 187.469 439.594 187.438C439.531 187.422 439.453 187.414 439.359 187.414ZM446.086 187.414H444.914V178.039H441.281V178.625H443.156V186.008C443.156 186.727 442.914 187.164 442.43 187.32C442.195 187.383 441.812 187.414 441.281 187.414V188H446.672C446.672 187.656 446.555 187.469 446.32 187.438C446.242 187.422 446.164 187.414 446.086 187.414ZM445.195 174.617C445.195 174.07 444.953 173.68 444.469 173.445C444.281 173.367 444.102 173.328 443.93 173.328C443.383 173.328 442.992 173.578 442.758 174.078C442.68 174.25 442.641 174.43 442.641 174.617C442.641 175.195 442.898 175.594 443.414 175.812C443.586 175.875 443.758 175.906 443.93 175.906C444.477 175.906 444.859 175.656 445.078 175.156C445.156 174.984 445.195 174.805 445.195 174.617ZM450.961 187.133C450.961 186.289 450.648 185.789 450.023 185.633C449.898 185.602 449.781 185.586 449.672 185.586C449.172 185.586 448.828 185.82 448.641 186.289C448.578 186.445 448.547 186.602 448.547 186.758C448.547 187.258 448.797 187.602 449.297 187.789C449.375 187.805 449.438 187.82 449.484 187.836C449.828 187.93 450.008 188.062 450.023 188.234C450.008 188.656 449.664 189.219 448.992 189.922L449.484 190.273C450.438 189.242 450.93 188.195 450.961 187.133ZM465.633 188.234C466.836 188.234 467.5 187.508 467.625 186.055C467.641 185.961 467.648 185.875 467.648 185.797L467.039 185.773C466.93 186.914 466.625 187.492 466.125 187.508C465.719 187.477 465.508 187.07 465.492 186.289V181.344C465.492 179.109 464.375 177.93 462.141 177.805C462 177.805 461.859 177.805 461.719 177.805C459.969 177.805 458.797 178.211 458.203 179.023C458.016 179.289 457.922 179.555 457.922 179.82C457.922 180.305 458.148 180.586 458.602 180.664C458.68 180.68 458.758 180.688 458.836 180.688C459.195 180.688 459.461 180.461 459.633 180.008C459.852 179.43 460 179.086 460.078 178.977C460.375 178.586 460.836 178.391 461.461 178.391C462.93 178.484 463.688 179.289 463.734 180.805V182.281C460.062 182.281 457.961 183.047 457.43 184.578C457.336 184.875 457.289 185.195 457.289 185.539C457.289 186.727 457.812 187.539 458.859 187.977C459.281 188.148 459.727 188.234 460.195 188.234C461.336 188.234 462.297 187.844 463.078 187.062C463.359 186.766 463.57 186.453 463.711 186.125C463.898 187.516 464.539 188.219 465.633 188.234ZM460.969 187.297C460.016 187.297 459.43 186.82 459.211 185.867C459.164 185.648 459.141 185.406 459.141 185.141C459.141 184.094 459.742 183.43 460.945 183.148C461.586 183.008 462.516 182.93 463.734 182.914V184.789C463.5 185.867 462.93 186.625 462.023 187.062C461.664 187.219 461.312 187.297 460.969 187.297ZM125.66 235.414H123.973V230.75C123.973 229.328 124.41 228.188 125.285 227.328C125.629 227 125.918 226.828 126.152 226.812C126.418 226.812 126.66 227.008 126.879 227.398C127.129 227.836 127.363 228.086 127.582 228.148C127.676 228.18 127.77 228.195 127.863 228.195C128.332 228.195 128.629 227.969 128.754 227.516C128.785 227.422 128.801 227.328 128.801 227.234C128.801 226.531 128.441 226.102 127.723 225.945C127.566 225.914 127.418 225.898 127.277 225.898C126.34 225.898 125.504 226.297 124.77 227.094C124.426 227.469 124.152 227.891 123.949 228.359L123.855 226.039H120.457V226.625H122.215V234.008C122.215 234.727 122.012 235.156 121.605 235.297C121.371 235.375 120.988 235.414 120.457 235.414V236H126.246C126.246 235.656 126.129 235.469 125.895 235.438C125.832 235.422 125.754 235.414 125.66 235.414ZM134.754 226.391C135.848 226.391 136.574 226.852 136.934 227.773C137.059 228.07 137.121 228.391 137.121 228.734C137.121 229.516 136.746 229.992 135.996 230.164C135.605 230.242 135.051 230.273 134.332 230.258L131.848 230.188C131.926 228.391 132.512 227.219 133.605 226.672C133.965 226.484 134.348 226.391 134.754 226.391ZM138.832 233.75L138.246 233.539C137.699 234.727 136.816 235.398 135.598 235.555C135.441 235.57 135.293 235.578 135.152 235.578C133.512 235.578 132.48 234.602 132.059 232.648C131.934 232.102 131.863 231.5 131.848 230.844L134.66 230.891C136.566 230.922 137.793 230.742 138.34 230.352C138.762 230.039 138.973 229.594 138.973 229.016C138.973 227.953 138.434 227.109 137.355 226.484C136.59 226.031 135.707 225.805 134.707 225.805C132.754 225.805 131.355 226.617 130.512 228.242C130.074 229.086 129.855 230.039 129.855 231.102C129.855 233.039 130.551 234.477 131.941 235.414C132.77 235.961 133.715 236.234 134.777 236.234C136.465 236.234 137.707 235.625 138.504 234.406C138.629 234.188 138.738 233.969 138.832 233.75ZM144.246 235.602C145.324 235.602 146.051 235.273 146.426 234.617C146.566 234.383 146.637 234.125 146.637 233.844C146.637 233.188 146.16 232.625 145.207 232.156C145.004 232.047 144.668 231.891 144.199 231.688C142.918 231.156 142.066 230.656 141.645 230.188C141.191 229.672 140.965 229.07 140.965 228.383C140.965 227.305 141.559 226.547 142.746 226.109C143.293 225.906 143.887 225.805 144.527 225.805C145.559 225.805 146.449 226.023 147.199 226.461C147.199 226.008 147.309 225.75 147.527 225.688C147.621 225.672 147.723 225.664 147.832 225.664V228.594H147.223C147.191 227.156 146.395 226.43 144.832 226.414C143.66 226.414 142.934 226.758 142.652 227.445C142.574 227.633 142.535 227.828 142.535 228.031C142.535 228.703 143.02 229.273 143.988 229.742C144.207 229.852 144.551 230 145.02 230.188C146.285 230.703 147.129 231.195 147.551 231.664C148.004 232.164 148.23 232.758 148.23 233.445C148.23 234.711 147.559 235.555 146.215 235.977C145.699 236.148 145.137 236.234 144.527 236.234C143.402 236.219 142.426 235.938 141.598 235.391C141.598 235.797 141.496 236.031 141.293 236.094C141.199 236.109 141.09 236.117 140.965 236.117V232.555H141.621C141.652 234.57 142.527 235.586 144.246 235.602ZM155.004 226.391C156.098 226.391 156.824 226.852 157.184 227.773C157.309 228.07 157.371 228.391 157.371 228.734C157.371 229.516 156.996 229.992 156.246 230.164C155.855 230.242 155.301 230.273 154.582 230.258L152.098 230.188C152.176 228.391 152.762 227.219 153.855 226.672C154.215 226.484 154.598 226.391 155.004 226.391ZM159.082 233.75L158.496 233.539C157.949 234.727 157.066 235.398 155.848 235.555C155.691 235.57 155.543 235.578 155.402 235.578C153.762 235.578 152.73 234.602 152.309 232.648C152.184 232.102 152.113 231.5 152.098 230.844L154.91 230.891C156.816 230.922 158.043 230.742 158.59 230.352C159.012 230.039 159.223 229.594 159.223 229.016C159.223 227.953 158.684 227.109 157.605 226.484C156.84 226.031 155.957 225.805 154.957 225.805C153.004 225.805 151.605 226.617 150.762 228.242C150.324 229.086 150.105 230.039 150.105 231.102C150.105 233.039 150.801 234.477 152.191 235.414C153.02 235.961 153.965 236.234 155.027 236.234C156.715 236.234 157.957 235.625 158.754 234.406C158.879 234.188 158.988 233.969 159.082 233.75ZM169.207 236.234C170.41 236.234 171.074 235.508 171.199 234.055C171.215 233.961 171.223 233.875 171.223 233.797L170.613 233.773C170.504 234.914 170.199 235.492 169.699 235.508C169.293 235.477 169.082 235.07 169.066 234.289V229.344C169.066 227.109 167.949 225.93 165.715 225.805C165.574 225.805 165.434 225.805 165.293 225.805C163.543 225.805 162.371 226.211 161.777 227.023C161.59 227.289 161.496 227.555 161.496 227.82C161.496 228.305 161.723 228.586 162.176 228.664C162.254 228.68 162.332 228.688 162.41 228.688C162.77 228.688 163.035 228.461 163.207 228.008C163.426 227.43 163.574 227.086 163.652 226.977C163.949 226.586 164.41 226.391 165.035 226.391C166.504 226.484 167.262 227.289 167.309 228.805V230.281C163.637 230.281 161.535 231.047 161.004 232.578C160.91 232.875 160.863 233.195 160.863 233.539C160.863 234.727 161.387 235.539 162.434 235.977C162.855 236.148 163.301 236.234 163.77 236.234C164.91 236.234 165.871 235.844 166.652 235.062C166.934 234.766 167.145 234.453 167.285 234.125C167.473 235.516 168.113 236.219 169.207 236.234ZM164.543 235.297C163.59 235.297 163.004 234.82 162.785 233.867C162.738 233.648 162.715 233.406 162.715 233.141C162.715 232.094 163.316 231.43 164.52 231.148C165.16 231.008 166.09 230.93 167.309 230.914V232.789C167.074 233.867 166.504 234.625 165.598 235.062C165.238 235.219 164.887 235.297 164.543 235.297ZM177.293 235.414H175.605V230.75C175.605 229.328 176.043 228.188 176.918 227.328C177.262 227 177.551 226.828 177.785 226.812C178.051 226.812 178.293 227.008 178.512 227.398C178.762 227.836 178.996 228.086 179.215 228.148C179.309 228.18 179.402 228.195 179.496 228.195C179.965 228.195 180.262 227.969 180.387 227.516C180.418 227.422 180.434 227.328 180.434 227.234C180.434 226.531 180.074 226.102 179.355 225.945C179.199 225.914 179.051 225.898 178.91 225.898C177.973 225.898 177.137 226.297 176.402 227.094C176.059 227.469 175.785 227.891 175.582 228.359L175.488 226.039H172.09V226.625H173.848V234.008C173.848 234.727 173.645 235.156 173.238 235.297C173.004 235.375 172.621 235.414 172.09 235.414V236H177.879C177.879 235.656 177.762 235.469 177.527 235.438C177.465 235.422 177.387 235.414 177.293 235.414ZM181.488 231.125C181.488 233.016 182.184 234.43 183.574 235.367C184.434 235.945 185.41 236.234 186.504 236.234C188.129 236.234 189.355 235.664 190.184 234.523C190.371 234.258 190.52 233.992 190.629 233.727L190.02 233.516C189.441 234.75 188.488 235.43 187.16 235.555C187.035 235.57 186.91 235.578 186.785 235.578C185.676 235.578 184.809 235.023 184.184 233.914C183.715 233.07 183.48 232.07 183.48 230.914C183.48 228.867 184.02 227.5 185.098 226.812C185.551 226.531 186.051 226.391 186.598 226.391C187.441 226.391 187.949 226.719 188.121 227.375C188.152 227.5 188.191 227.695 188.238 227.961C188.332 228.586 188.504 228.977 188.754 229.133C188.91 229.211 189.082 229.258 189.27 229.273C189.801 229.305 190.137 229.086 190.277 228.617C190.309 228.508 190.324 228.406 190.324 228.312C190.324 227.516 189.816 226.859 188.801 226.344C188.082 225.984 187.301 225.805 186.457 225.805C184.363 225.805 182.902 226.656 182.074 228.359C181.684 229.172 181.488 230.094 181.488 231.125ZM196.184 235.414H195.012V230.352C195.012 228.93 195.504 227.898 196.488 227.258C196.895 226.992 197.316 226.859 197.754 226.859C198.707 226.859 199.371 227.305 199.746 228.195C199.918 228.617 200.004 229.086 200.004 229.602V234.008C200.004 234.727 199.832 235.156 199.488 235.297C199.27 235.375 198.895 235.414 198.363 235.414V236H203.52C203.52 235.656 203.402 235.469 203.168 235.438C203.105 235.422 203.027 235.414 202.934 235.414H201.762V229.602C201.762 227.898 201.199 226.742 200.074 226.133C199.637 225.914 199.168 225.805 198.668 225.805C197.512 225.805 196.543 226.227 195.762 227.07C195.434 227.43 195.184 227.836 195.012 228.289V220.766H191.496V221.352H193.254V234.008C193.254 234.727 193.051 235.156 192.645 235.297C192.41 235.375 192.027 235.414 191.496 235.414V236H196.77C196.77 235.656 196.652 235.469 196.418 235.438C196.355 235.422 196.277 235.414 196.184 235.414ZM215.871 236.234C217.246 236.234 218.402 235.719 219.34 234.688C220.215 233.688 220.652 232.422 220.652 230.891C220.652 229.172 220.184 227.828 219.246 226.859C218.543 226.156 217.676 225.805 216.645 225.805C214.941 225.805 213.73 226.57 213.012 228.102C212.934 228.242 212.871 228.383 212.824 228.523V220.766H209.309V221.352H211.066V234.008C211.066 234.727 210.863 235.156 210.457 235.297C210.223 235.375 209.84 235.414 209.309 235.414V236H212.262L212.473 234.453C213.145 235.531 214.16 236.117 215.52 236.211C215.645 236.227 215.762 236.234 215.871 236.234ZM215.918 226.742C217.199 226.742 218.035 227.523 218.426 229.086C218.582 229.664 218.66 230.32 218.66 231.055C218.66 233.258 218.066 234.688 216.879 235.344C216.504 235.547 216.09 235.648 215.637 235.648C214.465 235.648 213.637 235.023 213.152 233.773C212.918 233.117 212.801 232.359 212.801 231.5C212.801 229.609 213.27 228.242 214.207 227.398C214.707 226.961 215.277 226.742 215.918 226.742ZM230.754 236.234C231.957 236.234 232.621 235.508 232.746 234.055C232.762 233.961 232.77 233.875 232.77 233.797L232.16 233.773C232.051 234.914 231.746 235.492 231.246 235.508C230.84 235.477 230.629 235.07 230.613 234.289V229.344C230.613 227.109 229.496 225.93 227.262 225.805C227.121 225.805 226.98 225.805 226.84 225.805C225.09 225.805 223.918 226.211 223.324 227.023C223.137 227.289 223.043 227.555 223.043 227.82C223.043 228.305 223.27 228.586 223.723 228.664C223.801 228.68 223.879 228.688 223.957 228.688C224.316 228.688 224.582 228.461 224.754 228.008C224.973 227.43 225.121 227.086 225.199 226.977C225.496 226.586 225.957 226.391 226.582 226.391C228.051 226.484 228.809 227.289 228.855 228.805V230.281C225.184 230.281 223.082 231.047 222.551 232.578C222.457 232.875 222.41 233.195 222.41 233.539C222.41 234.727 222.934 235.539 223.98 235.977C224.402 236.148 224.848 236.234 225.316 236.234C226.457 236.234 227.418 235.844 228.199 235.062C228.48 234.766 228.691 234.453 228.832 234.125C229.02 235.516 229.66 236.219 230.754 236.234ZM226.09 235.297C225.137 235.297 224.551 234.82 224.332 233.867C224.285 233.648 224.262 233.406 224.262 233.141C224.262 232.094 224.863 231.43 226.066 231.148C226.707 231.008 227.637 230.93 228.855 230.914V232.789C228.621 233.867 228.051 234.625 227.145 235.062C226.785 235.219 226.434 235.297 226.09 235.297ZM237.34 235.602C238.418 235.602 239.145 235.273 239.52 234.617C239.66 234.383 239.73 234.125 239.73 233.844C239.73 233.188 239.254 232.625 238.301 232.156C238.098 232.047 237.762 231.891 237.293 231.688C236.012 231.156 235.16 230.656 234.738 230.188C234.285 229.672 234.059 229.07 234.059 228.383C234.059 227.305 234.652 226.547 235.84 226.109C236.387 225.906 236.98 225.805 237.621 225.805C238.652 225.805 239.543 226.023 240.293 226.461C240.293 226.008 240.402 225.75 240.621 225.688C240.715 225.672 240.816 225.664 240.926 225.664V228.594H240.316C240.285 227.156 239.488 226.43 237.926 226.414C236.754 226.414 236.027 226.758 235.746 227.445C235.668 227.633 235.629 227.828 235.629 228.031C235.629 228.703 236.113 229.273 237.082 229.742C237.301 229.852 237.645 230 238.113 230.188C239.379 230.703 240.223 231.195 240.645 231.664C241.098 232.164 241.324 232.758 241.324 233.445C241.324 234.711 240.652 235.555 239.309 235.977C238.793 236.148 238.23 236.234 237.621 236.234C236.496 236.219 235.52 235.938 234.691 235.391C234.691 235.797 234.59 236.031 234.387 236.094C234.293 236.109 234.184 236.117 234.059 236.117V232.555H234.715C234.746 234.57 235.621 235.586 237.34 235.602ZM248.098 226.391C249.191 226.391 249.918 226.852 250.277 227.773C250.402 228.07 250.465 228.391 250.465 228.734C250.465 229.516 250.09 229.992 249.34 230.164C248.949 230.242 248.395 230.273 247.676 230.258L245.191 230.188C245.27 228.391 245.855 227.219 246.949 226.672C247.309 226.484 247.691 226.391 248.098 226.391ZM252.176 233.75L251.59 233.539C251.043 234.727 250.16 235.398 248.941 235.555C248.785 235.57 248.637 235.578 248.496 235.578C246.855 235.578 245.824 234.602 245.402 232.648C245.277 232.102 245.207 231.5 245.191 230.844L248.004 230.891C249.91 230.922 251.137 230.742 251.684 230.352C252.105 230.039 252.316 229.594 252.316 229.016C252.316 227.953 251.777 227.109 250.699 226.484C249.934 226.031 249.051 225.805 248.051 225.805C246.098 225.805 244.699 226.617 243.855 228.242C243.418 229.086 243.199 230.039 243.199 231.102C243.199 233.039 243.895 234.477 245.285 235.414C246.113 235.961 247.059 236.234 248.121 236.234C249.809 236.234 251.051 235.625 251.848 234.406C251.973 234.188 252.082 233.969 252.176 233.75ZM262.066 236H265.418C265.418 235.656 265.301 235.469 265.066 235.438C265.004 235.422 264.926 235.414 264.832 235.414H263.66L263.613 220.766H259.629V221.352H261.855V227.07C261.09 226.227 260.059 225.805 258.762 225.805C257.043 225.805 255.746 226.57 254.871 228.102C254.34 229.039 254.074 230.094 254.074 231.266C254.074 233.203 254.684 234.617 255.902 235.508C256.59 235.992 257.348 236.234 258.176 236.234C259.879 236.203 261.113 235.297 261.879 233.516L262.066 236ZM256.066 230.984C256.066 228.781 256.66 227.352 257.848 226.695C258.223 226.492 258.637 226.391 259.09 226.391C260.23 226.391 261.043 227 261.527 228.219C261.793 228.875 261.926 229.648 261.926 230.539C261.926 232.414 261.457 233.773 260.52 234.617C260.02 235.07 259.449 235.297 258.809 235.297C257.527 235.297 256.691 234.516 256.301 232.953C256.145 232.375 256.066 231.719 256.066 230.984ZM279.48 236H282.832C282.832 235.656 282.715 235.469 282.48 235.438C282.418 235.422 282.34 235.414 282.246 235.414H281.074L281.027 220.766H277.043V221.352H279.27V227.07C278.504 226.227 277.473 225.805 276.176 225.805C274.457 225.805 273.16 226.57 272.285 228.102C271.754 229.039 271.488 230.094 271.488 231.266C271.488 233.203 272.098 234.617 273.316 235.508C274.004 235.992 274.762 236.234 275.59 236.234C277.293 236.203 278.527 235.297 279.293 233.516L279.48 236ZM273.48 230.984C273.48 228.781 274.074 227.352 275.262 226.695C275.637 226.492 276.051 226.391 276.504 226.391C277.645 226.391 278.457 227 278.941 228.219C279.207 228.875 279.34 229.648 279.34 230.539C279.34 232.414 278.871 233.773 277.934 234.617C277.434 235.07 276.863 235.297 276.223 235.297C274.941 235.297 274.105 234.516 273.715 232.953C273.559 232.375 273.48 231.719 273.48 230.984ZM289.23 226.391C290.324 226.391 291.051 226.852 291.41 227.773C291.535 228.07 291.598 228.391 291.598 228.734C291.598 229.516 291.223 229.992 290.473 230.164C290.082 230.242 289.527 230.273 288.809 230.258L286.324 230.188C286.402 228.391 286.988 227.219 288.082 226.672C288.441 226.484 288.824 226.391 289.23 226.391ZM293.309 233.75L292.723 233.539C292.176 234.727 291.293 235.398 290.074 235.555C289.918 235.57 289.77 235.578 289.629 235.578C287.988 235.578 286.957 234.602 286.535 232.648C286.41 232.102 286.34 231.5 286.324 230.844L289.137 230.891C291.043 230.922 292.27 230.742 292.816 230.352C293.238 230.039 293.449 229.594 293.449 229.016C293.449 227.953 292.91 227.109 291.832 226.484C291.066 226.031 290.184 225.805 289.184 225.805C287.23 225.805 285.832 226.617 284.988 228.242C284.551 229.086 284.332 230.039 284.332 231.102C284.332 233.039 285.027 234.477 286.418 235.414C287.246 235.961 288.191 236.234 289.254 236.234C290.941 236.234 292.184 235.625 292.98 234.406C293.105 234.188 293.215 233.969 293.309 233.75ZM298.887 226.625V226.039H294.34V226.625H295.395L298.254 234.477C298.566 235.352 298.91 235.859 299.285 236C299.473 236.078 299.707 236.117 299.988 236.117H300.293L303.598 227.445C303.785 226.961 304.012 226.695 304.277 226.648C304.355 226.633 304.426 226.625 304.488 226.625C304.832 226.625 305.02 226.508 305.051 226.273C305.066 226.195 305.074 226.117 305.074 226.039H301.465V226.625H303.223L300.246 234.617L297.246 226.625H298.887ZM310.98 226.391C312.074 226.391 312.801 226.852 313.16 227.773C313.285 228.07 313.348 228.391 313.348 228.734C313.348 229.516 312.973 229.992 312.223 230.164C311.832 230.242 311.277 230.273 310.559 230.258L308.074 230.188C308.152 228.391 308.738 227.219 309.832 226.672C310.191 226.484 310.574 226.391 310.98 226.391ZM315.059 233.75L314.473 233.539C313.926 234.727 313.043 235.398 311.824 235.555C311.668 235.57 311.52 235.578 311.379 235.578C309.738 235.578 308.707 234.602 308.285 232.648C308.16 232.102 308.09 231.5 308.074 230.844L310.887 230.891C312.793 230.922 314.02 230.742 314.566 230.352C314.988 230.039 315.199 229.594 315.199 229.016C315.199 227.953 314.66 227.109 313.582 226.484C312.816 226.031 311.934 225.805 310.934 225.805C308.98 225.805 307.582 226.617 306.738 228.242C306.301 229.086 306.082 230.039 306.082 231.102C306.082 233.039 306.777 234.477 308.168 235.414C308.996 235.961 309.941 236.234 311.004 236.234C312.691 236.234 313.934 235.625 314.73 234.406C314.855 234.188 314.965 233.969 315.059 233.75ZM321.574 235.414H320.309V220.766H316.793V221.352H318.551V234.008C318.551 234.727 318.348 235.156 317.941 235.297C317.707 235.375 317.324 235.414 316.793 235.414V236H322.16C322.16 235.656 322.043 235.469 321.809 235.438C321.746 235.422 321.668 235.414 321.574 235.414ZM325.723 231.008C325.723 228.586 326.387 227.109 327.715 226.578C328.059 226.453 328.418 226.391 328.793 226.391C330.527 226.391 331.535 227.484 331.816 229.672C331.863 230.047 331.887 230.461 331.887 230.914C331.887 233.539 331.168 235.078 329.73 235.531C329.449 235.609 329.16 235.648 328.863 235.648C327.285 235.648 326.293 234.711 325.887 232.836C325.777 232.289 325.723 231.68 325.723 231.008ZM328.863 225.805C327.363 225.805 326.113 226.32 325.113 227.352C324.191 228.305 323.73 229.492 323.73 230.914C323.73 232.883 324.449 234.359 325.887 235.344C326.762 235.938 327.73 236.234 328.793 236.234C330.293 236.234 331.535 235.703 332.52 234.641C333.426 233.672 333.879 232.461 333.879 231.008C333.879 229.039 333.152 227.578 331.699 226.625C330.84 226.078 329.895 225.805 328.863 225.805ZM338.941 239.867V235.016C339.801 235.766 340.793 236.172 341.918 236.234C343.309 236.234 344.473 235.711 345.41 234.664C346.316 233.648 346.77 232.359 346.77 230.797C346.77 229.016 346.277 227.664 345.293 226.742C344.605 226.117 343.77 225.805 342.785 225.805C341.27 225.805 340.137 226.406 339.387 227.609C339.199 227.922 339.043 228.25 338.918 228.594L338.801 226.039H335.426V226.625H337.184V238.461C337.184 239.18 336.98 239.609 336.574 239.75C336.34 239.828 335.957 239.867 335.426 239.867V240.453H341.168C341.168 240.109 341.051 239.922 340.816 239.891C340.754 239.875 340.676 239.867 340.582 239.867H338.941ZM342.035 226.742C343.395 226.742 344.254 227.594 344.613 229.297C344.723 229.812 344.777 230.391 344.777 231.031C344.777 233.328 344.16 234.781 342.926 235.391C342.566 235.562 342.176 235.648 341.754 235.648C340.551 235.648 339.723 235.016 339.27 233.75C339.035 233.109 338.918 232.352 338.918 231.477C338.918 229.445 339.441 228.039 340.488 227.258C340.957 226.914 341.473 226.742 342.035 226.742ZM353.543 226.391C354.637 226.391 355.363 226.852 355.723 227.773C355.848 228.07 355.91 228.391 355.91 228.734C355.91 229.516 355.535 229.992 354.785 230.164C354.395 230.242 353.84 230.273 353.121 230.258L350.637 230.188C350.715 228.391 351.301 227.219 352.395 226.672C352.754 226.484 353.137 226.391 353.543 226.391ZM357.621 233.75L357.035 233.539C356.488 234.727 355.605 235.398 354.387 235.555C354.23 235.57 354.082 235.578 353.941 235.578C352.301 235.578 351.27 234.602 350.848 232.648C350.723 232.102 350.652 231.5 350.637 230.844L353.449 230.891C355.355 230.922 356.582 230.742 357.129 230.352C357.551 230.039 357.762 229.594 357.762 229.016C357.762 227.953 357.223 227.109 356.145 226.484C355.379 226.031 354.496 225.805 353.496 225.805C351.543 225.805 350.145 226.617 349.301 228.242C348.863 229.086 348.645 230.039 348.645 231.102C348.645 233.039 349.34 234.477 350.73 235.414C351.559 235.961 352.504 236.234 353.566 236.234C355.254 236.234 356.496 235.625 357.293 234.406C357.418 234.188 357.527 233.969 357.621 233.75ZM364.535 235.414H362.848V230.75C362.848 229.328 363.285 228.188 364.16 227.328C364.504 227 364.793 226.828 365.027 226.812C365.293 226.812 365.535 227.008 365.754 227.398C366.004 227.836 366.238 228.086 366.457 228.148C366.551 228.18 366.645 228.195 366.738 228.195C367.207 228.195 367.504 227.969 367.629 227.516C367.66 227.422 367.676 227.328 367.676 227.234C367.676 226.531 367.316 226.102 366.598 225.945C366.441 225.914 366.293 225.898 366.152 225.898C365.215 225.898 364.379 226.297 363.645 227.094C363.301 227.469 363.027 227.891 362.824 228.359L362.73 226.039H359.332V226.625H361.09V234.008C361.09 234.727 360.887 235.156 360.48 235.297C360.246 235.375 359.863 235.414 359.332 235.414V236H365.121C365.121 235.656 365.004 235.469 364.77 235.438C364.707 235.422 364.629 235.414 364.535 235.414ZM377.145 226.625V226.039H372.504V226.625H373.559L376.488 234.477C376.816 235.367 377.152 235.883 377.496 236.023C377.668 236.086 377.879 236.117 378.129 236.117H378.598L380.637 229.977L382.207 234.477C382.504 235.352 382.809 235.867 383.121 236.023C383.277 236.086 383.488 236.117 383.754 236.117H384.129L386.965 227.469C387.121 226.984 387.309 226.711 387.527 226.648C387.605 226.633 387.691 226.625 387.785 226.625C388.129 226.625 388.324 226.516 388.371 226.297C388.387 226.219 388.395 226.133 388.395 226.039H384.926V226.625H386.566L383.965 234.711L381.223 226.625H382.863V226.039H379.254L380.309 229.016L378.363 234.781L375.387 226.625H377.145ZM393.832 235.414H392.66V230.352C392.66 228.93 393.152 227.898 394.137 227.258C394.543 226.992 394.965 226.859 395.402 226.859C396.355 226.859 397.02 227.305 397.395 228.195C397.566 228.617 397.652 229.086 397.652 229.602V234.008C397.652 234.727 397.48 235.156 397.137 235.297C396.918 235.375 396.543 235.414 396.012 235.414V236H401.168C401.168 235.656 401.051 235.469 400.816 235.438C400.754 235.422 400.676 235.414 400.582 235.414H399.41V229.602C399.41 227.898 398.848 226.742 397.723 226.133C397.285 225.914 396.816 225.805 396.316 225.805C395.16 225.805 394.191 226.227 393.41 227.07C393.082 227.43 392.832 227.836 392.66 228.289V220.766H389.145V221.352H390.902V234.008C390.902 234.727 390.699 235.156 390.293 235.297C390.059 235.375 389.676 235.414 389.145 235.414V236H394.418C394.418 235.656 394.301 235.469 394.066 235.438C394.004 235.422 393.926 235.414 393.832 235.414ZM404.707 231.008C404.707 228.586 405.371 227.109 406.699 226.578C407.043 226.453 407.402 226.391 407.777 226.391C409.512 226.391 410.52 227.484 410.801 229.672C410.848 230.047 410.871 230.461 410.871 230.914C410.871 233.539 410.152 235.078 408.715 235.531C408.434 235.609 408.145 235.648 407.848 235.648C406.27 235.648 405.277 234.711 404.871 232.836C404.762 232.289 404.707 231.68 404.707 231.008ZM407.848 225.805C406.348 225.805 405.098 226.32 404.098 227.352C403.176 228.305 402.715 229.492 402.715 230.914C402.715 232.883 403.434 234.359 404.871 235.344C405.746 235.938 406.715 236.234 407.777 236.234C409.277 236.234 410.52 235.703 411.504 234.641C412.41 233.672 412.863 232.461 412.863 231.008C412.863 229.039 412.137 227.578 410.684 226.625C409.824 226.078 408.879 225.805 407.848 225.805ZM423.809 235.414H422.637V230.352C422.637 228.93 423.129 227.898 424.113 227.258C424.52 226.992 424.941 226.859 425.379 226.859C426.332 226.859 426.996 227.305 427.371 228.195C427.543 228.617 427.629 229.086 427.629 229.602V234.008C427.629 234.727 427.457 235.156 427.113 235.297C426.895 235.375 426.52 235.414 425.988 235.414V236H431.145C431.145 235.656 431.027 235.469 430.793 235.438C430.73 235.422 430.652 235.414 430.559 235.414H429.387V229.602C429.387 227.898 428.824 226.742 427.699 226.133C427.262 225.914 426.793 225.805 426.293 225.805C425.137 225.805 424.168 226.227 423.387 227.07C423.059 227.43 422.809 227.836 422.637 228.289V220.766H419.121V221.352H420.879V234.008C420.879 234.727 420.676 235.156 420.27 235.297C420.035 235.375 419.652 235.414 419.121 235.414V236H424.395C424.395 235.656 424.277 235.469 424.043 235.438C423.98 235.422 423.902 235.414 423.809 235.414ZM440.918 236.234C442.121 236.234 442.785 235.508 442.91 234.055C442.926 233.961 442.934 233.875 442.934 233.797L442.324 233.773C442.215 234.914 441.91 235.492 441.41 235.508C441.004 235.477 440.793 235.07 440.777 234.289V229.344C440.777 227.109 439.66 225.93 437.426 225.805C437.285 225.805 437.145 225.805 437.004 225.805C435.254 225.805 434.082 226.211 433.488 227.023C433.301 227.289 433.207 227.555 433.207 227.82C433.207 228.305 433.434 228.586 433.887 228.664C433.965 228.68 434.043 228.688 434.121 228.688C434.48 228.688 434.746 228.461 434.918 228.008C435.137 227.43 435.285 227.086 435.363 226.977C435.66 226.586 436.121 226.391 436.746 226.391C438.215 226.484 438.973 227.289 439.02 228.805V230.281C435.348 230.281 433.246 231.047 432.715 232.578C432.621 232.875 432.574 233.195 432.574 233.539C432.574 234.727 433.098 235.539 434.145 235.977C434.566 236.148 435.012 236.234 435.48 236.234C436.621 236.234 437.582 235.844 438.363 235.062C438.645 234.766 438.855 234.453 438.996 234.125C439.184 235.516 439.824 236.219 440.918 236.234ZM436.254 235.297C435.301 235.297 434.715 234.82 434.496 233.867C434.449 233.648 434.426 233.406 434.426 233.141C434.426 232.094 435.027 231.43 436.23 231.148C436.871 231.008 437.801 230.93 439.02 230.914V232.789C438.785 233.867 438.215 234.625 437.309 235.062C436.949 235.219 436.598 235.297 436.254 235.297ZM447.504 235.602C448.582 235.602 449.309 235.273 449.684 234.617C449.824 234.383 449.895 234.125 449.895 233.844C449.895 233.188 449.418 232.625 448.465 232.156C448.262 232.047 447.926 231.891 447.457 231.688C446.176 231.156 445.324 230.656 444.902 230.188C444.449 229.672 444.223 229.07 444.223 228.383C444.223 227.305 444.816 226.547 446.004 226.109C446.551 225.906 447.145 225.805 447.785 225.805C448.816 225.805 449.707 226.023 450.457 226.461C450.457 226.008 450.566 225.75 450.785 225.688C450.879 225.672 450.98 225.664 451.09 225.664V228.594H450.48C450.449 227.156 449.652 226.43 448.09 226.414C446.918 226.414 446.191 226.758 445.91 227.445C445.832 227.633 445.793 227.828 445.793 228.031C445.793 228.703 446.277 229.273 447.246 229.742C447.465 229.852 447.809 230 448.277 230.188C449.543 230.703 450.387 231.195 450.809 231.664C451.262 232.164 451.488 232.758 451.488 233.445C451.488 234.711 450.816 235.555 449.473 235.977C448.957 236.148 448.395 236.234 447.785 236.234C446.66 236.219 445.684 235.938 444.855 235.391C444.855 235.797 444.754 236.031 444.551 236.094C444.457 236.109 444.348 236.117 444.223 236.117V232.555H444.879C444.91 234.57 445.785 235.586 447.504 235.602ZM466.16 236.234C467.363 236.234 468.027 235.508 468.152 234.055C468.168 233.961 468.176 233.875 468.176 233.797L467.566 233.773C467.457 234.914 467.152 235.492 466.652 235.508C466.246 235.477 466.035 235.07 466.02 234.289V229.344C466.02 227.109 464.902 225.93 462.668 225.805C462.527 225.805 462.387 225.805 462.246 225.805C460.496 225.805 459.324 226.211 458.73 227.023C458.543 227.289 458.449 227.555 458.449 227.82C458.449 228.305 458.676 228.586 459.129 228.664C459.207 228.68 459.285 228.688 459.363 228.688C459.723 228.688 459.988 228.461 460.16 228.008C460.379 227.43 460.527 227.086 460.605 226.977C460.902 226.586 461.363 226.391 461.988 226.391C463.457 226.484 464.215 227.289 464.262 228.805V230.281C460.59 230.281 458.488 231.047 457.957 232.578C457.863 232.875 457.816 233.195 457.816 233.539C457.816 234.727 458.34 235.539 459.387 235.977C459.809 236.148 460.254 236.234 460.723 236.234C461.863 236.234 462.824 235.844 463.605 235.062C463.887 234.766 464.098 234.453 464.238 234.125C464.426 235.516 465.066 236.219 466.16 236.234ZM461.496 235.297C460.543 235.297 459.957 234.82 459.738 233.867C459.691 233.648 459.668 233.406 459.668 233.141C459.668 232.094 460.27 231.43 461.473 231.148C462.113 231.008 463.043 230.93 464.262 230.914V232.789C464.027 233.867 463.457 234.625 462.551 235.062C462.191 235.219 461.84 235.297 461.496 235.297ZM91.582 284.234C92.957 284.234 94.1133 283.719 95.0508 282.688C95.9258 281.688 96.3633 280.422 96.3633 278.891C96.3633 277.172 95.8945 275.828 94.957 274.859C94.2539 274.156 93.3867 273.805 92.3555 273.805C90.6523 273.805 89.4414 274.57 88.7227 276.102C88.6445 276.242 88.582 276.383 88.5352 276.523V268.766H85.0195V269.352H86.7773V282.008C86.7773 282.727 86.5742 283.156 86.168 283.297C85.9336 283.375 85.5508 283.414 85.0195 283.414V284H87.9727L88.1836 282.453C88.8555 283.531 89.8711 284.117 91.2305 284.211C91.3555 284.227 91.4727 284.234 91.582 284.234ZM91.6289 274.742C92.9102 274.742 93.7461 275.523 94.1367 277.086C94.293 277.664 94.3711 278.32 94.3711 279.055C94.3711 281.258 93.7773 282.688 92.5898 283.344C92.2148 283.547 91.8008 283.648 91.3477 283.648C90.1758 283.648 89.3477 283.023 88.8633 281.773C88.6289 281.117 88.5117 280.359 88.5117 279.5C88.5117 277.609 88.9805 276.242 89.918 275.398C90.418 274.961 90.9883 274.742 91.6289 274.742ZM106.465 284.234C107.668 284.234 108.332 283.508 108.457 282.055C108.473 281.961 108.48 281.875 108.48 281.797L107.871 281.773C107.762 282.914 107.457 283.492 106.957 283.508C106.551 283.477 106.34 283.07 106.324 282.289V277.344C106.324 275.109 105.207 273.93 102.973 273.805C102.832 273.805 102.691 273.805 102.551 273.805C100.801 273.805 99.6289 274.211 99.0352 275.023C98.8477 275.289 98.7539 275.555 98.7539 275.82C98.7539 276.305 98.9805 276.586 99.4336 276.664C99.5117 276.68 99.5898 276.688 99.668 276.688C100.027 276.688 100.293 276.461 100.465 276.008C100.684 275.43 100.832 275.086 100.91 274.977C101.207 274.586 101.668 274.391 102.293 274.391C103.762 274.484 104.52 275.289 104.566 276.805V278.281C100.895 278.281 98.793 279.047 98.2617 280.578C98.168 280.875 98.1211 281.195 98.1211 281.539C98.1211 282.727 98.6445 283.539 99.6914 283.977C100.113 284.148 100.559 284.234 101.027 284.234C102.168 284.234 103.129 283.844 103.91 283.062C104.191 282.766 104.402 282.453 104.543 282.125C104.73 283.516 105.371 284.219 106.465 284.234ZM101.801 283.297C100.848 283.297 100.262 282.82 100.043 281.867C99.9961 281.648 99.9727 281.406 99.9727 281.141C99.9727 280.094 100.574 279.43 101.777 279.148C102.418 279.008 103.348 278.93 104.566 278.914V280.789C104.332 281.867 103.762 282.625 102.855 283.062C102.496 283.219 102.145 283.297 101.801 283.297ZM109.535 279.125C109.535 281.016 110.23 282.43 111.621 283.367C112.48 283.945 113.457 284.234 114.551 284.234C116.176 284.234 117.402 283.664 118.23 282.523C118.418 282.258 118.566 281.992 118.676 281.727L118.066 281.516C117.488 282.75 116.535 283.43 115.207 283.555C115.082 283.57 114.957 283.578 114.832 283.578C113.723 283.578 112.855 283.023 112.23 281.914C111.762 281.07 111.527 280.07 111.527 278.914C111.527 276.867 112.066 275.5 113.145 274.812C113.598 274.531 114.098 274.391 114.645 274.391C115.488 274.391 115.996 274.719 116.168 275.375C116.199 275.5 116.238 275.695 116.285 275.961C116.379 276.586 116.551 276.977 116.801 277.133C116.957 277.211 117.129 277.258 117.316 277.273C117.848 277.305 118.184 277.086 118.324 276.617C118.355 276.508 118.371 276.406 118.371 276.312C118.371 275.516 117.863 274.859 116.848 274.344C116.129 273.984 115.348 273.805 114.504 273.805C112.41 273.805 110.949 274.656 110.121 276.359C109.73 277.172 109.535 278.094 109.535 279.125ZM124.09 283.414H123.035V279.945L124.324 278.75L127.629 284H130.746C130.746 283.656 130.629 283.469 130.395 283.438C130.332 283.422 130.254 283.414 130.16 283.414H129.316L125.543 277.602L127.746 275.539C128.293 275.023 128.707 274.734 128.988 274.672C129.113 274.641 129.254 274.625 129.41 274.625C129.754 274.625 129.941 274.508 129.973 274.273C129.988 274.195 129.996 274.117 129.996 274.039H126.012V274.625H127.77L123.035 279.008V268.766H119.52V269.352H121.277V282.008C121.277 282.727 121.074 283.156 120.668 283.297C120.434 283.375 120.051 283.414 119.52 283.414V284H124.676C124.676 283.656 124.559 283.469 124.324 283.438C124.262 283.422 124.184 283.414 124.09 283.414ZM133.559 277.508C133.59 275.445 134.371 274.406 135.902 274.391C137.434 274.422 138.207 275.461 138.223 277.508C138.191 279.633 137.418 280.703 135.902 280.719C134.355 280.688 133.574 279.617 133.559 277.508ZM135.926 273.805C134.52 273.805 133.402 274.258 132.574 275.164C131.98 275.836 131.684 276.625 131.684 277.531C131.684 278.719 132.262 279.703 133.418 280.484C133.527 280.562 133.637 280.633 133.746 280.695C132.746 280.695 132.121 281.125 131.871 281.984C131.824 282.188 131.801 282.391 131.801 282.594C131.816 283.422 132.152 284.039 132.809 284.445C132.293 284.992 132.035 285.547 132.035 286.109C132.035 286.969 132.543 287.609 133.559 288.031C134.199 288.312 134.988 288.453 135.926 288.453C138.301 288.453 139.871 287.875 140.637 286.719C140.887 286.328 141.012 285.914 141.012 285.477C141.012 284.133 140.238 283.359 138.691 283.156C138.488 283.125 138.277 283.109 138.059 283.109L133.793 283.016C133.074 282.969 132.707 282.656 132.691 282.078C132.691 281.672 132.949 281.414 133.465 281.305C133.574 281.289 133.691 281.281 133.816 281.281L135.879 281.305C137.27 281.305 138.379 280.836 139.207 279.898C139.801 279.227 140.098 278.43 140.098 277.508C140.082 276.336 139.629 275.398 138.738 274.695C138.879 274.195 139.145 273.898 139.535 273.805C139.598 273.789 139.66 273.781 139.723 273.781C139.941 273.781 140.176 273.898 140.426 274.133C140.598 274.289 140.754 274.367 140.895 274.367C141.285 274.273 141.512 274.023 141.574 273.617C141.574 273.133 141.348 272.805 140.895 272.633C140.723 272.57 140.551 272.539 140.379 272.539C139.645 272.539 139.051 272.867 138.598 273.523C138.426 273.773 138.293 274.047 138.199 274.344C137.496 273.984 136.738 273.805 135.926 273.805ZM135.926 287.844C134.379 287.844 133.402 287.438 132.996 286.625C132.887 286.406 132.832 286.188 132.832 285.969C132.848 285.547 133.035 285.125 133.395 284.703C133.707 284.766 133.965 284.797 134.168 284.797L137.777 284.844C138.949 284.859 139.629 285.125 139.816 285.641C139.863 285.766 139.887 285.922 139.887 286.109C139.887 286.797 139.246 287.297 137.965 287.609C137.34 287.766 136.66 287.844 135.926 287.844ZM147.738 283.414H146.051V278.75C146.051 277.328 146.488 276.188 147.363 275.328C147.707 275 147.996 274.828 148.23 274.812C148.496 274.812 148.738 275.008 148.957 275.398C149.207 275.836 149.441 276.086 149.66 276.148C149.754 276.18 149.848 276.195 149.941 276.195C150.41 276.195 150.707 275.969 150.832 275.516C150.863 275.422 150.879 275.328 150.879 275.234C150.879 274.531 150.52 274.102 149.801 273.945C149.645 273.914 149.496 273.898 149.355 273.898C148.418 273.898 147.582 274.297 146.848 275.094C146.504 275.469 146.23 275.891 146.027 276.359L145.934 274.039H142.535V274.625H144.293V282.008C144.293 282.727 144.09 283.156 143.684 283.297C143.449 283.375 143.066 283.414 142.535 283.414V284H148.324C148.324 283.656 148.207 283.469 147.973 283.438C147.91 283.422 147.832 283.414 147.738 283.414ZM153.926 279.008C153.926 276.586 154.59 275.109 155.918 274.578C156.262 274.453 156.621 274.391 156.996 274.391C158.73 274.391 159.738 275.484 160.02 277.672C160.066 278.047 160.09 278.461 160.09 278.914C160.09 281.539 159.371 283.078 157.934 283.531C157.652 283.609 157.363 283.648 157.066 283.648C155.488 283.648 154.496 282.711 154.09 280.836C153.98 280.289 153.926 279.68 153.926 279.008ZM157.066 273.805C155.566 273.805 154.316 274.32 153.316 275.352C152.395 276.305 151.934 277.492 151.934 278.914C151.934 280.883 152.652 282.359 154.09 283.344C154.965 283.938 155.934 284.234 156.996 284.234C158.496 284.234 159.738 283.703 160.723 282.641C161.629 281.672 162.082 280.461 162.082 279.008C162.082 277.039 161.355 275.578 159.902 274.625C159.043 274.078 158.098 273.805 157.066 273.805ZM175.09 283.414H173.918V274.039H170.238V274.625H172.16V279.688C172.16 281.094 171.668 282.125 170.684 282.781C170.246 283.078 169.793 283.227 169.324 283.227C168.043 283.227 167.301 282.57 167.098 281.258C167.066 281.039 167.051 280.805 167.051 280.555V274.039H163.488V274.625H165.293V280.203C165.309 282.875 166.426 284.219 168.645 284.234C169.816 284.234 170.777 283.758 171.527 282.805C171.809 282.445 172.035 282.047 172.207 281.609L172.371 284H175.676C175.676 283.656 175.559 283.469 175.324 283.438C175.262 283.422 175.184 283.414 175.09 283.414ZM181.582 283.414H180.527V278.352C180.574 276.898 181.09 275.852 182.074 275.211C182.496 274.945 182.926 274.812 183.363 274.812C184.316 274.812 184.965 275.258 185.309 276.148C185.449 276.508 185.52 276.914 185.52 277.367V282.008C185.52 282.727 185.316 283.156 184.91 283.297C184.676 283.375 184.293 283.414 183.762 283.414V284H189.035C189.035 283.656 188.918 283.469 188.684 283.438C188.621 283.422 188.543 283.414 188.449 283.414H187.277V277.602C187.277 276.039 186.738 274.922 185.66 274.25C185.16 273.953 184.621 273.805 184.043 273.805C182.887 273.805 181.934 274.266 181.184 275.188C180.902 275.547 180.676 275.945 180.504 276.383L180.41 274.039H177.012V274.625H178.77V282.008C178.77 282.727 178.566 283.156 178.16 283.297C177.926 283.375 177.543 283.414 177.012 283.414V284H182.168C182.168 283.656 182.051 283.469 181.816 283.438C181.754 283.422 181.676 283.414 181.582 283.414ZM198.551 284H201.902C201.902 283.656 201.785 283.469 201.551 283.438C201.488 283.422 201.41 283.414 201.316 283.414H200.145L200.098 268.766H196.113V269.352H198.34V275.07C197.574 274.227 196.543 273.805 195.246 273.805C193.527 273.805 192.23 274.57 191.355 276.102C190.824 277.039 190.559 278.094 190.559 279.266C190.559 281.203 191.168 282.617 192.387 283.508C193.074 283.992 193.832 284.234 194.66 284.234C196.363 284.203 197.598 283.297 198.363 281.516L198.551 284ZM192.551 278.984C192.551 276.781 193.145 275.352 194.332 274.695C194.707 274.492 195.121 274.391 195.574 274.391C196.715 274.391 197.527 275 198.012 276.219C198.277 276.875 198.41 277.648 198.41 278.539C198.41 280.414 197.941 281.773 197.004 282.617C196.504 283.07 195.934 283.297 195.293 283.297C194.012 283.297 193.176 282.516 192.785 280.953C192.629 280.375 192.551 279.719 192.551 278.984ZM212.543 283.414H211.371V274.039H207.738V274.625H209.613V282.008C209.613 282.727 209.371 283.164 208.887 283.32C208.652 283.383 208.27 283.414 207.738 283.414V284H213.129C213.129 283.656 213.012 283.469 212.777 283.438C212.699 283.422 212.621 283.414 212.543 283.414ZM211.652 270.617C211.652 270.07 211.41 269.68 210.926 269.445C210.738 269.367 210.559 269.328 210.387 269.328C209.84 269.328 209.449 269.578 209.215 270.078C209.137 270.25 209.098 270.43 209.098 270.617C209.098 271.195 209.355 271.594 209.871 271.812C210.043 271.875 210.215 271.906 210.387 271.906C210.934 271.906 211.316 271.656 211.535 271.156C211.613 270.984 211.652 270.805 211.652 270.617ZM219.105 283.414H218.051V278.352C218.098 276.898 218.613 275.852 219.598 275.211C220.02 274.945 220.449 274.812 220.887 274.812C221.84 274.812 222.488 275.258 222.832 276.148C222.973 276.508 223.043 276.914 223.043 277.367V282.008C223.043 282.727 222.84 283.156 222.434 283.297C222.199 283.375 221.816 283.414 221.285 283.414V284H226.559C226.559 283.656 226.441 283.469 226.207 283.438C226.145 283.422 226.066 283.414 225.973 283.414H224.801V277.602C224.801 276.039 224.262 274.922 223.184 274.25C222.684 273.953 222.145 273.805 221.566 273.805C220.41 273.805 219.457 274.266 218.707 275.188C218.426 275.547 218.199 275.945 218.027 276.383L217.934 274.039H214.535V274.625H216.293V282.008C216.293 282.727 216.09 283.156 215.684 283.297C215.449 283.375 215.066 283.414 214.535 283.414V284H219.691C219.691 283.656 219.574 283.469 219.34 283.438C219.277 283.422 219.199 283.414 219.105 283.414ZM237.152 283.414H235.98V278.352C235.98 276.93 236.473 275.898 237.457 275.258C237.863 274.992 238.285 274.859 238.723 274.859C239.676 274.859 240.34 275.305 240.715 276.195C240.887 276.617 240.973 277.086 240.973 277.602V282.008C240.973 282.727 240.801 283.156 240.457 283.297C240.238 283.375 239.863 283.414 239.332 283.414V284H244.488C244.488 283.656 244.371 283.469 244.137 283.438C244.074 283.422 243.996 283.414 243.902 283.414H242.73V277.602C242.73 275.898 242.168 274.742 241.043 274.133C240.605 273.914 240.137 273.805 239.637 273.805C238.48 273.805 237.512 274.227 236.73 275.07C236.402 275.43 236.152 275.836 235.98 276.289V268.766H232.465V269.352H234.223V282.008C234.223 282.727 234.02 283.156 233.613 283.297C233.379 283.375 232.996 283.414 232.465 283.414V284H237.738C237.738 283.656 237.621 283.469 237.387 283.438C237.324 283.422 237.246 283.414 237.152 283.414ZM257.168 283.414H255.996V274.039H252.316V274.625H254.238V279.688C254.238 281.094 253.746 282.125 252.762 282.781C252.324 283.078 251.871 283.227 251.402 283.227C250.121 283.227 249.379 282.57 249.176 281.258C249.145 281.039 249.129 280.805 249.129 280.555V274.039H245.566V274.625H247.371V280.203C247.387 282.875 248.504 284.219 250.723 284.234C251.895 284.234 252.855 283.758 253.605 282.805C253.887 282.445 254.113 282.047 254.285 281.609L254.449 284H257.754C257.754 283.656 257.637 283.469 257.402 283.438C257.34 283.422 257.262 283.414 257.168 283.414ZM263.66 283.414H262.605V278.352C262.652 276.977 263.129 275.953 264.035 275.281C264.457 274.969 264.879 274.812 265.301 274.812C266.082 274.812 266.621 275.242 266.918 276.102C267.043 276.477 267.105 276.898 267.105 277.367V282.008C267.105 282.727 266.934 283.156 266.59 283.297C266.371 283.375 265.996 283.414 265.465 283.414V284H270.504C270.504 283.656 270.387 283.469 270.152 283.438C270.09 283.422 270.012 283.414 269.918 283.414H268.863V277.602V277.414C269.113 276.273 269.668 275.477 270.527 275.023C270.855 274.867 271.168 274.789 271.465 274.789C272.262 274.789 272.824 275.203 273.152 276.031C273.309 276.422 273.387 276.867 273.387 277.367V282.008C273.387 282.727 273.215 283.156 272.871 283.297C272.652 283.375 272.277 283.414 271.746 283.414V284H276.926C276.926 283.656 276.809 283.469 276.574 283.438C276.512 283.422 276.434 283.414 276.34 283.414H275.145V277.602C275.145 275.992 274.621 274.867 273.574 274.227C273.105 273.945 272.598 273.805 272.051 273.805C270.863 273.805 269.91 274.359 269.191 275.469C269.004 275.75 268.848 276.047 268.723 276.359C268.441 275.125 267.824 274.328 266.871 273.969C266.59 273.859 266.301 273.805 266.004 273.805C264.879 273.805 263.949 274.281 263.215 275.234C262.949 275.578 262.738 275.961 262.582 276.383L262.488 274.039H259.09V274.625H260.848V282.008C260.848 282.727 260.645 283.156 260.238 283.297C260.004 283.375 259.621 283.414 259.09 283.414V284H264.246C264.246 283.672 264.129 283.484 263.895 283.438C263.816 283.422 263.738 283.414 263.66 283.414ZM286.676 284.234C287.879 284.234 288.543 283.508 288.668 282.055C288.684 281.961 288.691 281.875 288.691 281.797L288.082 281.773C287.973 282.914 287.668 283.492 287.168 283.508C286.762 283.477 286.551 283.07 286.535 282.289V277.344C286.535 275.109 285.418 273.93 283.184 273.805C283.043 273.805 282.902 273.805 282.762 273.805C281.012 273.805 279.84 274.211 279.246 275.023C279.059 275.289 278.965 275.555 278.965 275.82C278.965 276.305 279.191 276.586 279.645 276.664C279.723 276.68 279.801 276.688 279.879 276.688C280.238 276.688 280.504 276.461 280.676 276.008C280.895 275.43 281.043 275.086 281.121 274.977C281.418 274.586 281.879 274.391 282.504 274.391C283.973 274.484 284.73 275.289 284.777 276.805V278.281C281.105 278.281 279.004 279.047 278.473 280.578C278.379 280.875 278.332 281.195 278.332 281.539C278.332 282.727 278.855 283.539 279.902 283.977C280.324 284.148 280.77 284.234 281.238 284.234C282.379 284.234 283.34 283.844 284.121 283.062C284.402 282.766 284.613 282.453 284.754 282.125C284.941 283.516 285.582 284.219 286.676 284.234ZM282.012 283.297C281.059 283.297 280.473 282.82 280.254 281.867C280.207 281.648 280.184 281.406 280.184 281.141C280.184 280.094 280.785 279.43 281.988 279.148C282.629 279.008 283.559 278.93 284.777 278.914V280.789C284.543 281.867 283.973 282.625 283.066 283.062C282.707 283.219 282.355 283.297 282.012 283.297ZM294.082 283.414H293.027V278.352C293.074 276.898 293.59 275.852 294.574 275.211C294.996 274.945 295.426 274.812 295.863 274.812C296.816 274.812 297.465 275.258 297.809 276.148C297.949 276.508 298.02 276.914 298.02 277.367V282.008C298.02 282.727 297.816 283.156 297.41 283.297C297.176 283.375 296.793 283.414 296.262 283.414V284H301.535C301.535 283.656 301.418 283.469 301.184 283.438C301.121 283.422 301.043 283.414 300.949 283.414H299.777V277.602C299.777 276.039 299.238 274.922 298.16 274.25C297.66 273.953 297.121 273.805 296.543 273.805C295.387 273.805 294.434 274.266 293.684 275.188C293.402 275.547 293.176 275.945 293.004 276.383L292.91 274.039H289.512V274.625H291.27V282.008C291.27 282.727 291.066 283.156 290.66 283.297C290.426 283.375 290.043 283.414 289.512 283.414V284H294.668C294.668 283.656 294.551 283.469 294.316 283.438C294.254 283.422 294.176 283.414 294.082 283.414ZM307.629 279.125C307.629 281.016 308.324 282.43 309.715 283.367C310.574 283.945 311.551 284.234 312.645 284.234C314.27 284.234 315.496 283.664 316.324 282.523C316.512 282.258 316.66 281.992 316.77 281.727L316.16 281.516C315.582 282.75 314.629 283.43 313.301 283.555C313.176 283.57 313.051 283.578 312.926 283.578C311.816 283.578 310.949 283.023 310.324 281.914C309.855 281.07 309.621 280.07 309.621 278.914C309.621 276.867 310.16 275.5 311.238 274.812C311.691 274.531 312.191 274.391 312.738 274.391C313.582 274.391 314.09 274.719 314.262 275.375C314.293 275.5 314.332 275.695 314.379 275.961C314.473 276.586 314.645 276.977 314.895 277.133C315.051 277.211 315.223 277.258 315.41 277.273C315.941 277.305 316.277 277.086 316.418 276.617C316.449 276.508 316.465 276.406 316.465 276.312C316.465 275.516 315.957 274.859 314.941 274.344C314.223 273.984 313.441 273.805 312.598 273.805C310.504 273.805 309.043 274.656 308.215 276.359C307.824 277.172 307.629 278.094 307.629 279.125ZM322.723 274.391C323.816 274.391 324.543 274.852 324.902 275.773C325.027 276.07 325.09 276.391 325.09 276.734C325.09 277.516 324.715 277.992 323.965 278.164C323.574 278.242 323.02 278.273 322.301 278.258L319.816 278.188C319.895 276.391 320.48 275.219 321.574 274.672C321.934 274.484 322.316 274.391 322.723 274.391ZM326.801 281.75L326.215 281.539C325.668 282.727 324.785 283.398 323.566 283.555C323.41 283.57 323.262 283.578 323.121 283.578C321.48 283.578 320.449 282.602 320.027 280.648C319.902 280.102 319.832 279.5 319.816 278.844L322.629 278.891C324.535 278.922 325.762 278.742 326.309 278.352C326.73 278.039 326.941 277.594 326.941 277.016C326.941 275.953 326.402 275.109 325.324 274.484C324.559 274.031 323.676 273.805 322.676 273.805C320.723 273.805 319.324 274.617 318.48 276.242C318.043 277.086 317.824 278.039 317.824 279.102C317.824 281.039 318.52 282.477 319.91 283.414C320.738 283.961 321.684 284.234 322.746 284.234C324.434 284.234 325.676 283.625 326.473 282.406C326.598 282.188 326.707 281.969 326.801 281.75ZM333.035 283.414H331.98V278.352C332.027 276.898 332.543 275.852 333.527 275.211C333.949 274.945 334.379 274.812 334.816 274.812C335.77 274.812 336.418 275.258 336.762 276.148C336.902 276.508 336.973 276.914 336.973 277.367V282.008C336.973 282.727 336.77 283.156 336.363 283.297C336.129 283.375 335.746 283.414 335.215 283.414V284H340.488C340.488 283.656 340.371 283.469 340.137 283.438C340.074 283.422 339.996 283.414 339.902 283.414H338.73V277.602C338.73 276.039 338.191 274.922 337.113 274.25C336.613 273.953 336.074 273.805 335.496 273.805C334.34 273.805 333.387 274.266 332.637 275.188C332.355 275.547 332.129 275.945 331.957 276.383L331.863 274.039H328.465V274.625H330.223V282.008C330.223 282.727 330.02 283.156 329.613 283.297C329.379 283.375 328.996 283.414 328.465 283.414V284H333.621C333.621 283.656 333.504 283.469 333.27 283.438C333.207 283.422 333.129 283.414 333.035 283.414ZM341.543 274.625H343.184V281.234C343.293 283.188 344.191 284.195 345.879 284.258C347.316 284.258 348.215 283.375 348.574 281.609C348.574 281.594 348.574 281.578 348.574 281.562L347.941 281.445C347.551 282.742 346.98 283.445 346.23 283.555C345.387 283.523 344.957 282.922 344.941 281.75V274.625H348.574V274.039H344.941V271.32L343.184 271.812V274.039H341.543V274.625ZM354.527 274.391C355.621 274.391 356.348 274.852 356.707 275.773C356.832 276.07 356.895 276.391 356.895 276.734C356.895 277.516 356.52 277.992 355.77 278.164C355.379 278.242 354.824 278.273 354.105 278.258L351.621 278.188C351.699 276.391 352.285 275.219 353.379 274.672C353.738 274.484 354.121 274.391 354.527 274.391ZM358.605 281.75L358.02 281.539C357.473 282.727 356.59 283.398 355.371 283.555C355.215 283.57 355.066 283.578 354.926 283.578C353.285 283.578 352.254 282.602 351.832 280.648C351.707 280.102 351.637 279.5 351.621 278.844L354.434 278.891C356.34 278.922 357.566 278.742 358.113 278.352C358.535 278.039 358.746 277.594 358.746 277.016C358.746 275.953 358.207 275.109 357.129 274.484C356.363 274.031 355.48 273.805 354.48 273.805C352.527 273.805 351.129 274.617 350.285 276.242C349.848 277.086 349.629 278.039 349.629 279.102C349.629 281.039 350.324 282.477 351.715 283.414C352.543 283.961 353.488 284.234 354.551 284.234C356.238 284.234 357.48 283.625 358.277 282.406C358.402 282.188 358.512 281.969 358.605 281.75ZM365.52 283.414H363.832V278.75C363.832 277.328 364.27 276.188 365.145 275.328C365.488 275 365.777 274.828 366.012 274.812C366.277 274.812 366.52 275.008 366.738 275.398C366.988 275.836 367.223 276.086 367.441 276.148C367.535 276.18 367.629 276.195 367.723 276.195C368.191 276.195 368.488 275.969 368.613 275.516C368.645 275.422 368.66 275.328 368.66 275.234C368.66 274.531 368.301 274.102 367.582 273.945C367.426 273.914 367.277 273.898 367.137 273.898C366.199 273.898 365.363 274.297 364.629 275.094C364.285 275.469 364.012 275.891 363.809 276.359L363.715 274.039H360.316V274.625H362.074V282.008C362.074 282.727 361.871 283.156 361.465 283.297C361.23 283.375 360.848 283.414 360.316 283.414V284H366.105C366.105 283.656 365.988 283.469 365.754 283.438C365.691 283.422 365.613 283.414 365.52 283.414ZM374.613 274.391C375.707 274.391 376.434 274.852 376.793 275.773C376.918 276.07 376.98 276.391 376.98 276.734C376.98 277.516 376.605 277.992 375.855 278.164C375.465 278.242 374.91 278.273 374.191 278.258L371.707 278.188C371.785 276.391 372.371 275.219 373.465 274.672C373.824 274.484 374.207 274.391 374.613 274.391ZM378.691 281.75L378.105 281.539C377.559 282.727 376.676 283.398 375.457 283.555C375.301 283.57 375.152 283.578 375.012 283.578C373.371 283.578 372.34 282.602 371.918 280.648C371.793 280.102 371.723 279.5 371.707 278.844L374.52 278.891C376.426 278.922 377.652 278.742 378.199 278.352C378.621 278.039 378.832 277.594 378.832 277.016C378.832 275.953 378.293 275.109 377.215 274.484C376.449 274.031 375.566 273.805 374.566 273.805C372.613 273.805 371.215 274.617 370.371 276.242C369.934 277.086 369.715 278.039 369.715 279.102C369.715 281.039 370.41 282.477 371.801 283.414C372.629 283.961 373.574 284.234 374.637 284.234C376.324 284.234 377.566 283.625 378.363 282.406C378.488 282.188 378.598 281.969 378.691 281.75ZM388.582 284H391.934C391.934 283.656 391.816 283.469 391.582 283.438C391.52 283.422 391.441 283.414 391.348 283.414H390.176L390.129 268.766H386.145V269.352H388.371V275.07C387.605 274.227 386.574 273.805 385.277 273.805C383.559 273.805 382.262 274.57 381.387 276.102C380.855 277.039 380.59 278.094 380.59 279.266C380.59 281.203 381.199 282.617 382.418 283.508C383.105 283.992 383.863 284.234 384.691 284.234C386.395 284.203 387.629 283.297 388.395 281.516L388.582 284ZM382.582 278.984C382.582 276.781 383.176 275.352 384.363 274.695C384.738 274.492 385.152 274.391 385.605 274.391C386.746 274.391 387.559 275 388.043 276.219C388.309 276.875 388.441 277.648 388.441 278.539C388.441 280.414 387.973 281.773 387.035 282.617C386.535 283.07 385.965 283.297 385.324 283.297C384.043 283.297 383.207 282.516 382.816 280.953C382.66 280.375 382.582 279.719 382.582 278.984ZM398.004 279.125C398.004 281.016 398.699 282.43 400.09 283.367C400.949 283.945 401.926 284.234 403.02 284.234C404.645 284.234 405.871 283.664 406.699 282.523C406.887 282.258 407.035 281.992 407.145 281.727L406.535 281.516C405.957 282.75 405.004 283.43 403.676 283.555C403.551 283.57 403.426 283.578 403.301 283.578C402.191 283.578 401.324 283.023 400.699 281.914C400.23 281.07 399.996 280.07 399.996 278.914C399.996 276.867 400.535 275.5 401.613 274.812C402.066 274.531 402.566 274.391 403.113 274.391C403.957 274.391 404.465 274.719 404.637 275.375C404.668 275.5 404.707 275.695 404.754 275.961C404.848 276.586 405.02 276.977 405.27 277.133C405.426 277.211 405.598 277.258 405.785 277.273C406.316 277.305 406.652 277.086 406.793 276.617C406.824 276.508 406.84 276.406 406.84 276.312C406.84 275.516 406.332 274.859 405.316 274.344C404.598 273.984 403.816 273.805 402.973 273.805C400.879 273.805 399.418 274.656 398.59 276.359C398.199 277.172 398.004 278.094 398.004 279.125ZM410.191 279.008C410.191 276.586 410.855 275.109 412.184 274.578C412.527 274.453 412.887 274.391 413.262 274.391C414.996 274.391 416.004 275.484 416.285 277.672C416.332 278.047 416.355 278.461 416.355 278.914C416.355 281.539 415.637 283.078 414.199 283.531C413.918 283.609 413.629 283.648 413.332 283.648C411.754 283.648 410.762 282.711 410.355 280.836C410.246 280.289 410.191 279.68 410.191 279.008ZM413.332 273.805C411.832 273.805 410.582 274.32 409.582 275.352C408.66 276.305 408.199 277.492 408.199 278.914C408.199 280.883 408.918 282.359 410.355 283.344C411.23 283.938 412.199 284.234 413.262 284.234C414.762 284.234 416.004 283.703 416.988 282.641C417.895 281.672 418.348 280.461 418.348 279.008C418.348 277.039 417.621 275.578 416.168 274.625C415.309 274.078 414.363 273.805 413.332 273.805ZM424.559 283.414H423.504V278.352C423.551 276.977 424.027 275.953 424.934 275.281C425.355 274.969 425.777 274.812 426.199 274.812C426.98 274.812 427.52 275.242 427.816 276.102C427.941 276.477 428.004 276.898 428.004 277.367V282.008C428.004 282.727 427.832 283.156 427.488 283.297C427.27 283.375 426.895 283.414 426.363 283.414V284H431.402C431.402 283.656 431.285 283.469 431.051 283.438C430.988 283.422 430.91 283.414 430.816 283.414H429.762V277.602V277.414C430.012 276.273 430.566 275.477 431.426 275.023C431.754 274.867 432.066 274.789 432.363 274.789C433.16 274.789 433.723 275.203 434.051 276.031C434.207 276.422 434.285 276.867 434.285 277.367V282.008C434.285 282.727 434.113 283.156 433.77 283.297C433.551 283.375 433.176 283.414 432.645 283.414V284H437.824C437.824 283.656 437.707 283.469 437.473 283.438C437.41 283.422 437.332 283.414 437.238 283.414H436.043V277.602C436.043 275.992 435.52 274.867 434.473 274.227C434.004 273.945 433.496 273.805 432.949 273.805C431.762 273.805 430.809 274.359 430.09 275.469C429.902 275.75 429.746 276.047 429.621 276.359C429.34 275.125 428.723 274.328 427.77 273.969C427.488 273.859 427.199 273.805 426.902 273.805C425.777 273.805 424.848 274.281 424.113 275.234C423.848 275.578 423.637 275.961 423.48 276.383L423.387 274.039H419.988V274.625H421.746V282.008C421.746 282.727 421.543 283.156 421.137 283.297C420.902 283.375 420.52 283.414 419.988 283.414V284H425.145C425.145 283.672 425.027 283.484 424.793 283.438C424.715 283.422 424.637 283.414 424.559 283.414ZM442.535 287.867V283.016C443.395 283.766 444.387 284.172 445.512 284.234C446.902 284.234 448.066 283.711 449.004 282.664C449.91 281.648 450.363 280.359 450.363 278.797C450.363 277.016 449.871 275.664 448.887 274.742C448.199 274.117 447.363 273.805 446.379 273.805C444.863 273.805 443.73 274.406 442.98 275.609C442.793 275.922 442.637 276.25 442.512 276.594L442.395 274.039H439.02V274.625H440.777V286.461C440.777 287.18 440.574 287.609 440.168 287.75C439.934 287.828 439.551 287.867 439.02 287.867V288.453H444.762C444.762 288.109 444.645 287.922 444.41 287.891C444.348 287.875 444.27 287.867 444.176 287.867H442.535ZM445.629 274.742C446.988 274.742 447.848 275.594 448.207 277.297C448.316 277.812 448.371 278.391 448.371 279.031C448.371 281.328 447.754 282.781 446.52 283.391C446.16 283.562 445.77 283.648 445.348 283.648C444.145 283.648 443.316 283.016 442.863 281.75C442.629 281.109 442.512 280.352 442.512 279.477C442.512 277.445 443.035 276.039 444.082 275.258C444.551 274.914 445.066 274.742 445.629 274.742ZM463.371 283.414H462.199V274.039H458.52V274.625H460.441V279.688C460.441 281.094 459.949 282.125 458.965 282.781C458.527 283.078 458.074 283.227 457.605 283.227C456.324 283.227 455.582 282.57 455.379 281.258C455.348 281.039 455.332 280.805 455.332 280.555V274.039H451.77V274.625H453.574V280.203C453.59 282.875 454.707 284.219 456.926 284.234C458.098 284.234 459.059 283.758 459.809 282.805C460.09 282.445 460.316 282.047 460.488 281.609L460.652 284H463.957C463.957 283.656 463.84 283.469 463.605 283.438C463.543 283.422 463.465 283.414 463.371 283.414ZM465.059 274.625H466.699V281.234C466.809 283.188 467.707 284.195 469.395 284.258C470.832 284.258 471.73 283.375 472.09 281.609C472.09 281.594 472.09 281.578 472.09 281.562L471.457 281.445C471.066 282.742 470.496 283.445 469.746 283.555C468.902 283.523 468.473 282.922 468.457 281.75V274.625H472.09V274.039H468.457V271.32L466.699 271.812V274.039H465.059V274.625ZM477.715 283.414H476.543V274.039H472.91V274.625H474.785V282.008C474.785 282.727 474.543 283.164 474.059 283.32C473.824 283.383 473.441 283.414 472.91 283.414V284H478.301C478.301 283.656 478.184 283.469 477.949 283.438C477.871 283.422 477.793 283.414 477.715 283.414ZM476.824 270.617C476.824 270.07 476.582 269.68 476.098 269.445C475.91 269.367 475.73 269.328 475.559 269.328C475.012 269.328 474.621 269.578 474.387 270.078C474.309 270.25 474.27 270.43 474.27 270.617C474.27 271.195 474.527 271.594 475.043 271.812C475.215 271.875 475.387 271.906 475.559 271.906C476.105 271.906 476.488 271.656 476.707 271.156C476.785 270.984 476.824 270.805 476.824 270.617ZM484.277 283.414H483.223V278.352C483.27 276.898 483.785 275.852 484.77 275.211C485.191 274.945 485.621 274.812 486.059 274.812C487.012 274.812 487.66 275.258 488.004 276.148C488.145 276.508 488.215 276.914 488.215 277.367V282.008C488.215 282.727 488.012 283.156 487.605 283.297C487.371 283.375 486.988 283.414 486.457 283.414V284H491.73C491.73 283.656 491.613 283.469 491.379 283.438C491.316 283.422 491.238 283.414 491.145 283.414H489.973V277.602C489.973 276.039 489.434 274.922 488.355 274.25C487.855 273.953 487.316 273.805 486.738 273.805C485.582 273.805 484.629 274.266 483.879 275.188C483.598 275.547 483.371 275.945 483.199 276.383L483.105 274.039H479.707V274.625H481.465V282.008C481.465 282.727 481.262 283.156 480.855 283.297C480.621 283.375 480.238 283.414 479.707 283.414V284H484.863C484.863 283.656 484.746 283.469 484.512 283.438C484.449 283.422 484.371 283.414 484.277 283.414ZM495.363 277.508C495.395 275.445 496.176 274.406 497.707 274.391C499.238 274.422 500.012 275.461 500.027 277.508C499.996 279.633 499.223 280.703 497.707 280.719C496.16 280.688 495.379 279.617 495.363 277.508ZM497.73 273.805C496.324 273.805 495.207 274.258 494.379 275.164C493.785 275.836 493.488 276.625 493.488 277.531C493.488 278.719 494.066 279.703 495.223 280.484C495.332 280.562 495.441 280.633 495.551 280.695C494.551 280.695 493.926 281.125 493.676 281.984C493.629 282.188 493.605 282.391 493.605 282.594C493.621 283.422 493.957 284.039 494.613 284.445C494.098 284.992 493.84 285.547 493.84 286.109C493.84 286.969 494.348 287.609 495.363 288.031C496.004 288.312 496.793 288.453 497.73 288.453C500.105 288.453 501.676 287.875 502.441 286.719C502.691 286.328 502.816 285.914 502.816 285.477C502.816 284.133 502.043 283.359 500.496 283.156C500.293 283.125 500.082 283.109 499.863 283.109L495.598 283.016C494.879 282.969 494.512 282.656 494.496 282.078C494.496 281.672 494.754 281.414 495.27 281.305C495.379 281.289 495.496 281.281 495.621 281.281L497.684 281.305C499.074 281.305 500.184 280.836 501.012 279.898C501.605 279.227 501.902 278.43 501.902 277.508C501.887 276.336 501.434 275.398 500.543 274.695C500.684 274.195 500.949 273.898 501.34 273.805C501.402 273.789 501.465 273.781 501.527 273.781C501.746 273.781 501.98 273.898 502.23 274.133C502.402 274.289 502.559 274.367 502.699 274.367C503.09 274.273 503.316 274.023 503.379 273.617C503.379 273.133 503.152 272.805 502.699 272.633C502.527 272.57 502.355 272.539 502.184 272.539C501.449 272.539 500.855 272.867 500.402 273.523C500.23 273.773 500.098 274.047 500.004 274.344C499.301 273.984 498.543 273.805 497.73 273.805ZM497.73 287.844C496.184 287.844 495.207 287.438 494.801 286.625C494.691 286.406 494.637 286.188 494.637 285.969C494.652 285.547 494.84 285.125 495.199 284.703C495.512 284.766 495.77 284.797 495.973 284.797L499.582 284.844C500.754 284.859 501.434 285.125 501.621 285.641C501.668 285.766 501.691 285.922 501.691 286.109C501.691 286.797 501.051 287.297 499.77 287.609C499.145 287.766 498.465 287.844 497.73 287.844ZM168.012 332.234C169.215 332.234 169.879 331.508 170.004 330.055C170.02 329.961 170.027 329.875 170.027 329.797L169.418 329.773C169.309 330.914 169.004 331.492 168.504 331.508C168.098 331.477 167.887 331.07 167.871 330.289V325.344C167.871 323.109 166.754 321.93 164.52 321.805C164.379 321.805 164.238 321.805 164.098 321.805C162.348 321.805 161.176 322.211 160.582 323.023C160.395 323.289 160.301 323.555 160.301 323.82C160.301 324.305 160.527 324.586 160.98 324.664C161.059 324.68 161.137 324.688 161.215 324.688C161.574 324.688 161.84 324.461 162.012 324.008C162.23 323.43 162.379 323.086 162.457 322.977C162.754 322.586 163.215 322.391 163.84 322.391C165.309 322.484 166.066 323.289 166.113 324.805V326.281C162.441 326.281 160.34 327.047 159.809 328.578C159.715 328.875 159.668 329.195 159.668 329.539C159.668 330.727 160.191 331.539 161.238 331.977C161.66 332.148 162.105 332.234 162.574 332.234C163.715 332.234 164.676 331.844 165.457 331.062C165.738 330.766 165.949 330.453 166.09 330.125C166.277 331.516 166.918 332.219 168.012 332.234ZM163.348 331.297C162.395 331.297 161.809 330.82 161.59 329.867C161.543 329.648 161.52 329.406 161.52 329.141C161.52 328.094 162.121 327.43 163.324 327.148C163.965 327.008 164.895 326.93 166.113 326.914V328.789C165.879 329.867 165.309 330.625 164.402 331.062C164.043 331.219 163.691 331.297 163.348 331.297ZM175.418 331.414H174.363V326.352C174.41 324.898 174.926 323.852 175.91 323.211C176.332 322.945 176.762 322.812 177.199 322.812C178.152 322.812 178.801 323.258 179.145 324.148C179.285 324.508 179.355 324.914 179.355 325.367V330.008C179.355 330.727 179.152 331.156 178.746 331.297C178.512 331.375 178.129 331.414 177.598 331.414V332H182.871C182.871 331.656 182.754 331.469 182.52 331.438C182.457 331.422 182.379 331.414 182.285 331.414H181.113V325.602C181.113 324.039 180.574 322.922 179.496 322.25C178.996 321.953 178.457 321.805 177.879 321.805C176.723 321.805 175.77 322.266 175.02 323.188C174.738 323.547 174.512 323.945 174.34 324.383L174.246 322.039H170.848V322.625H172.605V330.008C172.605 330.727 172.402 331.156 171.996 331.297C171.762 331.375 171.379 331.414 170.848 331.414V332H176.004C176.004 331.656 175.887 331.469 175.652 331.438C175.59 331.422 175.512 331.414 175.418 331.414ZM192.387 332H195.738C195.738 331.656 195.621 331.469 195.387 331.438C195.324 331.422 195.246 331.414 195.152 331.414H193.98L193.934 316.766H189.949V317.352H192.176V323.07C191.41 322.227 190.379 321.805 189.082 321.805C187.363 321.805 186.066 322.57 185.191 324.102C184.66 325.039 184.395 326.094 184.395 327.266C184.395 329.203 185.004 330.617 186.223 331.508C186.91 331.992 187.668 332.234 188.496 332.234C190.199 332.203 191.434 331.297 192.199 329.516L192.387 332ZM186.387 326.984C186.387 324.781 186.98 323.352 188.168 322.695C188.543 322.492 188.957 322.391 189.41 322.391C190.551 322.391 191.363 323 191.848 324.219C192.113 324.875 192.246 325.648 192.246 326.539C192.246 328.414 191.777 329.773 190.84 330.617C190.34 331.07 189.77 331.297 189.129 331.297C187.848 331.297 187.012 330.516 186.621 328.953C186.465 328.375 186.387 327.719 186.387 326.984ZM206.754 331.414H205.113V322.625H207.809V322.039H205.113V321.898C205.113 319.227 205.512 317.711 206.309 317.352C206.48 317.273 206.668 317.234 206.871 317.234C207.355 317.234 207.762 317.523 208.09 318.102C208.371 318.602 208.574 318.898 208.699 318.992C208.824 319.086 208.965 319.133 209.121 319.133C209.637 319.133 209.941 318.914 210.035 318.477C210.051 318.398 210.059 318.328 210.059 318.266C210.059 317.688 209.668 317.234 208.887 316.906C208.434 316.734 207.926 316.648 207.363 316.648C205.895 316.648 204.801 317.258 204.082 318.477C203.598 319.32 203.355 320.383 203.355 321.664V322.039H201.715V322.625H203.355V330.008C203.355 330.727 203.152 331.156 202.746 331.297C202.512 331.375 202.129 331.414 201.598 331.414V332H207.34C207.34 331.656 207.223 331.469 206.988 331.438C206.926 331.422 206.848 331.414 206.754 331.414ZM213.949 331.414H212.262V326.75C212.262 325.328 212.699 324.188 213.574 323.328C213.918 323 214.207 322.828 214.441 322.812C214.707 322.812 214.949 323.008 215.168 323.398C215.418 323.836 215.652 324.086 215.871 324.148C215.965 324.18 216.059 324.195 216.152 324.195C216.621 324.195 216.918 323.969 217.043 323.516C217.074 323.422 217.09 323.328 217.09 323.234C217.09 322.531 216.73 322.102 216.012 321.945C215.855 321.914 215.707 321.898 215.566 321.898C214.629 321.898 213.793 322.297 213.059 323.094C212.715 323.469 212.441 323.891 212.238 324.359L212.145 322.039H208.746V322.625H210.504V330.008C210.504 330.727 210.301 331.156 209.895 331.297C209.66 331.375 209.277 331.414 208.746 331.414V332H214.535C214.535 331.656 214.418 331.469 214.184 331.438C214.121 331.422 214.043 331.414 213.949 331.414ZM220.137 327.008C220.137 324.586 220.801 323.109 222.129 322.578C222.473 322.453 222.832 322.391 223.207 322.391C224.941 322.391 225.949 323.484 226.23 325.672C226.277 326.047 226.301 326.461 226.301 326.914C226.301 329.539 225.582 331.078 224.145 331.531C223.863 331.609 223.574 331.648 223.277 331.648C221.699 331.648 220.707 330.711 220.301 328.836C220.191 328.289 220.137 327.68 220.137 327.008ZM223.277 321.805C221.777 321.805 220.527 322.32 219.527 323.352C218.605 324.305 218.145 325.492 218.145 326.914C218.145 328.883 218.863 330.359 220.301 331.344C221.176 331.938 222.145 332.234 223.207 332.234C224.707 332.234 225.949 331.703 226.934 330.641C227.84 329.672 228.293 328.461 228.293 327.008C228.293 325.039 227.566 323.578 226.113 322.625C225.254 322.078 224.309 321.805 223.277 321.805ZM234.504 331.414H233.449V326.352C233.496 324.898 234.012 323.852 234.996 323.211C235.418 322.945 235.848 322.812 236.285 322.812C237.238 322.812 237.887 323.258 238.23 324.148C238.371 324.508 238.441 324.914 238.441 325.367V330.008C238.441 330.727 238.238 331.156 237.832 331.297C237.598 331.375 237.215 331.414 236.684 331.414V332H241.957C241.957 331.656 241.84 331.469 241.605 331.438C241.543 331.422 241.465 331.414 241.371 331.414H240.199V325.602C240.199 324.039 239.66 322.922 238.582 322.25C238.082 321.953 237.543 321.805 236.965 321.805C235.809 321.805 234.855 322.266 234.105 323.188C233.824 323.547 233.598 323.945 233.426 324.383L233.332 322.039H229.934V322.625H231.691V330.008C231.691 330.727 231.488 331.156 231.082 331.297C230.848 331.375 230.465 331.414 229.934 331.414V332H235.09C235.09 331.656 234.973 331.469 234.738 331.438C234.676 331.422 234.598 331.414 234.504 331.414ZM243.012 322.625H244.652V329.234C244.762 331.188 245.66 332.195 247.348 332.258C248.785 332.258 249.684 331.375 250.043 329.609C250.043 329.594 250.043 329.578 250.043 329.562L249.41 329.445C249.02 330.742 248.449 331.445 247.699 331.555C246.855 331.523 246.426 330.922 246.41 329.75V322.625H250.043V322.039H246.41V319.32L244.652 319.812V322.039H243.012V322.625ZM260.566 322.391C261.66 322.391 262.387 322.852 262.746 323.773C262.871 324.07 262.934 324.391 262.934 324.734C262.934 325.516 262.559 325.992 261.809 326.164C261.418 326.242 260.863 326.273 260.145 326.258L257.66 326.188C257.738 324.391 258.324 323.219 259.418 322.672C259.777 322.484 260.16 322.391 260.566 322.391ZM264.645 329.75L264.059 329.539C263.512 330.727 262.629 331.398 261.41 331.555C261.254 331.57 261.105 331.578 260.965 331.578C259.324 331.578 258.293 330.602 257.871 328.648C257.746 328.102 257.676 327.5 257.66 326.844L260.473 326.891C262.379 326.922 263.605 326.742 264.152 326.352C264.574 326.039 264.785 325.594 264.785 325.016C264.785 323.953 264.246 323.109 263.168 322.484C262.402 322.031 261.52 321.805 260.52 321.805C258.566 321.805 257.168 322.617 256.324 324.242C255.887 325.086 255.668 326.039 255.668 327.102C255.668 329.039 256.363 330.477 257.754 331.414C258.582 331.961 259.527 332.234 260.59 332.234C262.277 332.234 263.52 331.625 264.316 330.406C264.441 330.188 264.551 329.969 264.645 329.75ZM270.879 331.414H269.824V326.352C269.871 324.898 270.387 323.852 271.371 323.211C271.793 322.945 272.223 322.812 272.66 322.812C273.613 322.812 274.262 323.258 274.605 324.148C274.746 324.508 274.816 324.914 274.816 325.367V330.008C274.816 330.727 274.613 331.156 274.207 331.297C273.973 331.375 273.59 331.414 273.059 331.414V332H278.332C278.332 331.656 278.215 331.469 277.98 331.438C277.918 331.422 277.84 331.414 277.746 331.414H276.574V325.602C276.574 324.039 276.035 322.922 274.957 322.25C274.457 321.953 273.918 321.805 273.34 321.805C272.184 321.805 271.23 322.266 270.48 323.188C270.199 323.547 269.973 323.945 269.801 324.383L269.707 322.039H266.309V322.625H268.066V330.008C268.066 330.727 267.863 331.156 267.457 331.297C267.223 331.375 266.84 331.414 266.309 331.414V332H271.465C271.465 331.656 271.348 331.469 271.113 331.438C271.051 331.422 270.973 331.414 270.879 331.414ZM287.848 332H291.199C291.199 331.656 291.082 331.469 290.848 331.438C290.785 331.422 290.707 331.414 290.613 331.414H289.441L289.395 316.766H285.41V317.352H287.637V323.07C286.871 322.227 285.84 321.805 284.543 321.805C282.824 321.805 281.527 322.57 280.652 324.102C280.121 325.039 279.855 326.094 279.855 327.266C279.855 329.203 280.465 330.617 281.684 331.508C282.371 331.992 283.129 332.234 283.957 332.234C285.66 332.203 286.895 331.297 287.66 329.516L287.848 332ZM281.848 326.984C281.848 324.781 282.441 323.352 283.629 322.695C284.004 322.492 284.418 322.391 284.871 322.391C286.012 322.391 286.824 323 287.309 324.219C287.574 324.875 287.707 325.648 287.707 326.539C287.707 328.414 287.238 329.773 286.301 330.617C285.801 331.07 285.23 331.297 284.59 331.297C283.309 331.297 282.473 330.516 282.082 328.953C281.926 328.375 281.848 327.719 281.848 326.984ZM305.262 332H308.613C308.613 331.656 308.496 331.469 308.262 331.438C308.199 331.422 308.121 331.414 308.027 331.414H306.855L306.809 316.766H302.824V317.352H305.051V323.07C304.285 322.227 303.254 321.805 301.957 321.805C300.238 321.805 298.941 322.57 298.066 324.102C297.535 325.039 297.27 326.094 297.27 327.266C297.27 329.203 297.879 330.617 299.098 331.508C299.785 331.992 300.543 332.234 301.371 332.234C303.074 332.203 304.309 331.297 305.074 329.516L305.262 332ZM299.262 326.984C299.262 324.781 299.855 323.352 301.043 322.695C301.418 322.492 301.832 322.391 302.285 322.391C303.426 322.391 304.238 323 304.723 324.219C304.988 324.875 305.121 325.648 305.121 326.539C305.121 328.414 304.652 329.773 303.715 330.617C303.215 331.07 302.645 331.297 302.004 331.297C300.723 331.297 299.887 330.516 299.496 328.953C299.34 328.375 299.262 327.719 299.262 326.984ZM315.012 322.391C316.105 322.391 316.832 322.852 317.191 323.773C317.316 324.07 317.379 324.391 317.379 324.734C317.379 325.516 317.004 325.992 316.254 326.164C315.863 326.242 315.309 326.273 314.59 326.258L312.105 326.188C312.184 324.391 312.77 323.219 313.863 322.672C314.223 322.484 314.605 322.391 315.012 322.391ZM319.09 329.75L318.504 329.539C317.957 330.727 317.074 331.398 315.855 331.555C315.699 331.57 315.551 331.578 315.41 331.578C313.77 331.578 312.738 330.602 312.316 328.648C312.191 328.102 312.121 327.5 312.105 326.844L314.918 326.891C316.824 326.922 318.051 326.742 318.598 326.352C319.02 326.039 319.23 325.594 319.23 325.016C319.23 323.953 318.691 323.109 317.613 322.484C316.848 322.031 315.965 321.805 314.965 321.805C313.012 321.805 311.613 322.617 310.77 324.242C310.332 325.086 310.113 326.039 310.113 327.102C310.113 329.039 310.809 330.477 312.199 331.414C313.027 331.961 313.973 332.234 315.035 332.234C316.723 332.234 317.965 331.625 318.762 330.406C318.887 330.188 318.996 329.969 319.09 329.75ZM324.668 322.625V322.039H320.121V322.625H321.176L324.035 330.477C324.348 331.352 324.691 331.859 325.066 332C325.254 332.078 325.488 332.117 325.77 332.117H326.074L329.379 323.445C329.566 322.961 329.793 322.695 330.059 322.648C330.137 322.633 330.207 322.625 330.27 322.625C330.613 322.625 330.801 322.508 330.832 322.273C330.848 322.195 330.855 322.117 330.855 322.039H327.246V322.625H329.004L326.027 330.617L323.027 322.625H324.668ZM336.762 322.391C337.855 322.391 338.582 322.852 338.941 323.773C339.066 324.07 339.129 324.391 339.129 324.734C339.129 325.516 338.754 325.992 338.004 326.164C337.613 326.242 337.059 326.273 336.34 326.258L333.855 326.188C333.934 324.391 334.52 323.219 335.613 322.672C335.973 322.484 336.355 322.391 336.762 322.391ZM340.84 329.75L340.254 329.539C339.707 330.727 338.824 331.398 337.605 331.555C337.449 331.57 337.301 331.578 337.16 331.578C335.52 331.578 334.488 330.602 334.066 328.648C333.941 328.102 333.871 327.5 333.855 326.844L336.668 326.891C338.574 326.922 339.801 326.742 340.348 326.352C340.77 326.039 340.98 325.594 340.98 325.016C340.98 323.953 340.441 323.109 339.363 322.484C338.598 322.031 337.715 321.805 336.715 321.805C334.762 321.805 333.363 322.617 332.52 324.242C332.082 325.086 331.863 326.039 331.863 327.102C331.863 329.039 332.559 330.477 333.949 331.414C334.777 331.961 335.723 332.234 336.785 332.234C338.473 332.234 339.715 331.625 340.512 330.406C340.637 330.188 340.746 329.969 340.84 329.75ZM347.355 331.414H346.09V316.766H342.574V317.352H344.332V330.008C344.332 330.727 344.129 331.156 343.723 331.297C343.488 331.375 343.105 331.414 342.574 331.414V332H347.941C347.941 331.656 347.824 331.469 347.59 331.438C347.527 331.422 347.449 331.414 347.355 331.414ZM351.504 327.008C351.504 324.586 352.168 323.109 353.496 322.578C353.84 322.453 354.199 322.391 354.574 322.391C356.309 322.391 357.316 323.484 357.598 325.672C357.645 326.047 357.668 326.461 357.668 326.914C357.668 329.539 356.949 331.078 355.512 331.531C355.23 331.609 354.941 331.648 354.645 331.648C353.066 331.648 352.074 330.711 351.668 328.836C351.559 328.289 351.504 327.68 351.504 327.008ZM354.645 321.805C353.145 321.805 351.895 322.32 350.895 323.352C349.973 324.305 349.512 325.492 349.512 326.914C349.512 328.883 350.23 330.359 351.668 331.344C352.543 331.938 353.512 332.234 354.574 332.234C356.074 332.234 357.316 331.703 358.301 330.641C359.207 329.672 359.66 328.461 359.66 327.008C359.66 325.039 358.934 323.578 357.48 322.625C356.621 322.078 355.676 321.805 354.645 321.805ZM364.723 335.867V331.016C365.582 331.766 366.574 332.172 367.699 332.234C369.09 332.234 370.254 331.711 371.191 330.664C372.098 329.648 372.551 328.359 372.551 326.797C372.551 325.016 372.059 323.664 371.074 322.742C370.387 322.117 369.551 321.805 368.566 321.805C367.051 321.805 365.918 322.406 365.168 323.609C364.98 323.922 364.824 324.25 364.699 324.594L364.582 322.039H361.207V322.625H362.965V334.461C362.965 335.18 362.762 335.609 362.355 335.75C362.121 335.828 361.738 335.867 361.207 335.867V336.453H366.949C366.949 336.109 366.832 335.922 366.598 335.891C366.535 335.875 366.457 335.867 366.363 335.867H364.723ZM367.816 322.742C369.176 322.742 370.035 323.594 370.395 325.297C370.504 325.812 370.559 326.391 370.559 327.031C370.559 329.328 369.941 330.781 368.707 331.391C368.348 331.562 367.957 331.648 367.535 331.648C366.332 331.648 365.504 331.016 365.051 329.75C364.816 329.109 364.699 328.352 364.699 327.477C364.699 325.445 365.223 324.039 366.27 323.258C366.738 322.914 367.254 322.742 367.816 322.742ZM378.762 331.414H377.707V326.352C377.754 324.977 378.23 323.953 379.137 323.281C379.559 322.969 379.98 322.812 380.402 322.812C381.184 322.812 381.723 323.242 382.02 324.102C382.145 324.477 382.207 324.898 382.207 325.367V330.008C382.207 330.727 382.035 331.156 381.691 331.297C381.473 331.375 381.098 331.414 380.566 331.414V332H385.605C385.605 331.656 385.488 331.469 385.254 331.438C385.191 331.422 385.113 331.414 385.02 331.414H383.965V325.602V325.414C384.215 324.273 384.77 323.477 385.629 323.023C385.957 322.867 386.27 322.789 386.566 322.789C387.363 322.789 387.926 323.203 388.254 324.031C388.41 324.422 388.488 324.867 388.488 325.367V330.008C388.488 330.727 388.316 331.156 387.973 331.297C387.754 331.375 387.379 331.414 386.848 331.414V332H392.027C392.027 331.656 391.91 331.469 391.676 331.438C391.613 331.422 391.535 331.414 391.441 331.414H390.246V325.602C390.246 323.992 389.723 322.867 388.676 322.227C388.207 321.945 387.699 321.805 387.152 321.805C385.965 321.805 385.012 322.359 384.293 323.469C384.105 323.75 383.949 324.047 383.824 324.359C383.543 323.125 382.926 322.328 381.973 321.969C381.691 321.859 381.402 321.805 381.105 321.805C379.98 321.805 379.051 322.281 378.316 323.234C378.051 323.578 377.84 323.961 377.684 324.383L377.59 322.039H374.191V322.625H375.949V330.008C375.949 330.727 375.746 331.156 375.34 331.297C375.105 331.375 374.723 331.414 374.191 331.414V332H379.348C379.348 331.672 379.23 331.484 378.996 331.438C378.918 331.422 378.84 331.414 378.762 331.414ZM398.449 322.391C399.543 322.391 400.27 322.852 400.629 323.773C400.754 324.07 400.816 324.391 400.816 324.734C400.816 325.516 400.441 325.992 399.691 326.164C399.301 326.242 398.746 326.273 398.027 326.258L395.543 326.188C395.621 324.391 396.207 323.219 397.301 322.672C397.66 322.484 398.043 322.391 398.449 322.391ZM402.527 329.75L401.941 329.539C401.395 330.727 400.512 331.398 399.293 331.555C399.137 331.57 398.988 331.578 398.848 331.578C397.207 331.578 396.176 330.602 395.754 328.648C395.629 328.102 395.559 327.5 395.543 326.844L398.355 326.891C400.262 326.922 401.488 326.742 402.035 326.352C402.457 326.039 402.668 325.594 402.668 325.016C402.668 323.953 402.129 323.109 401.051 322.484C400.285 322.031 399.402 321.805 398.402 321.805C396.449 321.805 395.051 322.617 394.207 324.242C393.77 325.086 393.551 326.039 393.551 327.102C393.551 329.039 394.246 330.477 395.637 331.414C396.465 331.961 397.41 332.234 398.473 332.234C400.16 332.234 401.402 331.625 402.199 330.406C402.324 330.188 402.434 329.969 402.527 329.75ZM408.762 331.414H407.707V326.352C407.754 324.898 408.27 323.852 409.254 323.211C409.676 322.945 410.105 322.812 410.543 322.812C411.496 322.812 412.145 323.258 412.488 324.148C412.629 324.508 412.699 324.914 412.699 325.367V330.008C412.699 330.727 412.496 331.156 412.09 331.297C411.855 331.375 411.473 331.414 410.941 331.414V332H416.215C416.215 331.656 416.098 331.469 415.863 331.438C415.801 331.422 415.723 331.414 415.629 331.414H414.457V325.602C414.457 324.039 413.918 322.922 412.84 322.25C412.34 321.953 411.801 321.805 411.223 321.805C410.066 321.805 409.113 322.266 408.363 323.188C408.082 323.547 407.855 323.945 407.684 324.383L407.59 322.039H404.191V322.625H405.949V330.008C405.949 330.727 405.746 331.156 405.34 331.297C405.105 331.375 404.723 331.414 404.191 331.414V332H409.348C409.348 331.656 409.23 331.469 408.996 331.438C408.934 331.422 408.855 331.414 408.762 331.414ZM417.27 322.625H418.91V329.234C419.02 331.188 419.918 332.195 421.605 332.258C423.043 332.258 423.941 331.375 424.301 329.609C424.301 329.594 424.301 329.578 424.301 329.562L423.668 329.445C423.277 330.742 422.707 331.445 421.957 331.555C421.113 331.523 420.684 330.922 420.668 329.75V322.625H424.301V322.039H420.668V319.32L418.91 319.812V322.039H417.27V322.625ZM427.98 330.922C427.98 330.406 427.746 330.039 427.277 329.82C427.121 329.742 426.957 329.703 426.785 329.703C426.27 329.703 425.91 329.938 425.707 330.406C425.629 330.578 425.59 330.75 425.59 330.922C425.59 331.422 425.816 331.781 426.27 332C426.441 332.078 426.613 332.117 426.785 332.117C427.285 332.117 427.645 331.891 427.863 331.438C427.941 331.266 427.98 331.094 427.98 330.922Z" fill="white"/>
</g>
<defs>
<filter id="filter0_d" x="102" y="0" width="608" height="508" filterUnits="userSpaceOnUse" color-interpolation-filters="sRGB">
<feFlood flood-opacity="0" result="BackgroundImageFix"/>
<feColorMatrix in="SourceAlpha" type="matrix" values="0 0 0 0 0 0 0 0 0 0 0 0 0 0 0 0 0 0 127 0"/>
<feOffset dy="4"/>
<feGaussianBlur stdDeviation="2"/>
<feColorMatrix type="matrix" values="0 0 0 0 0 0 0 0 0 0 0 0 0 0 0 0 0 0 0.25 0"/>
<feBlend mode="normal" in2="BackgroundImageFix" result="effect1_dropShadow"/>
<feBlend mode="normal" in="SourceGraphic" in2="effect1_dropShadow" result="shape"/>
</filter>
<filter id="filter1_d" x="102" y="120" width="608" height="508" filterUnits="userSpaceOnUse" color-interpolation-filters="sRGB">
<feFlood flood-opacity="0" result="BackgroundImageFix"/>
<feColorMatrix in="SourceAlpha" type="matrix" values="0 0 0 0 0 0 0 0 0 0 0 0 0 0 0 0 0 0 127 0"/>
<feOffset dy="4"/>
<feGaussianBlur stdDeviation="2"/>
<feColorMatrix type="matrix" values="0 0 0 0 0 0 0 0 0 0 0 0 0 0 0 0 0 0 0.25 0"/>
<feBlend mode="normal" in2="BackgroundImageFix" result="effect1_dropShadow"/>
<feBlend mode="normal" in="SourceGraphic" in2="effect1_dropShadow" result="shape"/>
</filter>
<filter id="filter2_d" x="0" y="41" width="608" height="508" filterUnits="userSpaceOnUse" color-interpolation-filters="sRGB">
<feFlood flood-opacity="0" result="BackgroundImageFix"/>
<feColorMatrix in="SourceAlpha" type="matrix" values="0 0 0 0 0 0 0 0 0 0 0 0 0 0 0 0 0 0 127 0"/>
<feOffset dy="4"/>
<feGaussianBlur stdDeviation="2"/>
<feColorMatrix type="matrix" values="0 0 0 0 0 0 0 0 0 0 0 0 0 0 0 0 0 0 0.25 0"/>
<feBlend mode="normal" in2="BackgroundImageFix" result="effect1_dropShadow"/>
<feBlend mode="normal" in="SourceGraphic" in2="effect1_dropShadow" result="shape"/>
</filter>
<filter id="filter3_d" x="81.0195" y="172.766" width="426.359" height="171.688" filterUnits="userSpaceOnUse" color-interpolation-filters="sRGB">
<feFlood flood-opacity="0" result="BackgroundImageFix"/>
<feColorMatrix in="SourceAlpha" type="matrix" values="0 0 0 0 0 0 0 0 0 0 0 0 0 0 0 0 0 0 127 0"/>
<feOffset dy="4"/>
<feGaussianBlur stdDeviation="2"/>
<feColorMatrix type="matrix" values="0 0 0 0 0 0 0 0 0 0 0 0 0 0 0 0 0 0 0.25 0"/>
<feBlend mode="normal" in2="BackgroundImageFix" result="effect1_dropShadow"/>
<feBlend mode="normal" in="SourceGraphic" in2="effect1_dropShadow" result="shape"/>
</filter>
</defs>
</svg>
