<svg width="710" height="628" viewBox="0 0 710 628" fill="none" xmlns="http://www.w3.org/2000/svg"><path d="M106 251.724L255.353 0h296.978L706 251.724 552.331 500H255.353L106 251.724z" fill="#02F2C2" filter="url(#a)"/><path d="M106 371.724L255.353 120h296.978L706 371.724 552.331 620H255.353L106 371.724z" fill="#03CEA4" filter="url(#b)"/><path d="M4 292.724L153.353 41h296.978L604 292.724 450.331 541H153.353L4 292.724z" fill="#02A181" filter="url(#c)"/><path d="M204.746 137.586V188h-7.207v-21.586h-28.863V188h-7.207v-50.414h7.207v21.621h28.863v-21.621h7.207zm23.147 12.973V188h-6.926v-37.441h6.926zm-7.277-14.414h7.629v7.207h-7.629v-7.207zm25.326 33.152l-2.883-31.711h9.774l-2.883 31.711h-4.008zm-3.269 8.191h10.511V188h-10.511v-10.512z" fill="#C9FFF4"/><path d="M282.305 188c0-.344-.125-.539-.375-.586a1.17 1.17 0 0 0-.235-.023h-1.242v-12.844h1.852v-.609h-5.743v.609h1.876v12.844h-1.876V188h5.743zm4.523-13.688c0-.843-.312-1.343-.937-1.5a1.468 1.468 0 0 0-.352-.046c-.5 0-.844.234-1.031.703a1.242 1.242 0 0 0-.094.469c0 .5.25.843.75 1.031.078.015.141.031.188.047.343.093.523.226.539.398-.016.422-.36.984-1.032 1.688l.493.351c.953-1.031 1.445-2.078 1.476-3.141zm6.211 13.102h-1.055v-5.062c.047-1.375.524-2.399 1.43-3.071.422-.312.844-.469 1.266-.469.781 0 1.32.43 1.617 1.29.125.375.187.796.187 1.265v4.641c0 .719-.172 1.148-.515 1.289-.219.078-.594.117-1.125.117V188h5.039c0-.344-.117-.531-.352-.562a.956.956 0 0 0-.234-.024h-1.055v-6c.25-1.141.805-1.937 1.664-2.391.328-.156.641-.234.938-.234.797 0 1.359.414 1.687 1.242.157.391.235.836.235 1.336v4.641c0 .719-.172 1.148-.516 1.289-.219.078-.594.117-1.125.117V188h5.18c0-.344-.117-.531-.352-.562a.962.962 0 0 0-.234-.024h-1.196v-5.812c0-1.61-.523-2.735-1.57-3.375a2.9 2.9 0 0 0-1.523-.422c-1.188 0-2.141.554-2.86 1.664a4.876 4.876 0 0 0-.468.89c-.282-1.234-.899-2.031-1.852-2.39a2.358 2.358 0 0 0-.867-.164c-1.125 0-2.055.476-2.789 1.429a4.306 4.306 0 0 0-.633 1.149l-.094-2.344h-3.398v.586h1.758v7.383c0 .719-.204 1.148-.61 1.289-.234.078-.617.117-1.148.117V188h5.156c0-.328-.117-.516-.352-.562a1.162 1.162 0 0 0-.234-.024zm31.266-.492c0 .656.093 1.031.281 1.125.109.047.258.07.445.07v-4.429h-.562c-.797 2.578-2.391 3.874-4.781 3.89-2.032 0-3.415-1.023-4.149-3.07-.359-1-.539-2.18-.539-3.539 0-2.922.805-4.907 2.414-5.953a4.343 4.343 0 0 1 2.344-.657c1.953 0 3.367.922 4.242 2.766.156.328.289.664.398 1.008h.563l-.07-4.313c-.344 0-.555.11-.633.328-.047.188-.07.493-.07.914-.454-.453-1.227-.82-2.321-1.101a9.434 9.434 0 0 0-2.203-.258c-2.469 0-4.359.914-5.672 2.742-.906 1.297-1.359 2.789-1.359 4.477 0 2.047.633 3.766 1.898 5.156 1.344 1.438 3.094 2.156 5.25 2.156 1.578-.015 3.086-.453 4.524-1.312zm10.945 1.312c1.203 0 1.867-.726 1.992-2.179.016-.094.024-.18.024-.258l-.61-.024c-.109 1.141-.414 1.719-.914 1.735-.406-.031-.617-.438-.633-1.219v-4.945c0-2.235-1.117-3.414-3.351-3.539h-.422c-1.75 0-2.922.406-3.516 1.218-.187.266-.281.532-.281.797 0 .485.227.766.68.844.078.016.156.024.234.024.359 0 .625-.227.797-.68.219-.578.367-.922.445-1.031.297-.391.758-.586 1.383-.586 1.469.093 2.227.898 2.274 2.414v1.476c-3.672 0-5.774.766-6.305 2.297a3.167 3.167 0 0 0-.141.961c0 1.188.524 2 1.571 2.438.421.171.867.257 1.335.257 1.141 0 2.102-.39 2.883-1.172.282-.296.493-.609.633-.937.188 1.391.828 2.094 1.922 2.109zm-4.664-.937c-.953 0-1.539-.477-1.758-1.43a3.467 3.467 0 0 1-.07-.726c0-1.047.601-1.711 1.804-1.993.641-.14 1.571-.218 2.79-.234v1.875c-.235 1.078-.805 1.836-1.711 2.273-.36.157-.711.235-1.055.235zm7.266-8.672h1.64v6.609c.11 1.954 1.008 2.961 2.696 3.024 1.437 0 2.335-.883 2.695-2.649v-.047l-.633-.117c-.391 1.297-.961 2-1.711 2.11-.844-.032-1.273-.633-1.289-1.805v-7.125h3.633v-.586h-3.633v-2.719l-1.758.492v2.227h-1.64v.586zm12.656 8.789h-1.172v-9.375h-3.633v.586h1.875v7.383c0 .719-.242 1.156-.726 1.312-.235.063-.618.094-1.149.094V188h5.391c0-.344-.117-.531-.352-.562a1.162 1.162 0 0 0-.234-.024zm-.891-12.797c0-.547-.242-.937-.726-1.172a1.407 1.407 0 0 0-.539-.117c-.547 0-.938.25-1.172.75a1.293 1.293 0 0 0-.118.539c0 .578.258.977.774 1.195.172.063.344.094.516.094.546 0 .929-.25 1.148-.75.078-.172.117-.351.117-.539zm8.016 3.774c1.094 0 1.82.461 2.179 1.382.126.297.188.618.188.961 0 .782-.375 1.258-1.125 1.43-.391.078-.945.109-1.664.094l-2.484-.07c.078-1.797.664-2.969 1.757-3.516.36-.188.743-.281 1.149-.281zm4.078 7.359l-.586-.211c-.547 1.188-1.43 1.859-2.648 2.016a4.695 4.695 0 0 1-.446.023c-1.64 0-2.672-.976-3.093-2.93a8.947 8.947 0 0 1-.211-1.804l2.812.047c1.906.031 3.133-.149 3.68-.539.422-.313.633-.758.633-1.336 0-1.063-.54-1.907-1.618-2.532-.765-.453-1.648-.679-2.648-.679-1.953 0-3.352.812-4.195 2.437-.438.844-.657 1.797-.657 2.86 0 1.937.696 3.375 2.086 4.312.828.547 1.774.82 2.836.82 1.688 0 2.93-.609 3.727-1.828.125-.218.234-.437.328-.656zm12.914-11.203c1.391 0 2.289.625 2.695 1.875.125.406.188.844.188 1.312 0 2.032-.906 3.149-2.719 3.352a6.6 6.6 0 0 1-.562.023h-2.157v-6.562h2.555zM374.414 188c0-.344-.125-.539-.375-.586a1.16 1.16 0 0 0-.234-.023h-1.735v-5.602h2.063c2.562 0 4.258-.727 5.086-2.18.328-.547.492-1.179.492-1.898 0-1.547-.672-2.633-2.016-3.258-.718-.344-1.578-.515-2.578-.515h-6.937v.609h1.875v12.844h-1.875V188h6.234zm8.93-4.992c0-2.422.664-3.899 1.992-4.43a3.13 3.13 0 0 1 1.078-.187c1.734 0 2.742 1.093 3.024 3.281.046.375.07.789.07 1.242 0 2.625-.719 4.164-2.156 4.617a3.24 3.24 0 0 1-.868.117c-1.578 0-2.57-.937-2.976-2.812a9.303 9.303 0 0 1-.164-1.828zm3.14-5.203c-1.5 0-2.75.515-3.75 1.547-.922.953-1.382 2.14-1.382 3.562 0 1.969.718 3.445 2.156 4.43.875.594 1.844.89 2.906.89 1.5 0 2.742-.531 3.727-1.593.906-.969 1.359-2.18 1.359-3.633 0-1.969-.727-3.43-2.18-4.383a5.173 5.173 0 0 0-2.836-.82zm9 3.703c.032-2.063.813-3.102 2.344-3.117 1.531.031 2.305 1.07 2.32 3.117-.031 2.125-.804 3.195-2.32 3.211-1.547-.031-2.328-1.102-2.344-3.211zm2.368-3.703c-1.407 0-2.524.453-3.352 1.359a3.46 3.46 0 0 0-.891 2.367c0 1.188.579 2.172 1.735 2.953.109.078.218.149.328.211-1 0-1.625.43-1.875 1.289-.047.204-.07.407-.07.61.015.828.351 1.445 1.007 1.851-.515.547-.773 1.102-.773 1.664 0 .86.508 1.5 1.523 1.922.641.281 1.43.422 2.368.422 2.375 0 3.945-.578 4.71-1.734.25-.391.376-.805.376-1.242 0-1.344-.774-2.118-2.321-2.321a4.189 4.189 0 0 0-.633-.047l-4.265-.093c-.719-.047-1.086-.36-1.102-.938 0-.406.258-.664.774-.773a2.42 2.42 0 0 1 .351-.024l2.063.024c1.39 0 2.5-.469 3.328-1.407.594-.671.89-1.468.89-2.39-.015-1.172-.468-2.11-1.359-2.813.141-.5.406-.797.797-.89a.75.75 0 0 1 .187-.024c.219 0 .454.117.704.352.171.156.328.234.468.234.391-.094.618-.344.68-.75 0-.484-.227-.812-.68-.984a1.485 1.485 0 0 0-.515-.094c-.735 0-1.328.328-1.782.984-.171.25-.304.524-.398.821a4.915 4.915 0 0 0-2.273-.539zm0 14.039c-1.547 0-2.524-.406-2.93-1.219a1.447 1.447 0 0 1-.164-.656c.015-.422.203-.844.562-1.266.313.063.571.094.774.094l3.609.047c1.172.015 1.852.281 2.039.797.047.125.07.281.07.468 0 .688-.64 1.188-1.921 1.5a8.359 8.359 0 0 1-2.039.235zm8.906-10.336c.031-2.063.812-3.102 2.344-3.117 1.531.031 2.304 1.07 2.32 3.117-.031 2.125-.805 3.195-2.32 3.211-1.547-.031-2.329-1.102-2.344-3.211zm2.367-3.703c-1.406 0-2.523.453-3.352 1.359a3.464 3.464 0 0 0-.89 2.367c0 1.188.578 2.172 1.734 2.953.11.078.219.149.328.211-1 0-1.625.43-1.875 1.289-.047.204-.07.407-.07.61.016.828.352 1.445 1.008 1.851-.516.547-.774 1.102-.774 1.664 0 .86.508 1.5 1.524 1.922.64.281 1.43.422 2.367.422 2.375 0 3.945-.578 4.711-1.734.25-.391.375-.805.375-1.242 0-1.344-.773-2.118-2.32-2.321a4.189 4.189 0 0 0-.633-.047l-4.266-.093c-.719-.047-1.086-.36-1.101-.938 0-.406.257-.664.773-.773.109-.016.227-.024.352-.024l2.062.024c1.391 0 2.5-.469 3.328-1.407.594-.671.891-1.468.891-2.39-.016-1.172-.469-2.11-1.359-2.813.14-.5.406-.797.796-.89a.757.757 0 0 1 .188-.024c.219 0 .453.117.703.352.172.156.328.234.469.234.39-.094.617-.344.679-.75 0-.484-.226-.812-.679-.984a1.49 1.49 0 0 0-.516-.094c-.734 0-1.328.328-1.781.984a3.08 3.08 0 0 0-.399.821 4.912 4.912 0 0 0-2.273-.539zm0 14.039c-1.547 0-2.523-.406-2.93-1.219a1.46 1.46 0 0 1-.164-.656c.016-.422.203-.844.563-1.266.312.063.57.094.773.094l3.61.047c1.171.015 1.851.281 2.039.797.046.125.07.281.07.468 0 .688-.641 1.188-1.922 1.5a8.359 8.359 0 0 1-2.039.235zm11.367-4.43h-1.172v-9.375h-3.632v.586h1.874v7.383c0 .719-.242 1.156-.726 1.312-.234.063-.617.094-1.148.094V188h5.39c0-.344-.117-.531-.351-.562a1.179 1.179 0 0 0-.235-.024zm-.89-12.797c0-.547-.243-.937-.727-1.172a1.4 1.4 0 0 0-.539-.117c-.547 0-.938.25-1.172.75a1.292 1.292 0 0 0-.117.539c0 .578.258.977.773 1.195.172.063.344.094.516.094.547 0 .93-.25 1.148-.75a1.29 1.29 0 0 0 .118-.539zm5.109 8.391c0-2.422.664-3.899 1.992-4.43a3.13 3.13 0 0 1 1.078-.187c1.735 0 2.742 1.093 3.024 3.281.047.375.07.789.07 1.242 0 2.625-.719 4.164-2.156 4.617a3.232 3.232 0 0 1-.867.117c-1.579 0-2.571-.937-2.977-2.812a9.38 9.38 0 0 1-.164-1.828zm3.141-5.203c-1.5 0-2.75.515-3.75 1.547-.922.953-1.383 2.14-1.383 3.562 0 1.969.719 3.445 2.156 4.43.875.594 1.844.89 2.906.89 1.5 0 2.742-.531 3.727-1.593.906-.969 1.359-2.18 1.359-3.633 0-1.969-.726-3.43-2.179-4.383a5.178 5.178 0 0 0-2.836-.82zm11.507 9.609h-1.265v-14.648h-3.516v.586h1.758v12.656c0 .719-.203 1.148-.609 1.289-.235.078-.618.117-1.149.117V188h5.367c0-.344-.117-.531-.351-.562a.97.97 0 0 0-.235-.024zm6.727 0h-1.172v-9.375h-3.633v.586h1.875v7.383c0 .719-.242 1.156-.726 1.312-.235.063-.618.094-1.149.094V188h5.391c0-.344-.117-.531-.352-.562a1.162 1.162 0 0 0-.234-.024zm-.891-12.797c0-.547-.242-.937-.726-1.172a1.403 1.403 0 0 0-.539-.117c-.547 0-.938.25-1.172.75a1.292 1.292 0 0 0-.117.539c0 .578.257.977.773 1.195.172.063.344.094.516.094.547 0 .929-.25 1.148-.75.078-.172.117-.351.117-.539zm5.766 12.516c0-.844-.313-1.344-.938-1.5a1.464 1.464 0 0 0-.351-.047c-.5 0-.844.234-1.031.703a1.246 1.246 0 0 0-.094.469c0 .5.25.844.75 1.031.078.016.141.031.187.047.344.094.524.226.539.398-.015.422-.359.985-1.031 1.688l.492.351c.954-1.031 1.446-2.078 1.477-3.14zm14.672 1.101c1.203 0 1.867-.726 1.992-2.179a1.54 1.54 0 0 0 .023-.258l-.609-.024c-.109 1.141-.414 1.719-.914 1.735-.406-.031-.617-.438-.633-1.219v-4.945c0-2.235-1.117-3.414-3.351-3.539h-.422c-1.75 0-2.922.406-3.516 1.218-.187.266-.281.532-.281.797 0 .485.226.766.68.844.078.016.156.024.234.024.359 0 .625-.227.797-.68.219-.578.367-.922.445-1.031.297-.391.758-.586 1.383-.586 1.469.093 2.227.898 2.273 2.414v1.476c-3.672 0-5.773.766-6.304 2.297a3.167 3.167 0 0 0-.141.961c0 1.188.523 2 1.57 2.438.422.171.868.257 1.336.257 1.141 0 2.102-.39 2.883-1.172.281-.296.492-.609.633-.937.187 1.391.828 2.094 1.922 2.109zm-4.664-.937c-.953 0-1.539-.477-1.758-1.43a3.467 3.467 0 0 1-.07-.726c0-1.047.601-1.711 1.804-1.993.641-.14 1.571-.218 2.789-.234v1.875c-.234 1.078-.804 1.836-1.711 2.273a2.62 2.62 0 0 1-1.054.235zM125.66 235.414h-1.687v-4.664c0-1.422.437-2.562 1.312-3.422.344-.328.633-.5.867-.516.266 0 .508.196.727.586.25.438.484.688.703.75a.867.867 0 0 0 .281.047c.469 0 .766-.226.891-.679a.897.897 0 0 0 .047-.282c0-.703-.36-1.132-1.078-1.289a2.303 2.303 0 0 0-.446-.047c-.937 0-1.773.399-2.507 1.196a4.52 4.52 0 0 0-.821 1.265l-.094-2.32h-3.398v.586h1.758v7.383c0 .719-.203 1.148-.61 1.289-.234.078-.617.117-1.148.117V236h5.789c0-.344-.117-.531-.351-.562a.97.97 0 0 0-.235-.024zm9.094-9.023c1.094 0 1.82.461 2.18 1.382.125.297.187.618.187.961 0 .782-.375 1.258-1.125 1.43-.391.078-.945.109-1.664.094l-2.484-.07c.078-1.797.664-2.969 1.757-3.516.36-.188.743-.281 1.149-.281zm4.078 7.359l-.586-.211c-.547 1.188-1.43 1.859-2.648 2.016a4.695 4.695 0 0 1-.446.023c-1.64 0-2.672-.976-3.093-2.93a9.02 9.02 0 0 1-.211-1.804l2.812.047c1.906.031 3.133-.149 3.68-.539.422-.313.633-.758.633-1.336 0-1.063-.539-1.907-1.618-2.532-.765-.453-1.648-.679-2.648-.679-1.953 0-3.352.812-4.195 2.437-.438.844-.657 1.797-.657 2.86 0 1.937.696 3.375 2.086 4.312.829.547 1.774.82 2.836.82 1.688 0 2.93-.609 3.727-1.828.125-.218.234-.437.328-.656zm5.414 1.852c1.078 0 1.805-.329 2.18-.985a1.48 1.48 0 0 0 .211-.773c0-.656-.477-1.219-1.43-1.688a14.84 14.84 0 0 0-1.008-.468c-1.281-.532-2.133-1.032-2.554-1.5a2.647 2.647 0 0 1-.68-1.805c0-1.078.594-1.836 1.781-2.274a5.081 5.081 0 0 1 1.781-.304c1.032 0 1.922.218 2.672.656 0-.453.11-.711.328-.773.094-.016.196-.024.305-.024v2.93h-.609c-.032-1.438-.828-2.164-2.391-2.18-1.172 0-1.898.344-2.18 1.031a1.513 1.513 0 0 0-.117.586c0 .672.485 1.242 1.453 1.711.219.11.563.258 1.032.446 1.265.515 2.109 1.007 2.531 1.476.453.5.679 1.094.679 1.781 0 1.266-.671 2.11-2.015 2.532a5.334 5.334 0 0 1-1.688.257c-1.125-.015-2.101-.296-2.929-.843 0 .406-.102.64-.305.703a2.097 2.097 0 0 1-.328.023v-3.562h.656c.031 2.015.906 3.031 2.625 3.047zm10.758-9.211c1.094 0 1.82.461 2.18 1.382.125.297.187.618.187.961 0 .782-.375 1.258-1.125 1.43-.391.078-.945.109-1.664.094l-2.484-.07c.078-1.797.664-2.969 1.757-3.516.36-.188.743-.281 1.149-.281zm4.078 7.359l-.586-.211c-.547 1.188-1.43 1.859-2.648 2.016a4.695 4.695 0 0 1-.446.023c-1.64 0-2.672-.976-3.093-2.93a9.02 9.02 0 0 1-.211-1.804l2.812.047c1.906.031 3.133-.149 3.68-.539.422-.313.633-.758.633-1.336 0-1.063-.539-1.907-1.618-2.532-.765-.453-1.648-.679-2.648-.679-1.953 0-3.352.812-4.195 2.437-.438.844-.657 1.797-.657 2.86 0 1.937.696 3.375 2.086 4.312.829.547 1.774.82 2.836.82 1.688 0 2.93-.609 3.727-1.828.125-.218.234-.437.328-.656zm10.125 2.484c1.203 0 1.867-.726 1.992-2.179.016-.094.024-.18.024-.258l-.61-.024c-.109 1.141-.414 1.719-.914 1.735-.406-.031-.617-.438-.633-1.219v-4.945c0-2.235-1.117-3.414-3.351-3.539h-.422c-1.75 0-2.922.406-3.516 1.218-.187.266-.281.532-.281.797 0 .485.227.766.68.844.078.016.156.024.234.024.36 0 .625-.227.797-.68.219-.578.367-.922.445-1.031.297-.391.758-.586 1.383-.586 1.469.093 2.227.898 2.274 2.414v1.476c-3.672 0-5.774.766-6.305 2.297a3.167 3.167 0 0 0-.141.961c0 1.188.524 2 1.571 2.438.421.171.867.257 1.336.257 1.14 0 2.101-.39 2.882-1.172.282-.296.493-.609.633-.937.188 1.391.828 2.094 1.922 2.109zm-4.664-.937c-.953 0-1.539-.477-1.758-1.43a3.467 3.467 0 0 1-.07-.726c0-1.047.601-1.711 1.805-1.993.64-.14 1.57-.218 2.789-.234v1.875c-.235 1.078-.805 1.836-1.711 2.273-.36.157-.711.235-1.055.235zm12.75.117h-1.688v-4.664c0-1.422.438-2.562 1.313-3.422.344-.328.633-.5.867-.516.266 0 .508.196.727.586.25.438.484.688.703.75a.863.863 0 0 0 .281.047c.469 0 .766-.226.891-.679a.897.897 0 0 0 .047-.282c0-.703-.36-1.132-1.079-1.289a2.285 2.285 0 0 0-.445-.047c-.937 0-1.773.399-2.508 1.196a4.539 4.539 0 0 0-.82 1.265l-.094-2.32h-3.398v.586h1.758v7.383c0 .719-.203 1.148-.61 1.289-.234.078-.617.117-1.148.117V236h5.789c0-.344-.117-.531-.352-.562a.956.956 0 0 0-.234-.024zm4.195-4.289c0 1.891.696 3.305 2.086 4.242.86.578 1.836.867 2.93.867 1.625 0 2.851-.57 3.68-1.711a4.08 4.08 0 0 0 .445-.796l-.609-.211c-.579 1.234-1.532 1.914-2.86 2.039-.125.015-.25.023-.375.023-1.109 0-1.976-.555-2.601-1.664-.469-.844-.704-1.844-.704-3 0-2.047.54-3.414 1.618-4.102a2.79 2.79 0 0 1 1.5-.421c.843 0 1.351.328 1.523.984.031.125.07.32.117.586.094.625.266 1.016.516 1.172.156.078.328.125.516.14.531.032.867-.187 1.007-.656.032-.109.047-.211.047-.305 0-.796-.508-1.453-1.523-1.968a5.16 5.16 0 0 0-2.344-.539c-2.094 0-3.555.851-4.383 2.554-.39.813-.586 1.735-.586 2.766zm14.696 4.289h-1.172v-5.062c0-1.422.492-2.454 1.476-3.094.407-.266.828-.399 1.266-.399.953 0 1.617.446 1.992 1.336.172.422.258.891.258 1.407v4.406c0 .719-.172 1.148-.516 1.289-.218.078-.593.117-1.125.117V236h5.157c0-.344-.118-.531-.352-.562a.968.968 0 0 0-.234-.024h-1.172v-5.812c0-1.704-.563-2.86-1.688-3.469a3.096 3.096 0 0 0-1.406-.328c-1.156 0-2.125.422-2.906 1.265-.328.36-.578.766-.75 1.219v-7.523h-3.516v.586h1.758v12.656c0 .719-.203 1.148-.609 1.289-.235.078-.618.117-1.149.117V236h5.274c0-.344-.118-.531-.352-.562a.968.968 0 0 0-.234-.024zm19.687.82c1.375 0 2.531-.515 3.469-1.546.875-1 1.312-2.266 1.312-3.797 0-1.719-.468-3.063-1.406-4.032-.703-.703-1.57-1.054-2.601-1.054-1.704 0-2.915.765-3.633 2.297-.078.14-.141.281-.188.421v-7.757h-3.515v.586h1.757v12.656c0 .719-.203 1.148-.609 1.289-.234.078-.617.117-1.148.117V236h2.953l.211-1.547c.672 1.078 1.687 1.664 3.047 1.758.125.016.242.023.351.023zm.047-9.492c1.281 0 2.117.781 2.508 2.344.156.578.234 1.234.234 1.969 0 2.203-.594 3.633-1.781 4.289a2.566 2.566 0 0 1-1.242.304c-1.172 0-2-.625-2.485-1.875-.234-.656-.351-1.414-.351-2.273 0-1.891.469-3.258 1.406-4.102.5-.437 1.07-.656 1.711-.656zm14.836 9.492c1.203 0 1.867-.726 1.992-2.179.016-.094.024-.18.024-.258l-.61-.024c-.109 1.141-.414 1.719-.914 1.735-.406-.031-.617-.438-.633-1.219v-4.945c0-2.235-1.117-3.414-3.351-3.539h-.422c-1.75 0-2.922.406-3.516 1.218-.187.266-.281.532-.281.797 0 .485.227.766.68.844.078.016.156.024.234.024.359 0 .625-.227.797-.68.219-.578.367-.922.445-1.031.297-.391.758-.586 1.383-.586 1.469.093 2.227.898 2.273 2.414v1.476c-3.671 0-5.773.766-6.304 2.297a3.167 3.167 0 0 0-.141.961c0 1.188.524 2 1.57 2.438.422.171.868.257 1.336.257 1.141 0 2.102-.39 2.883-1.172.281-.296.492-.609.633-.937.188 1.391.828 2.094 1.922 2.109zm-4.664-.937c-.953 0-1.539-.477-1.758-1.43a3.467 3.467 0 0 1-.07-.726c0-1.047.601-1.711 1.804-1.993.641-.14 1.571-.218 2.789-.234v1.875c-.234 1.078-.804 1.836-1.71 2.273-.36.157-.711.235-1.055.235zm11.25.305c1.078 0 1.805-.329 2.18-.985.14-.234.21-.492.21-.773 0-.656-.476-1.219-1.429-1.688a14.84 14.84 0 0 0-1.008-.468c-1.281-.532-2.133-1.032-2.555-1.5a2.651 2.651 0 0 1-.679-1.805c0-1.078.593-1.836 1.781-2.274a5.077 5.077 0 0 1 1.781-.304c1.031 0 1.922.218 2.672.656 0-.453.109-.711.328-.773.094-.016.195-.024.305-.024v2.93h-.61c-.031-1.438-.828-2.164-2.39-2.18-1.172 0-1.899.344-2.18 1.031a1.513 1.513 0 0 0-.117.586c0 .672.484 1.242 1.453 1.711.219.11.563.258 1.031.446 1.266.515 2.11 1.007 2.532 1.476.453.5.679 1.094.679 1.781 0 1.266-.672 2.11-2.015 2.532a5.339 5.339 0 0 1-1.688.257c-1.125-.015-2.101-.296-2.93-.843 0 .406-.101.64-.304.703a2.097 2.097 0 0 1-.328.023v-3.562h.656c.031 2.015.906 3.031 2.625 3.047zm10.758-9.211c1.093 0 1.82.461 2.179 1.382.125.297.188.618.188.961 0 .782-.375 1.258-1.125 1.43-.391.078-.945.109-1.664.094l-2.485-.07c.079-1.797.664-2.969 1.758-3.516.36-.188.742-.281 1.149-.281zm4.078 7.359l-.586-.211c-.547 1.188-1.43 1.859-2.649 2.016a4.658 4.658 0 0 1-.445.023c-1.641 0-2.672-.976-3.094-2.93a9.093 9.093 0 0 1-.211-1.804l2.813.047c1.906.031 3.133-.149 3.68-.539.421-.313.632-.758.632-1.336 0-1.063-.539-1.907-1.617-2.532-.765-.453-1.648-.679-2.648-.679-1.953 0-3.352.812-4.196 2.437-.437.844-.656 1.797-.656 2.86 0 1.937.696 3.375 2.086 4.312.828.547 1.774.82 2.836.82 1.688 0 2.93-.609 3.727-1.828.125-.218.234-.437.328-.656zm9.89 2.25h3.352c0-.344-.117-.531-.352-.562a.956.956 0 0 0-.234-.024h-1.172l-.047-14.648h-3.984v.586h2.226v5.718c-.765-.843-1.796-1.265-3.093-1.265-1.719 0-3.016.765-3.891 2.297-.531.937-.797 1.992-.797 3.164 0 1.937.61 3.351 1.828 4.242a3.866 3.866 0 0 0 2.274.726c1.703-.031 2.937-.937 3.703-2.718l.187 2.484zm-6-5.016c0-2.203.594-3.632 1.782-4.289a2.566 2.566 0 0 1 1.242-.304c1.14 0 1.953.609 2.437 1.828.266.656.399 1.429.399 2.32 0 1.875-.469 3.234-1.406 4.078-.5.453-1.071.68-1.711.68-1.282 0-2.118-.781-2.508-2.344-.156-.578-.235-1.234-.235-1.969zM279.48 236h3.352c0-.344-.117-.531-.352-.562a.956.956 0 0 0-.234-.024h-1.172l-.047-14.648h-3.984v.586h2.227v5.718c-.766-.843-1.797-1.265-3.094-1.265-1.719 0-3.016.765-3.891 2.297-.531.937-.797 1.992-.797 3.164 0 1.937.61 3.351 1.828 4.242a3.866 3.866 0 0 0 2.274.726c1.703-.031 2.937-.937 3.703-2.718l.187 2.484zm-6-5.016c0-2.203.594-3.632 1.782-4.289a2.566 2.566 0 0 1 1.242-.304c1.141 0 1.953.609 2.437 1.828.266.656.399 1.429.399 2.32 0 1.875-.469 3.234-1.406 4.078-.5.453-1.071.68-1.711.68-1.282 0-2.118-.781-2.508-2.344-.156-.578-.235-1.234-.235-1.969zm15.75-4.593c1.094 0 1.821.461 2.18 1.382.125.297.188.618.188.961 0 .782-.375 1.258-1.125 1.43-.391.078-.946.109-1.664.094l-2.485-.07c.078-1.797.664-2.969 1.758-3.516a2.44 2.44 0 0 1 1.148-.281zm4.079 7.359l-.586-.211c-.547 1.188-1.43 1.859-2.649 2.016a4.658 4.658 0 0 1-.445.023c-1.641 0-2.672-.976-3.094-2.93a9.093 9.093 0 0 1-.211-1.804l2.813.047c1.906.031 3.133-.149 3.679-.539.422-.313.633-.758.633-1.336 0-1.063-.539-1.907-1.617-2.532-.766-.453-1.648-.679-2.648-.679-1.954 0-3.352.812-4.196 2.437-.437.844-.656 1.797-.656 2.86 0 1.937.695 3.375 2.086 4.312.828.547 1.773.82 2.836.82 1.687 0 2.93-.609 3.726-1.828a6.38 6.38 0 0 0 .329-.656zm5.578-7.125v-.586h-4.547v.586h1.055l2.859 7.852c.312.875.656 1.382 1.031 1.523.188.078.422.117.703.117h.305l3.305-8.672c.187-.484.414-.75.679-.797.078-.015.149-.023.211-.023.344 0 .532-.117.563-.352.015-.078.023-.156.023-.234h-3.609v.586h1.758l-2.977 7.992-3-7.992h1.641zm12.093-.234c1.094 0 1.821.461 2.18 1.382.125.297.188.618.188.961 0 .782-.375 1.258-1.125 1.43-.391.078-.946.109-1.664.094l-2.485-.07c.078-1.797.664-2.969 1.758-3.516a2.44 2.44 0 0 1 1.148-.281zm4.079 7.359l-.586-.211c-.547 1.188-1.43 1.859-2.649 2.016a4.658 4.658 0 0 1-.445.023c-1.641 0-2.672-.976-3.094-2.93a9.093 9.093 0 0 1-.211-1.804l2.813.047c1.906.031 3.133-.149 3.679-.539.422-.313.633-.758.633-1.336 0-1.063-.539-1.907-1.617-2.532-.766-.453-1.648-.679-2.648-.679-1.954 0-3.352.812-4.196 2.437-.437.844-.656 1.797-.656 2.86 0 1.937.695 3.375 2.086 4.312.828.547 1.773.82 2.836.82 1.687 0 2.93-.609 3.726-1.828a6.38 6.38 0 0 0 .329-.656zm6.515 1.664h-1.265v-14.648h-3.516v.586h1.758v12.656c0 .719-.203 1.148-.61 1.289-.234.078-.617.117-1.148.117V236h5.367c0-.344-.117-.531-.351-.562a.97.97 0 0 0-.235-.024zm4.149-4.406c0-2.422.664-3.899 1.992-4.43a3.13 3.13 0 0 1 1.078-.187c1.734 0 2.742 1.093 3.023 3.281.047.375.071.789.071 1.242 0 2.625-.719 4.164-2.157 4.617-.281.078-.57.117-.867.117-1.578 0-2.57-.937-2.976-2.812a9.303 9.303 0 0 1-.164-1.828zm3.14-5.203c-1.5 0-2.75.515-3.75 1.547-.922.953-1.383 2.14-1.383 3.562 0 1.969.719 3.445 2.157 4.43.875.594 1.843.89 2.906.89 1.5 0 2.742-.531 3.727-1.593.906-.969 1.359-2.18 1.359-3.633 0-1.969-.727-3.43-2.18-4.383a5.173 5.173 0 0 0-2.836-.82zm10.078 14.062v-4.851a4.817 4.817 0 0 0 2.977 1.218c1.391 0 2.555-.523 3.492-1.57.906-1.016 1.36-2.305 1.36-3.867 0-1.781-.493-3.133-1.477-4.055-.688-.625-1.523-.937-2.508-.937-1.515 0-2.648.601-3.398 1.804a5.664 5.664 0 0 0-.469.985l-.117-2.555h-3.375v.586h1.758v11.836c0 .719-.204 1.148-.61 1.289-.234.078-.617.117-1.148.117v.586h5.742c0-.344-.117-.531-.352-.562a.956.956 0 0 0-.234-.024h-1.641zm3.094-13.125c1.36 0 2.219.852 2.578 2.555a8.34 8.34 0 0 1 .164 1.734c0 2.297-.617 3.75-1.851 4.36-.36.171-.75.257-1.172.257-1.203 0-2.031-.632-2.484-1.898-.235-.641-.352-1.398-.352-2.273 0-2.032.523-3.438 1.57-4.219a2.558 2.558 0 0 1 1.547-.516zm11.508-.351c1.094 0 1.82.461 2.18 1.382.125.297.187.618.187.961 0 .782-.375 1.258-1.125 1.43-.39.078-.945.109-1.664.094l-2.484-.07c.078-1.797.664-2.969 1.758-3.516a2.44 2.44 0 0 1 1.148-.281zm4.078 7.359l-.586-.211c-.547 1.188-1.43 1.859-2.648 2.016a4.695 4.695 0 0 1-.446.023c-1.64 0-2.671-.976-3.093-2.93a9.02 9.02 0 0 1-.211-1.804l2.812.047c1.906.031 3.133-.149 3.68-.539.422-.313.633-.758.633-1.336 0-1.063-.539-1.907-1.617-2.532-.766-.453-1.649-.679-2.649-.679-1.953 0-3.351.812-4.195 2.437-.438.844-.656 1.797-.656 2.86 0 1.937.695 3.375 2.085 4.312.829.547 1.774.82 2.836.82 1.688 0 2.93-.609 3.727-1.828.125-.218.234-.437.328-.656zm6.914 1.664h-1.687v-4.664c0-1.422.437-2.562 1.312-3.422.344-.328.633-.5.867-.516.266 0 .508.196.727.586.25.438.484.688.703.75a.867.867 0 0 0 .281.047c.469 0 .766-.226.891-.679a.897.897 0 0 0 .047-.282c0-.703-.36-1.132-1.078-1.289a2.303 2.303 0 0 0-.446-.047c-.937 0-1.773.399-2.507 1.196a4.52 4.52 0 0 0-.821 1.265l-.094-2.32h-3.398v.586h1.758v7.383c0 .719-.203 1.148-.61 1.289-.234.078-.617.117-1.148.117V236h5.789c0-.344-.117-.531-.351-.562a.97.97 0 0 0-.235-.024zm12.61-8.789v-.586h-4.641v.586h1.055l2.929 7.852c.328.89.664 1.406 1.008 1.546.172.063.383.094.633.094h.469l2.039-6.14 1.57 4.5c.297.875.602 1.39.914 1.546.156.063.367.094.633.094h.375l2.836-8.648c.156-.485.344-.758.562-.821.078-.015.164-.023.258-.023.344 0 .539-.109.586-.328.016-.078.024-.164.024-.258h-3.469v.586h1.64l-2.601 8.086-2.742-8.086h1.64v-.586h-3.609l1.055 2.977-1.946 5.765-2.976-8.156h1.758zm16.687 8.789h-1.172v-5.062c0-1.422.492-2.454 1.477-3.094a2.277 2.277 0 0 1 1.265-.399c.953 0 1.618.446 1.993 1.336.171.422.257.891.257 1.407v4.406c0 .719-.172 1.148-.515 1.289-.219.078-.594.117-1.125.117V236h5.156c0-.344-.117-.531-.352-.562a.956.956 0 0 0-.234-.024h-1.172v-5.812c0-1.704-.562-2.86-1.687-3.469a3.103 3.103 0 0 0-1.407-.328c-1.156 0-2.125.422-2.906 1.265-.328.36-.578.766-.75 1.219v-7.523h-3.515v.586h1.757v12.656c0 .719-.203 1.148-.609 1.289-.234.078-.617.117-1.148.117V236h5.273c0-.344-.117-.531-.352-.562a.956.956 0 0 0-.234-.024zm10.875-4.406c0-2.422.664-3.899 1.992-4.43a3.13 3.13 0 0 1 1.078-.187c1.735 0 2.743 1.093 3.024 3.281.047.375.07.789.07 1.242 0 2.625-.719 4.164-2.156 4.617-.281.078-.57.117-.867.117-1.578 0-2.571-.937-2.977-2.812a9.38 9.38 0 0 1-.164-1.828zm3.141-5.203c-1.5 0-2.75.515-3.75 1.547-.922.953-1.383 2.14-1.383 3.562 0 1.969.719 3.445 2.156 4.43.875.594 1.844.89 2.906.89 1.5 0 2.743-.531 3.727-1.593.906-.969 1.359-2.18 1.359-3.633 0-1.969-.726-3.43-2.179-4.383a5.178 5.178 0 0 0-2.836-.82zm15.961 9.609h-1.172v-5.062c0-1.422.492-2.454 1.476-3.094.407-.266.828-.399 1.266-.399.953 0 1.617.446 1.992 1.336.172.422.258.891.258 1.407v4.406c0 .719-.172 1.148-.516 1.289-.218.078-.593.117-1.125.117V236h5.157c0-.344-.118-.531-.352-.562a.968.968 0 0 0-.234-.024h-1.172v-5.812c0-1.704-.563-2.86-1.688-3.469a3.096 3.096 0 0 0-1.406-.328c-1.156 0-2.125.422-2.906 1.265-.328.36-.578.766-.75 1.219v-7.523h-3.516v.586h1.758v12.656c0 .719-.203 1.148-.609 1.289-.235.078-.618.117-1.149.117V236h5.274c0-.344-.118-.531-.352-.562a.968.968 0 0 0-.234-.024zm17.109.82c1.203 0 1.867-.726 1.992-2.179.016-.094.024-.18.024-.258l-.61-.024c-.109 1.141-.414 1.719-.914 1.735-.406-.031-.617-.438-.633-1.219v-4.945c0-2.235-1.117-3.414-3.351-3.539h-.422c-1.75 0-2.922.406-3.516 1.218-.187.266-.281.532-.281.797 0 .485.227.766.68.844.078.016.156.024.234.024.359 0 .625-.227.797-.68.219-.578.367-.922.445-1.031.297-.391.758-.586 1.383-.586 1.469.093 2.227.898 2.274 2.414v1.476c-3.672 0-5.774.766-6.305 2.297a3.167 3.167 0 0 0-.141.961c0 1.188.524 2 1.571 2.438.421.171.867.257 1.335.257 1.141 0 2.102-.39 2.883-1.172.282-.296.492-.609.633-.937.188 1.391.828 2.094 1.922 2.109zm-4.664-.937c-.953 0-1.539-.477-1.758-1.43a3.467 3.467 0 0 1-.07-.726c0-1.047.601-1.711 1.804-1.993.641-.14 1.571-.218 2.79-.234v1.875c-.235 1.078-.805 1.836-1.711 2.273-.36.157-.711.235-1.055.235zm11.25.305c1.078 0 1.805-.329 2.18-.985a1.48 1.48 0 0 0 .211-.773c0-.656-.477-1.219-1.43-1.688a14.84 14.84 0 0 0-1.008-.468c-1.281-.532-2.133-1.032-2.555-1.5a2.651 2.651 0 0 1-.679-1.805c0-1.078.593-1.836 1.781-2.274a5.081 5.081 0 0 1 1.781-.304c1.031 0 1.922.218 2.672.656 0-.453.109-.711.328-.773.094-.016.195-.024.305-.024v2.93h-.61c-.031-1.438-.828-2.164-2.39-2.18-1.172 0-1.899.344-2.18 1.031a1.513 1.513 0 0 0-.117.586c0 .672.484 1.242 1.453 1.711.219.11.563.258 1.031.446 1.266.515 2.11 1.007 2.532 1.476.453.5.679 1.094.679 1.781 0 1.266-.672 2.11-2.015 2.532a5.334 5.334 0 0 1-1.688.257c-1.125-.015-2.101-.296-2.93-.843 0 .406-.101.64-.304.703a2.097 2.097 0 0 1-.328.023v-3.562h.656c.031 2.015.906 3.031 2.625 3.047zm18.656.632c1.203 0 1.867-.726 1.992-2.179.016-.094.024-.18.024-.258l-.61-.024c-.109 1.141-.414 1.719-.914 1.735-.406-.031-.617-.438-.632-1.219v-4.945c0-2.235-1.118-3.414-3.352-3.539h-.422c-1.75 0-2.922.406-3.516 1.218-.187.266-.281.532-.281.797 0 .485.227.766.68.844.078.016.156.024.234.024.36 0 .625-.227.797-.68.219-.578.367-.922.445-1.031.297-.391.758-.586 1.383-.586 1.469.093 2.227.898 2.274 2.414v1.476c-3.672 0-5.774.766-6.305 2.297a3.167 3.167 0 0 0-.141.961c0 1.188.524 2 1.571 2.438.422.171.867.257 1.336.257 1.14 0 2.101-.39 2.882-1.172.282-.296.493-.609.633-.937.188 1.391.828 2.094 1.922 2.109zm-4.664-.937c-.953 0-1.539-.477-1.758-1.43a3.467 3.467 0 0 1-.07-.726c0-1.047.602-1.711 1.805-1.993.64-.14 1.57-.218 2.789-.234v1.875c-.235 1.078-.805 1.836-1.711 2.273-.36.157-.711.235-1.055.235zM91.582 284.234c1.375 0 2.531-.515 3.469-1.546.875-1 1.312-2.266 1.312-3.797 0-1.719-.469-3.063-1.406-4.032-.703-.703-1.57-1.054-2.601-1.054-1.704 0-2.915.765-3.633 2.297-.079.14-.141.281-.188.421v-7.757H85.02v.586h1.758v12.656c0 .719-.203 1.148-.609 1.289-.234.078-.617.117-1.149.117V284h2.954l.21-1.547c.672 1.078 1.688 1.664 3.047 1.758.126.016.243.023.352.023zm.047-9.492c1.281 0 2.117.781 2.508 2.344.156.578.234 1.234.234 1.969 0 2.203-.594 3.633-1.781 4.289a2.566 2.566 0 0 1-1.242.304c-1.172 0-2-.625-2.485-1.875-.234-.656-.351-1.414-.351-2.273 0-1.891.469-3.258 1.406-4.102.5-.437 1.07-.656 1.71-.656zm14.836 9.492c1.203 0 1.867-.726 1.992-2.179a1.54 1.54 0 0 0 .023-.258l-.609-.024c-.109 1.141-.414 1.719-.914 1.735-.406-.031-.617-.438-.633-1.219v-4.945c0-2.235-1.117-3.414-3.351-3.539h-.422c-1.75 0-2.922.406-3.516 1.218-.187.266-.281.532-.281.797 0 .485.227.766.68.844.078.016.156.024.234.024.359 0 .625-.227.797-.68.219-.578.367-.922.445-1.031.297-.391.758-.586 1.383-.586 1.469.093 2.227.898 2.273 2.414v1.476c-3.671 0-5.773.766-6.304 2.297-.094.297-.14.617-.14.961 0 1.188.522 2 1.57 2.438.421.171.867.257 1.335.257 1.141 0 2.102-.39 2.883-1.172.281-.296.492-.609.633-.937.187 1.391.828 2.094 1.922 2.109zm-4.664-.937c-.953 0-1.539-.477-1.758-1.43a3.473 3.473 0 0 1-.07-.726c0-1.047.601-1.711 1.804-1.993.641-.14 1.571-.218 2.789-.234v1.875c-.234 1.078-.804 1.836-1.711 2.273-.359.157-.71.235-1.054.235zm7.734-4.172c0 1.891.695 3.305 2.086 4.242.859.578 1.836.867 2.93.867 1.625 0 2.851-.57 3.679-1.711.188-.265.336-.531.446-.796l-.61-.211c-.578 1.234-1.531 1.914-2.859 2.039-.125.015-.25.023-.375.023-1.109 0-1.977-.555-2.602-1.664-.468-.844-.703-1.844-.703-3 0-2.047.539-3.414 1.618-4.102a2.79 2.79 0 0 1 1.5-.421c.843 0 1.351.328 1.523.984.031.125.07.32.117.586.094.625.266 1.016.516 1.172.156.078.328.125.515.14.532.032.868-.187 1.008-.656.031-.109.047-.211.047-.305 0-.796-.508-1.453-1.523-1.968a5.16 5.16 0 0 0-2.344-.539c-2.094 0-3.555.851-4.383 2.554-.391.813-.586 1.735-.586 2.766zm14.555 4.289h-1.055v-3.469l1.289-1.195 3.305 5.25h3.117c0-.344-.117-.531-.351-.562a.97.97 0 0 0-.235-.024h-.844l-3.773-5.812 2.203-2.063c.547-.516.961-.805 1.242-.867.125-.031.266-.047.422-.047.344 0 .531-.117.563-.352.015-.078.023-.156.023-.234h-3.984v.586h1.758l-4.735 4.383v-10.242h-3.515v.586h1.757v12.656c0 .719-.203 1.148-.609 1.289-.234.078-.617.117-1.148.117V284h5.156c0-.344-.117-.531-.352-.562a.956.956 0 0 0-.234-.024zm9.469-5.906c.031-2.063.812-3.102 2.343-3.117 1.532.031 2.305 1.07 2.321 3.117-.032 2.125-.805 3.195-2.321 3.211-1.547-.031-2.328-1.102-2.343-3.211zm2.367-3.703c-1.406 0-2.524.453-3.352 1.359a3.459 3.459 0 0 0-.89 2.367c0 1.188.578 2.172 1.734 2.953.109.078.219.149.328.211-1 0-1.625.43-1.875 1.289-.047.204-.07.407-.07.61.015.828.351 1.445 1.008 1.851-.516.547-.774 1.102-.774 1.664 0 .86.508 1.5 1.524 1.922.64.281 1.429.422 2.367.422 2.375 0 3.945-.578 4.711-1.734.25-.391.375-.805.375-1.242 0-1.344-.774-2.118-2.321-2.321a4.185 4.185 0 0 0-.632-.047l-4.266-.093c-.719-.047-1.086-.36-1.102-.938 0-.406.258-.664.774-.773a2.42 2.42 0 0 1 .351-.024l2.063.024c1.391 0 2.5-.469 3.328-1.407.594-.671.891-1.468.891-2.39-.016-1.172-.469-2.11-1.36-2.813.141-.5.407-.797.797-.89a.757.757 0 0 1 .188-.024c.218 0 .453.117.703.352.172.156.328.234.469.234.39-.094.617-.344.679-.75 0-.484-.226-.812-.679-.984a1.49 1.49 0 0 0-.516-.094c-.734 0-1.328.328-1.781.984a3.08 3.08 0 0 0-.399.821 4.915 4.915 0 0 0-2.273-.539zm0 14.039c-1.547 0-2.524-.406-2.93-1.219a1.46 1.46 0 0 1-.164-.656c.016-.422.203-.844.563-1.266.312.063.57.094.773.094l3.609.047c1.172.015 1.852.281 2.039.797.047.125.071.281.071.468 0 .688-.641 1.188-1.922 1.5a8.359 8.359 0 0 1-2.039.235zm11.812-4.43h-1.687v-4.664c0-1.422.437-2.562 1.312-3.422.344-.328.633-.5.867-.516.266 0 .508.196.727.586.25.438.484.688.703.75a.867.867 0 0 0 .281.047c.469 0 .766-.226.891-.679a.897.897 0 0 0 .047-.282c0-.703-.359-1.132-1.078-1.289a2.295 2.295 0 0 0-.446-.047c-.937 0-1.773.399-2.507 1.196a4.52 4.52 0 0 0-.821 1.265l-.093-2.32h-3.399v.586h1.758v7.383c0 .719-.203 1.148-.609 1.289-.235.078-.618.117-1.149.117V284h5.789c0-.344-.117-.531-.351-.562a.97.97 0 0 0-.235-.024zm6.188-4.406c0-2.422.664-3.899 1.992-4.43a3.13 3.13 0 0 1 1.078-.187c1.734 0 2.742 1.093 3.024 3.281.046.375.07.789.07 1.242 0 2.625-.719 4.164-2.156 4.617a3.24 3.24 0 0 1-.868.117c-1.578 0-2.57-.937-2.976-2.812a9.303 9.303 0 0 1-.164-1.828zm3.14-5.203c-1.5 0-2.75.515-3.75 1.547-.921.953-1.382 2.14-1.382 3.562 0 1.969.718 3.445 2.156 4.43.875.594 1.844.89 2.906.89 1.5 0 2.742-.531 3.727-1.593.906-.969 1.359-2.18 1.359-3.633 0-1.969-.727-3.43-2.18-4.383a5.173 5.173 0 0 0-2.836-.82zm18.024 9.609h-1.172v-9.375h-3.68v.586h1.922v5.063c0 1.406-.492 2.437-1.476 3.093-.438.297-.891.446-1.36.446-1.281 0-2.023-.657-2.226-1.969a4.87 4.87 0 0 1-.047-.703v-6.516h-3.563v.586h1.805v5.578c.016 2.672 1.133 4.016 3.352 4.031 1.171 0 2.132-.476 2.882-1.429.282-.36.508-.758.68-1.196l.164 2.391h3.305c0-.344-.117-.531-.352-.562a.956.956 0 0 0-.234-.024zm6.492 0h-1.055v-5.062c.047-1.454.563-2.5 1.547-3.141.422-.266.852-.399 1.289-.399.953 0 1.602.446 1.946 1.336.14.36.211.766.211 1.219v4.641c0 .719-.204 1.148-.61 1.289-.234.078-.617.117-1.148.117V284h5.273c0-.344-.117-.531-.351-.562a.97.97 0 0 0-.235-.024h-1.172v-5.812c0-1.563-.539-2.68-1.617-3.352a3.111 3.111 0 0 0-1.617-.445c-1.156 0-2.109.461-2.859 1.383a4.704 4.704 0 0 0-.68 1.195l-.094-2.344h-3.398v.586h1.758v7.383c0 .719-.204 1.148-.61 1.289-.234.078-.617.117-1.148.117V284h5.156c0-.344-.117-.531-.352-.562a.956.956 0 0 0-.234-.024zm16.969.586h3.351c0-.344-.117-.531-.351-.562a.97.97 0 0 0-.235-.024h-1.171l-.047-14.648h-3.985v.586h2.227v5.718c-.766-.843-1.797-1.265-3.094-1.265-1.719 0-3.016.765-3.891 2.297-.531.937-.796 1.992-.796 3.164 0 1.937.609 3.351 1.828 4.242a3.86 3.86 0 0 0 2.273.726c1.703-.031 2.938-.937 3.703-2.718l.188 2.484zm-6-5.016c0-2.203.594-3.632 1.781-4.289a2.566 2.566 0 0 1 1.242-.304c1.141 0 1.953.609 2.438 1.828.265.656.398 1.429.398 2.32 0 1.875-.469 3.234-1.406 4.078-.5.453-1.07.68-1.711.68-1.281 0-2.117-.781-2.508-2.344-.156-.578-.234-1.234-.234-1.969zm19.992 4.43h-1.172v-9.375h-3.633v.586h1.875v7.383c0 .719-.242 1.156-.726 1.312-.235.063-.617.094-1.149.094V284h5.391c0-.344-.117-.531-.352-.562a1.162 1.162 0 0 0-.234-.024zm-.891-12.797c0-.547-.242-.937-.726-1.172a1.403 1.403 0 0 0-.539-.117c-.547 0-.938.25-1.172.75a1.292 1.292 0 0 0-.117.539c0 .578.257.977.773 1.195.172.063.344.094.516.094.547 0 .929-.25 1.148-.75.078-.172.117-.351.117-.539zm7.453 12.797h-1.054v-5.062c.047-1.454.562-2.5 1.547-3.141.422-.266.851-.399 1.289-.399.953 0 1.601.446 1.945 1.336.141.36.211.766.211 1.219v4.641c0 .719-.203 1.148-.609 1.289-.235.078-.618.117-1.149.117V284h5.274c0-.344-.118-.531-.352-.562a.962.962 0 0 0-.234-.024h-1.172v-5.812c0-1.563-.539-2.68-1.617-3.352a3.112 3.112 0 0 0-1.618-.445c-1.156 0-2.109.461-2.859 1.383a4.734 4.734 0 0 0-.68 1.195l-.093-2.344h-3.399v.586h1.758v7.383c0 .719-.203 1.148-.609 1.289-.235.078-.618.117-1.149.117V284h5.156c0-.344-.117-.531-.351-.562a.97.97 0 0 0-.235-.024zm18.047 0h-1.172v-5.062c0-1.422.493-2.454 1.477-3.094a2.278 2.278 0 0 1 1.266-.399c.953 0 1.617.446 1.992 1.336.172.422.258.891.258 1.407v4.406c0 .719-.172 1.148-.516 1.289-.219.078-.594.117-1.125.117V284h5.156c0-.344-.117-.531-.351-.562a.97.97 0 0 0-.235-.024h-1.172v-5.812c0-1.704-.562-2.86-1.687-3.469a3.099 3.099 0 0 0-1.406-.328c-1.157 0-2.125.422-2.907 1.265-.328.36-.578.766-.75 1.219v-7.523h-3.515v.586h1.758v12.656c0 .719-.203 1.148-.61 1.289-.234.078-.617.117-1.148.117V284h5.273c0-.344-.117-.531-.351-.562a.97.97 0 0 0-.235-.024zm20.016 0h-1.172v-9.375h-3.68v.586h1.922v5.063c0 1.406-.492 2.437-1.476 3.093-.438.297-.891.446-1.36.446-1.281 0-2.023-.657-2.226-1.969a5.016 5.016 0 0 1-.047-.703v-6.516h-3.563v.586h1.805v5.578c.016 2.672 1.133 4.016 3.352 4.031 1.172 0 2.132-.476 2.882-1.429.282-.36.508-.758.68-1.196l.164 2.391h3.305c0-.344-.117-.531-.352-.562a.956.956 0 0 0-.234-.024zm6.492 0h-1.055v-5.062c.047-1.375.524-2.399 1.43-3.071.422-.312.844-.469 1.266-.469.781 0 1.32.43 1.617 1.29.125.375.187.796.187 1.265v4.641c0 .719-.171 1.148-.515 1.289-.219.078-.594.117-1.125.117V284h5.039c0-.344-.117-.531-.352-.562a.956.956 0 0 0-.234-.024h-1.055v-6c.25-1.141.805-1.937 1.664-2.391.328-.156.641-.234.938-.234.797 0 1.359.414 1.687 1.242.157.391.235.836.235 1.336v4.641c0 .719-.172 1.148-.516 1.289-.219.078-.594.117-1.125.117V284h5.18c0-.344-.117-.531-.352-.562a.956.956 0 0 0-.234-.024h-1.195v-5.812c0-1.61-.524-2.735-1.571-3.375a2.9 2.9 0 0 0-1.523-.422c-1.188 0-2.141.554-2.86 1.664a4.876 4.876 0 0 0-.468.89c-.282-1.234-.899-2.031-1.852-2.39a2.358 2.358 0 0 0-.867-.164c-1.125 0-2.055.476-2.789 1.429a4.306 4.306 0 0 0-.633 1.149l-.094-2.344h-3.398v.586h1.758v7.383c0 .719-.203 1.148-.61 1.289-.234.078-.617.117-1.148.117V284h5.156c0-.328-.117-.516-.351-.562a1.179 1.179 0 0 0-.235-.024zm23.016.82c1.203 0 1.867-.726 1.992-2.179a1.54 1.54 0 0 0 .023-.258l-.609-.024c-.109 1.141-.414 1.719-.914 1.735-.406-.031-.617-.438-.633-1.219v-4.945c0-2.235-1.117-3.414-3.351-3.539h-.422c-1.75 0-2.922.406-3.516 1.218-.187.266-.281.532-.281.797 0 .485.226.766.68.844.078.016.156.024.234.024.359 0 .625-.227.797-.68.219-.578.367-.922.445-1.031.297-.391.758-.586 1.383-.586 1.469.093 2.226.898 2.273 2.414v1.476c-3.672 0-5.773.766-6.304 2.297a3.167 3.167 0 0 0-.141.961c0 1.188.523 2 1.57 2.438.422.171.868.257 1.336.257 1.141 0 2.102-.39 2.883-1.172.281-.296.492-.609.633-.937.187 1.391.828 2.094 1.922 2.109zm-4.664-.937c-.953 0-1.539-.477-1.758-1.43a3.467 3.467 0 0 1-.07-.726c0-1.047.601-1.711 1.804-1.993.641-.14 1.571-.218 2.789-.234v1.875c-.234 1.078-.804 1.836-1.711 2.273a2.62 2.62 0 0 1-1.054.235zm12.07.117h-1.055v-5.062c.047-1.454.563-2.5 1.547-3.141.422-.266.852-.399 1.289-.399.953 0 1.602.446 1.946 1.336.14.36.211.766.211 1.219v4.641c0 .719-.204 1.148-.61 1.289-.234.078-.617.117-1.148.117V284h5.273c0-.344-.117-.531-.351-.562a.97.97 0 0 0-.235-.024h-1.172v-5.812c0-1.563-.539-2.68-1.617-3.352a3.111 3.111 0 0 0-1.617-.445c-1.156 0-2.109.461-2.859 1.383a4.704 4.704 0 0 0-.68 1.195l-.094-2.344h-3.398v.586h1.758v7.383c0 .719-.204 1.148-.61 1.289-.234.078-.617.117-1.148.117V284h5.156c0-.344-.117-.531-.352-.562a.956.956 0 0 0-.234-.024zm13.547-4.289c0 1.891.695 3.305 2.086 4.242.859.578 1.836.867 2.93.867 1.625 0 2.851-.57 3.679-1.711.188-.265.336-.531.446-.796l-.61-.211c-.578 1.234-1.531 1.914-2.859 2.039-.125.015-.25.023-.375.023-1.11 0-1.977-.555-2.602-1.664-.469-.844-.703-1.844-.703-3 0-2.047.539-3.414 1.617-4.102a2.79 2.79 0 0 1 1.5-.421c.844 0 1.352.328 1.524.984.031.125.07.32.117.586.094.625.266 1.016.516 1.172.156.078.328.125.515.14.531.032.867-.187 1.008-.656.031-.109.047-.211.047-.305 0-.796-.508-1.453-1.524-1.968a5.156 5.156 0 0 0-2.343-.539c-2.094 0-3.555.851-4.383 2.554-.391.813-.586 1.735-.586 2.766zm15.094-4.734c1.093 0 1.82.461 2.179 1.382.125.297.188.618.188.961 0 .782-.375 1.258-1.125 1.43-.391.078-.945.109-1.664.094l-2.485-.07c.079-1.797.664-2.969 1.758-3.516.36-.188.742-.281 1.149-.281zm4.078 7.359l-.586-.211c-.547 1.188-1.43 1.859-2.649 2.016a4.658 4.658 0 0 1-.445.023c-1.641 0-2.672-.976-3.094-2.93a9.093 9.093 0 0 1-.211-1.804l2.813.047c1.906.031 3.133-.149 3.68-.539.421-.313.632-.758.632-1.336 0-1.063-.539-1.907-1.617-2.532-.765-.453-1.648-.679-2.648-.679-1.953 0-3.352.812-4.196 2.437-.437.844-.656 1.797-.656 2.86 0 1.937.696 3.375 2.086 4.312.828.547 1.774.82 2.836.82 1.688 0 2.93-.609 3.727-1.828.125-.218.234-.437.328-.656zm6.234 1.664h-1.055v-5.062c.047-1.454.563-2.5 1.547-3.141.422-.266.852-.399 1.289-.399.954 0 1.602.446 1.946 1.336.14.36.211.766.211 1.219v4.641c0 .719-.203 1.148-.61 1.289-.234.078-.617.117-1.148.117V284h5.273c0-.344-.117-.531-.351-.562a.97.97 0 0 0-.235-.024h-1.172v-5.812c0-1.563-.539-2.68-1.617-3.352a3.111 3.111 0 0 0-1.617-.445c-1.156 0-2.109.461-2.859 1.383a4.704 4.704 0 0 0-.68 1.195l-.094-2.344h-3.398v.586h1.758v7.383c0 .719-.203 1.148-.61 1.289-.234.078-.617.117-1.148.117V284h5.156c0-.344-.117-.531-.351-.562a.97.97 0 0 0-.235-.024zm8.508-8.789h1.641v6.609c.109 1.954 1.007 2.961 2.695 3.024 1.437 0 2.336-.883 2.695-2.649v-.047l-.633-.117c-.39 1.297-.961 2-1.711 2.11-.843-.032-1.273-.633-1.289-1.805v-7.125h3.633v-.586h-3.633v-2.719l-1.757.492v2.227h-1.641v.586zm12.984-.234c1.094 0 1.821.461 2.18 1.382.125.297.188.618.188.961 0 .782-.375 1.258-1.125 1.43-.391.078-.946.109-1.665.094l-2.484-.07c.078-1.797.664-2.969 1.758-3.516a2.44 2.44 0 0 1 1.148-.281zm4.078 7.359l-.585-.211c-.547 1.188-1.43 1.859-2.649 2.016a4.675 4.675 0 0 1-.445.023c-1.641 0-2.672-.976-3.094-2.93a9.093 9.093 0 0 1-.211-1.804l2.813.047c1.906.031 3.132-.149 3.679-.539.422-.313.633-.758.633-1.336 0-1.063-.539-1.907-1.617-2.532-.766-.453-1.649-.679-2.649-.679-1.953 0-3.351.812-4.195 2.437-.437.844-.656 1.797-.656 2.86 0 1.937.695 3.375 2.086 4.312.828.547 1.773.82 2.836.82 1.687 0 2.929-.609 3.726-1.828.125-.218.235-.437.328-.656zm6.915 1.664h-1.688v-4.664c0-1.422.438-2.562 1.313-3.422.343-.328.632-.5.867-.516.265 0 .508.196.726.586.25.438.485.688.703.75a.869.869 0 0 0 .282.047c.468 0 .765-.226.89-.679a.869.869 0 0 0 .047-.282c0-.703-.359-1.132-1.078-1.289a2.293 2.293 0 0 0-.445-.047c-.938 0-1.774.399-2.508 1.196a4.517 4.517 0 0 0-.82 1.265l-.094-2.32h-3.399v.586h1.758v7.383c0 .719-.203 1.148-.609 1.289-.235.078-.617.117-1.149.117V284h5.789c0-.344-.117-.531-.351-.562a.968.968 0 0 0-.234-.024zm9.093-9.023c1.094 0 1.821.461 2.18 1.382.125.297.187.618.187.961 0 .782-.375 1.258-1.125 1.43-.39.078-.945.109-1.664.094l-2.484-.07c.078-1.797.664-2.969 1.758-3.516a2.44 2.44 0 0 1 1.148-.281zm4.078 7.359l-.586-.211c-.546 1.188-1.429 1.859-2.648 2.016a4.675 4.675 0 0 1-.445.023c-1.641 0-2.672-.976-3.094-2.93a9.093 9.093 0 0 1-.211-1.804l2.813.047c1.906.031 3.132-.149 3.679-.539.422-.313.633-.758.633-1.336 0-1.063-.539-1.907-1.617-2.532-.766-.453-1.649-.679-2.649-.679-1.953 0-3.351.812-4.195 2.437-.437.844-.656 1.797-.656 2.86 0 1.937.695 3.375 2.086 4.312.828.547 1.773.82 2.836.82 1.687 0 2.929-.609 3.726-1.828.125-.218.235-.437.328-.656zm9.891 2.25h3.352c0-.344-.118-.531-.352-.562a.962.962 0 0 0-.234-.024h-1.172l-.047-14.648h-3.984v.586h2.226v5.718c-.766-.843-1.797-1.265-3.094-1.265-1.718 0-3.015.765-3.89 2.297-.532.937-.797 1.992-.797 3.164 0 1.937.609 3.351 1.828 4.242a3.86 3.86 0 0 0 2.273.726c1.704-.031 2.938-.937 3.704-2.718l.187 2.484zm-6-5.016c0-2.203.594-3.632 1.781-4.289a2.566 2.566 0 0 1 1.242-.304c1.141 0 1.954.609 2.438 1.828.266.656.398 1.429.398 2.32 0 1.875-.468 3.234-1.406 4.078-.5.453-1.07.68-1.711.68-1.281 0-2.117-.781-2.508-2.344-.156-.578-.234-1.234-.234-1.969zm15.422.141c0 1.891.695 3.305 2.086 4.242.859.578 1.836.867 2.93.867 1.625 0 2.851-.57 3.679-1.711.188-.265.336-.531.446-.796l-.61-.211c-.578 1.234-1.531 1.914-2.859 2.039-.125.015-.25.023-.375.023-1.11 0-1.977-.555-2.602-1.664-.469-.844-.703-1.844-.703-3 0-2.047.539-3.414 1.617-4.102a2.79 2.79 0 0 1 1.5-.421c.844 0 1.352.328 1.524.984.031.125.07.32.117.586.094.625.266 1.016.516 1.172.156.078.328.125.515.14.531.032.867-.187 1.008-.656.031-.109.047-.211.047-.305 0-.796-.508-1.453-1.524-1.968a5.156 5.156 0 0 0-2.343-.539c-2.094 0-3.555.851-4.383 2.554-.391.813-.586 1.735-.586 2.766zm12.187-.117c0-2.422.664-3.899 1.993-4.43a3.126 3.126 0 0 1 1.078-.187c1.734 0 2.742 1.093 3.023 3.281.047.375.07.789.07 1.242 0 2.625-.718 4.164-2.156 4.617-.281.078-.57.117-.867.117-1.578 0-2.57-.937-2.977-2.812a9.38 9.38 0 0 1-.164-1.828zm3.141-5.203c-1.5 0-2.75.515-3.75 1.547-.922.953-1.383 2.14-1.383 3.562 0 1.969.719 3.445 2.156 4.43.875.594 1.844.89 2.907.89 1.5 0 2.742-.531 3.726-1.593.907-.969 1.36-2.18 1.36-3.633 0-1.969-.727-3.43-2.18-4.383a5.175 5.175 0 0 0-2.836-.82zm11.227 9.609h-1.055v-5.062c.047-1.375.523-2.399 1.43-3.071.421-.312.843-.469 1.265-.469.781 0 1.321.43 1.617 1.29.125.375.188.796.188 1.265v4.641c0 .719-.172 1.148-.516 1.289-.218.078-.593.117-1.125.117V284h5.039c0-.344-.117-.531-.351-.562a.97.97 0 0 0-.235-.024h-1.054v-6c.25-1.141.804-1.937 1.664-2.391.328-.156.64-.234.937-.234.797 0 1.36.414 1.688 1.242.156.391.234.836.234 1.336v4.641c0 .719-.172 1.148-.515 1.289-.219.078-.594.117-1.125.117V284h5.179c0-.344-.117-.531-.351-.562a.97.97 0 0 0-.235-.024h-1.195v-5.812c0-1.61-.523-2.735-1.57-3.375a2.904 2.904 0 0 0-1.524-.422c-1.187 0-2.14.554-2.859 1.664a4.82 4.82 0 0 0-.469.89c-.281-1.234-.898-2.031-1.851-2.39a2.367 2.367 0 0 0-.868-.164c-1.125 0-2.054.476-2.789 1.429a4.362 4.362 0 0 0-.633 1.149l-.093-2.344h-3.399v.586h1.758v7.383c0 .719-.203 1.148-.609 1.289-.235.078-.617.117-1.149.117V284h5.157c0-.328-.118-.516-.352-.562a1.162 1.162 0 0 0-.234-.024zm17.976 4.453v-4.851a4.817 4.817 0 0 0 2.977 1.218c1.39 0 2.554-.523 3.492-1.57.906-1.016 1.359-2.305 1.359-3.867 0-1.781-.492-3.133-1.476-4.055-.688-.625-1.524-.937-2.508-.937-1.516 0-2.649.601-3.399 1.804a5.733 5.733 0 0 0-.468.985l-.117-2.555h-3.375v.586h1.757v11.836c0 .719-.203 1.148-.609 1.289-.234.078-.617.117-1.148.117v.586h5.742c0-.344-.117-.531-.352-.562a.956.956 0 0 0-.234-.024h-1.641zm3.094-13.125c1.359 0 2.219.852 2.578 2.555a8.41 8.41 0 0 1 .164 1.734c0 2.297-.617 3.75-1.851 4.36-.36.171-.75.257-1.172.257-1.203 0-2.032-.632-2.485-1.898-.234-.641-.351-1.398-.351-2.273 0-2.032.523-3.438 1.57-4.219a2.556 2.556 0 0 1 1.547-.516zm17.742 8.672h-1.172v-9.375h-3.679v.586h1.921v5.063c0 1.406-.492 2.437-1.476 3.093-.438.297-.891.446-1.36.446-1.281 0-2.023-.657-2.226-1.969a5.016 5.016 0 0 1-.047-.703v-6.516h-3.562v.586h1.804v5.578c.016 2.672 1.133 4.016 3.352 4.031 1.172 0 2.133-.476 2.883-1.429.281-.36.507-.758.679-1.196l.164 2.391h3.305c0-.344-.117-.531-.352-.562a.956.956 0 0 0-.234-.024zm1.688-8.789h1.64v6.609c.11 1.954 1.008 2.961 2.696 3.024 1.437 0 2.335-.883 2.695-2.649v-.047l-.633-.117c-.391 1.297-.961 2-1.711 2.11-.844-.032-1.273-.633-1.289-1.805v-7.125h3.633v-.586h-3.633v-2.719l-1.758.492v2.227h-1.64v.586zm12.656 8.789h-1.172v-9.375h-3.633v.586h1.875v7.383c0 .719-.242 1.156-.726 1.312-.235.063-.618.094-1.149.094V284h5.391c0-.344-.117-.531-.352-.562a1.162 1.162 0 0 0-.234-.024zm-.891-12.797c0-.547-.242-.937-.726-1.172a1.407 1.407 0 0 0-.539-.117c-.547 0-.938.25-1.172.75a1.292 1.292 0 0 0-.117.539c0 .578.257.977.773 1.195.172.063.344.094.516.094.546 0 .929-.25 1.148-.75.078-.172.117-.351.117-.539zm7.453 12.797h-1.054v-5.062c.047-1.454.562-2.5 1.547-3.141.421-.266.851-.399 1.289-.399.953 0 1.601.446 1.945 1.336.141.36.211.766.211 1.219v4.641c0 .719-.203 1.148-.61 1.289-.234.078-.617.117-1.148.117V284h5.273c0-.344-.117-.531-.351-.562a.968.968 0 0 0-.234-.024h-1.172v-5.812c0-1.563-.539-2.68-1.618-3.352a3.111 3.111 0 0 0-1.617-.445c-1.156 0-2.109.461-2.859 1.383a4.734 4.734 0 0 0-.68 1.195l-.094-2.344h-3.398v.586h1.758v7.383c0 .719-.203 1.148-.61 1.289-.234.078-.617.117-1.148.117V284h5.156c0-.344-.117-.531-.351-.562a.97.97 0 0 0-.235-.024zm11.086-5.906c.032-2.063.813-3.102 2.344-3.117 1.531.031 2.305 1.07 2.32 3.117-.031 2.125-.804 3.195-2.32 3.211-1.547-.031-2.328-1.102-2.344-3.211zm2.367-3.703c-1.406 0-2.523.453-3.351 1.359a3.46 3.46 0 0 0-.891 2.367c0 1.188.578 2.172 1.735 2.953.109.078.218.149.328.211-1 0-1.625.43-1.875 1.289a2.708 2.708 0 0 0-.071.61c.016.828.352 1.445 1.008 1.851-.515.547-.773 1.102-.773 1.664 0 .86.508 1.5 1.523 1.922.641.281 1.43.422 2.367.422 2.375 0 3.946-.578 4.711-1.734.25-.391.375-.805.375-1.242 0-1.344-.773-2.118-2.32-2.321a4.189 4.189 0 0 0-.633-.047l-4.265-.093c-.719-.047-1.086-.36-1.102-.938 0-.406.258-.664.774-.773a2.42 2.42 0 0 1 .351-.024l2.063.024c1.39 0 2.5-.469 3.328-1.407.593-.671.89-1.468.89-2.39-.015-1.172-.468-2.11-1.359-2.813.141-.5.406-.797.797-.89a.75.75 0 0 1 .187-.024c.219 0 .453.117.703.352.172.156.329.234.469.234.391-.094.617-.344.68-.75 0-.484-.227-.812-.68-.984a1.49 1.49 0 0 0-.515-.094c-.735 0-1.329.328-1.782.984-.172.25-.304.524-.398.821a4.916 4.916 0 0 0-2.274-.539zm0 14.039c-1.546 0-2.523-.406-2.929-1.219a1.447 1.447 0 0 1-.164-.656c.015-.422.203-.844.562-1.266.313.063.571.094.774.094l3.609.047c1.172.015 1.852.281 2.039.797.047.125.07.281.07.468 0 .688-.64 1.188-1.921 1.5a8.361 8.361 0 0 1-2.04.235zm-329.718 44.39c1.203 0 1.867-.726 1.992-2.179a1.54 1.54 0 0 0 .023-.258l-.609-.024c-.109 1.141-.414 1.719-.914 1.735-.406-.031-.617-.438-.633-1.219v-4.945c0-2.235-1.117-3.414-3.351-3.539h-.422c-1.75 0-2.922.406-3.516 1.218-.187.266-.281.532-.281.797 0 .485.226.766.679.844.079.016.157.024.235.024.359 0 .625-.227.797-.68.218-.578.367-.922.445-1.031.297-.391.758-.586 1.383-.586 1.469.093 2.226.898 2.273 2.414v1.476c-3.672 0-5.773.766-6.304 2.297a3.167 3.167 0 0 0-.141.961c0 1.188.523 2 1.57 2.438.422.171.867.257 1.336.257 1.141 0 2.102-.39 2.883-1.172.281-.296.492-.609.633-.937.187 1.391.828 2.094 1.922 2.109zm-4.664-.937c-.953 0-1.539-.477-1.758-1.43a3.467 3.467 0 0 1-.07-.726c0-1.047.601-1.711 1.804-1.993.641-.14 1.571-.218 2.789-.234v1.875c-.234 1.078-.804 1.836-1.711 2.273a2.62 2.62 0 0 1-1.054.235zm12.07.117h-1.055v-5.062c.047-1.454.563-2.5 1.547-3.141.422-.266.852-.399 1.289-.399.953 0 1.602.446 1.946 1.336.14.36.21.766.21 1.219v4.641c0 .719-.203 1.148-.609 1.289-.234.078-.617.117-1.148.117V332h5.273c0-.344-.117-.531-.351-.562a.97.97 0 0 0-.235-.024h-1.172v-5.812c0-1.563-.539-2.68-1.617-3.352a3.111 3.111 0 0 0-1.617-.445c-1.156 0-2.109.461-2.859 1.383a4.704 4.704 0 0 0-.68 1.195l-.094-2.344h-3.398v.586h1.757v7.383c0 .719-.203 1.148-.609 1.289-.234.078-.617.117-1.148.117V332h5.156c0-.344-.117-.531-.352-.562a.956.956 0 0 0-.234-.024zm16.969.586h3.351c0-.344-.117-.531-.351-.562a.97.97 0 0 0-.235-.024h-1.172l-.046-14.648h-3.985v.586h2.227v5.718c-.766-.843-1.797-1.265-3.094-1.265-1.719 0-3.016.765-3.891 2.297-.531.937-.796 1.992-.796 3.164 0 1.937.609 3.351 1.828 4.242a3.86 3.86 0 0 0 2.273.726c1.703-.031 2.938-.937 3.703-2.718l.188 2.484zm-6-5.016c0-2.203.593-3.632 1.781-4.289a2.566 2.566 0 0 1 1.242-.304c1.141 0 1.953.609 2.438 1.828.265.656.398 1.429.398 2.32 0 1.875-.469 3.234-1.406 4.078-.5.453-1.07.68-1.711.68-1.281 0-2.117-.781-2.508-2.344-.156-.578-.234-1.234-.234-1.969zm20.367 4.43h-1.641v-8.789h2.696v-.586h-2.696v-.141c0-2.671.399-4.187 1.196-4.546.171-.079.359-.118.562-.118.484 0 .891.289 1.219.868.281.5.484.796.609.89a.685.685 0 0 0 .422.141c.516 0 .82-.219.914-.656.016-.079.024-.149.024-.211 0-.578-.391-1.032-1.172-1.36a4.266 4.266 0 0 0-1.524-.258c-1.468 0-2.562.61-3.281 1.829-.484.843-.727 1.906-.727 3.187v.375h-1.64v.586h1.64v7.383c0 .719-.203 1.148-.609 1.289-.234.078-.617.117-1.148.117V332h5.742c0-.344-.117-.531-.352-.562a.956.956 0 0 0-.234-.024zm7.195 0h-1.687v-4.664c0-1.422.437-2.562 1.312-3.422.344-.328.633-.5.867-.516.266 0 .508.196.727.586.25.438.484.688.703.75a.867.867 0 0 0 .281.047c.469 0 .766-.226.891-.679a.897.897 0 0 0 .047-.282c0-.703-.36-1.132-1.078-1.289a2.303 2.303 0 0 0-.446-.047c-.937 0-1.773.399-2.507 1.196a4.52 4.52 0 0 0-.821 1.265l-.093-2.32h-3.399v.586h1.758v7.383c0 .719-.203 1.148-.609 1.289-.235.078-.618.117-1.149.117V332h5.789c0-.344-.117-.531-.351-.562a.97.97 0 0 0-.235-.024zm6.188-4.406c0-2.422.664-3.899 1.992-4.43a3.13 3.13 0 0 1 1.078-.187c1.734 0 2.742 1.093 3.023 3.281.047.375.071.789.071 1.242 0 2.625-.719 4.164-2.156 4.617a3.24 3.24 0 0 1-.868.117c-1.578 0-2.57-.937-2.976-2.812a9.303 9.303 0 0 1-.164-1.828zm3.14-5.203c-1.5 0-2.75.515-3.75 1.547-.922.953-1.382 2.14-1.382 3.562 0 1.969.718 3.445 2.156 4.43.875.594 1.844.89 2.906.89 1.5 0 2.742-.531 3.727-1.593.906-.969 1.359-2.18 1.359-3.633 0-1.969-.727-3.43-2.18-4.383a5.173 5.173 0 0 0-2.836-.82zm11.227 9.609h-1.055v-5.062c.047-1.454.563-2.5 1.547-3.141.422-.266.852-.399 1.289-.399.953 0 1.602.446 1.945 1.336.141.36.211.766.211 1.219v4.641c0 .719-.203 1.148-.609 1.289-.234.078-.617.117-1.148.117V332h5.273c0-.344-.117-.531-.352-.562a.956.956 0 0 0-.234-.024h-1.172v-5.812c0-1.563-.539-2.68-1.617-3.352a3.111 3.111 0 0 0-1.617-.445c-1.156 0-2.11.461-2.86 1.383a4.731 4.731 0 0 0-.679 1.195l-.094-2.344h-3.398v.586h1.757v7.383c0 .719-.203 1.148-.609 1.289-.234.078-.617.117-1.148.117V332h5.156c0-.344-.117-.531-.352-.562a.956.956 0 0 0-.234-.024zm8.508-8.789h1.64v6.609c.11 1.954 1.008 2.961 2.696 3.024 1.437 0 2.336-.883 2.695-2.649v-.047l-.633-.117c-.39 1.297-.961 2-1.711 2.11-.844-.032-1.273-.633-1.289-1.805v-7.125h3.633v-.586h-3.633v-2.719l-1.758.492v2.227h-1.64v.586zm17.554-.234c1.094 0 1.821.461 2.18 1.382.125.297.188.618.188.961 0 .782-.375 1.258-1.125 1.43-.391.078-.946.109-1.664.094l-2.485-.07c.078-1.797.664-2.969 1.758-3.516a2.44 2.44 0 0 1 1.148-.281zm4.079 7.359l-.586-.211c-.547 1.188-1.43 1.859-2.649 2.016a4.675 4.675 0 0 1-.445.023c-1.641 0-2.672-.976-3.094-2.93a9.093 9.093 0 0 1-.211-1.804l2.813.047c1.906.031 3.132-.149 3.679-.539.422-.313.633-.758.633-1.336 0-1.063-.539-1.907-1.617-2.532-.766-.453-1.648-.679-2.648-.679-1.954 0-3.352.812-4.196 2.437-.437.844-.656 1.797-.656 2.86 0 1.937.695 3.375 2.086 4.312.828.547 1.773.82 2.836.82 1.687 0 2.93-.609 3.726-1.828a6.38 6.38 0 0 0 .329-.656zm6.234 1.664h-1.055v-5.062c.047-1.454.563-2.5 1.547-3.141.422-.266.852-.399 1.289-.399.953 0 1.602.446 1.945 1.336.141.36.211.766.211 1.219v4.641c0 .719-.203 1.148-.609 1.289-.234.078-.617.117-1.148.117V332h5.273c0-.344-.117-.531-.352-.562a.956.956 0 0 0-.234-.024h-1.172v-5.812c0-1.563-.539-2.68-1.617-3.352a3.111 3.111 0 0 0-1.617-.445c-1.156 0-2.11.461-2.86 1.383a4.731 4.731 0 0 0-.679 1.195l-.094-2.344h-3.398v.586h1.757v7.383c0 .719-.203 1.148-.609 1.289-.234.078-.617.117-1.148.117V332h5.156c0-.344-.117-.531-.352-.562a.956.956 0 0 0-.234-.024zm16.969.586h3.351c0-.344-.117-.531-.351-.562a.97.97 0 0 0-.235-.024h-1.172l-.046-14.648h-3.985v.586h2.227v5.718c-.766-.843-1.797-1.265-3.094-1.265-1.719 0-3.016.765-3.891 2.297-.531.937-.797 1.992-.797 3.164 0 1.937.61 3.351 1.829 4.242a3.86 3.86 0 0 0 2.273.726c1.703-.031 2.938-.937 3.703-2.718l.188 2.484zm-6-5.016c0-2.203.593-3.632 1.781-4.289a2.566 2.566 0 0 1 1.242-.304c1.141 0 1.953.609 2.438 1.828.265.656.398 1.429.398 2.32 0 1.875-.469 3.234-1.406 4.078-.5.453-1.071.68-1.711.68-1.281 0-2.117-.781-2.508-2.344-.156-.578-.234-1.234-.234-1.969zM305.262 332h3.351c0-.344-.117-.531-.351-.562a.97.97 0 0 0-.235-.024h-1.172l-.046-14.648h-3.985v.586h2.227v5.718c-.766-.843-1.797-1.265-3.094-1.265-1.719 0-3.016.765-3.891 2.297-.531.937-.796 1.992-.796 3.164 0 1.937.609 3.351 1.828 4.242a3.86 3.86 0 0 0 2.273.726c1.703-.031 2.938-.937 3.703-2.718l.188 2.484zm-6-5.016c0-2.203.593-3.632 1.781-4.289a2.566 2.566 0 0 1 1.242-.304c1.141 0 1.953.609 2.438 1.828.265.656.398 1.429.398 2.32 0 1.875-.469 3.234-1.406 4.078-.5.453-1.07.68-1.711.68-1.281 0-2.117-.781-2.508-2.344-.156-.578-.234-1.234-.234-1.969zm15.75-4.593c1.093 0 1.82.461 2.179 1.382.125.297.188.618.188.961 0 .782-.375 1.258-1.125 1.43-.391.078-.945.109-1.664.094l-2.485-.07c.079-1.797.665-2.969 1.758-3.516.36-.188.742-.281 1.149-.281zm4.078 7.359l-.586-.211c-.547 1.188-1.43 1.859-2.649 2.016a4.658 4.658 0 0 1-.445.023c-1.64 0-2.672-.976-3.094-2.93a9.093 9.093 0 0 1-.211-1.804l2.813.047c1.906.031 3.133-.149 3.68-.539.422-.313.632-.758.632-1.336 0-1.063-.539-1.907-1.617-2.532-.765-.453-1.648-.679-2.648-.679-1.953 0-3.352.812-4.195 2.437-.438.844-.657 1.797-.657 2.86 0 1.937.696 3.375 2.086 4.312.828.547 1.774.82 2.836.82 1.688 0 2.93-.609 3.727-1.828.125-.218.234-.437.328-.656zm5.578-7.125v-.586h-4.547v.586h1.055l2.859 7.852c.313.875.656 1.382 1.031 1.523.188.078.422.117.704.117h.304l3.305-8.672c.187-.484.414-.75.68-.797.078-.015.148-.023.211-.023.343 0 .531-.117.562-.352a1.16 1.16 0 0 0 .023-.234h-3.609v.586h1.758l-2.977 7.992-3-7.992h1.641zm12.094-.234c1.093 0 1.82.461 2.179 1.382.125.297.188.618.188.961 0 .782-.375 1.258-1.125 1.43-.391.078-.945.109-1.664.094l-2.485-.07c.079-1.797.665-2.969 1.758-3.516.36-.188.742-.281 1.149-.281zm4.078 7.359l-.586-.211c-.547 1.188-1.43 1.859-2.649 2.016a4.658 4.658 0 0 1-.445.023c-1.64 0-2.672-.976-3.094-2.93a9.093 9.093 0 0 1-.211-1.804l2.813.047c1.906.031 3.133-.149 3.68-.539.422-.313.632-.758.632-1.336 0-1.063-.539-1.907-1.617-2.532-.765-.453-1.648-.679-2.648-.679-1.953 0-3.352.812-4.195 2.437-.438.844-.657 1.797-.657 2.86 0 1.937.696 3.375 2.086 4.312.828.547 1.774.82 2.836.82 1.688 0 2.93-.609 3.727-1.828.125-.218.234-.437.328-.656zm6.515 1.664h-1.265v-14.648h-3.516v.586h1.758v12.656c0 .719-.203 1.148-.609 1.289-.235.078-.618.117-1.149.117V332h5.367c0-.344-.117-.531-.351-.562a.97.97 0 0 0-.235-.024zm4.149-4.406c0-2.422.664-3.899 1.992-4.43a3.13 3.13 0 0 1 1.078-.187c1.735 0 2.742 1.093 3.024 3.281.047.375.07.789.07 1.242 0 2.625-.719 4.164-2.156 4.617a3.237 3.237 0 0 1-.867.117c-1.579 0-2.571-.937-2.977-2.812a9.38 9.38 0 0 1-.164-1.828zm3.141-5.203c-1.5 0-2.75.515-3.75 1.547-.922.953-1.383 2.14-1.383 3.562 0 1.969.718 3.445 2.156 4.43.875.594 1.844.89 2.906.89 1.5 0 2.742-.531 3.727-1.593.906-.969 1.359-2.18 1.359-3.633 0-1.969-.726-3.43-2.18-4.383a5.172 5.172 0 0 0-2.835-.82zm10.078 14.062v-4.851a4.812 4.812 0 0 0 2.976 1.218c1.391 0 2.555-.523 3.492-1.57.907-1.016 1.36-2.305 1.36-3.867 0-1.781-.492-3.133-1.477-4.055-.687-.625-1.523-.937-2.508-.937-1.515 0-2.648.601-3.398 1.804a5.664 5.664 0 0 0-.469.985l-.117-2.555h-3.375v.586h1.758v11.836c0 .719-.203 1.148-.61 1.289-.234.078-.617.117-1.148.117v.586h5.742c0-.344-.117-.531-.351-.562a.97.97 0 0 0-.235-.024h-1.64zm3.093-13.125c1.36 0 2.219.852 2.579 2.555a8.41 8.41 0 0 1 .164 1.734c0 2.297-.618 3.75-1.852 4.36-.359.171-.75.257-1.172.257-1.203 0-2.031-.632-2.484-1.898-.235-.641-.352-1.398-.352-2.273 0-2.032.524-3.438 1.571-4.219a2.553 2.553 0 0 1 1.546-.516zm10.946 8.672h-1.055v-5.062c.047-1.375.523-2.399 1.43-3.071.422-.312.843-.469 1.265-.469.782 0 1.321.43 1.618 1.29.125.375.187.796.187 1.265v4.641c0 .719-.172 1.148-.516 1.289-.218.078-.593.117-1.125.117V332h5.039c0-.344-.117-.531-.351-.562a.968.968 0 0 0-.234-.024h-1.055v-6c.25-1.141.805-1.937 1.664-2.391.328-.156.641-.234.937-.234.797 0 1.36.414 1.688 1.242.156.391.234.836.234 1.336v4.641c0 .719-.172 1.148-.515 1.289-.219.078-.594.117-1.125.117V332h5.179c0-.344-.117-.531-.351-.562a.97.97 0 0 0-.235-.024h-1.195v-5.812c0-1.61-.523-2.735-1.57-3.375a2.904 2.904 0 0 0-1.524-.422c-1.187 0-2.14.554-2.859 1.664a4.82 4.82 0 0 0-.469.89c-.281-1.234-.898-2.031-1.851-2.39a2.367 2.367 0 0 0-.868-.164c-1.125 0-2.054.476-2.789 1.429a4.331 4.331 0 0 0-.632 1.149l-.094-2.344h-3.399v.586h1.758v7.383c0 .719-.203 1.148-.609 1.289-.235.078-.617.117-1.149.117V332h5.157c0-.328-.118-.516-.352-.562a1.162 1.162 0 0 0-.234-.024zm19.687-9.023c1.094 0 1.821.461 2.18 1.382.125.297.187.618.187.961 0 .782-.375 1.258-1.125 1.43-.39.078-.945.109-1.664.094l-2.484-.07c.078-1.797.664-2.969 1.758-3.516a2.44 2.44 0 0 1 1.148-.281zm4.078 7.359l-.586-.211c-.546 1.188-1.429 1.859-2.648 2.016a4.675 4.675 0 0 1-.445.023c-1.641 0-2.672-.976-3.094-2.93a9.093 9.093 0 0 1-.211-1.804l2.812.047c1.907.031 3.133-.149 3.68-.539.422-.313.633-.758.633-1.336 0-1.063-.539-1.907-1.617-2.532-.766-.453-1.649-.679-2.649-.679-1.953 0-3.351.812-4.195 2.437-.437.844-.656 1.797-.656 2.86 0 1.937.695 3.375 2.086 4.312.828.547 1.773.82 2.836.82 1.687 0 2.929-.609 3.726-1.828.125-.218.235-.437.328-.656zm6.235 1.664h-1.055v-5.062c.047-1.454.563-2.5 1.547-3.141.422-.266.851-.399 1.289-.399.953 0 1.602.446 1.945 1.336.141.36.211.766.211 1.219v4.641c0 .719-.203 1.148-.609 1.289-.235.078-.617.117-1.149.117V332h5.274c0-.344-.117-.531-.352-.562a.956.956 0 0 0-.234-.024h-1.172v-5.812c0-1.563-.539-2.68-1.617-3.352a3.111 3.111 0 0 0-1.617-.445c-1.157 0-2.11.461-2.86 1.383a4.7 4.7 0 0 0-.679 1.195l-.094-2.344h-3.399v.586h1.758v7.383c0 .719-.203 1.148-.609 1.289-.235.078-.617.117-1.149.117V332h5.157c0-.344-.118-.531-.352-.562a.962.962 0 0 0-.234-.024zm8.508-8.789h1.64v6.609c.11 1.954 1.008 2.961 2.695 3.024 1.438 0 2.336-.883 2.696-2.649v-.047l-.633-.117c-.391 1.297-.961 2-1.711 2.11-.844-.032-1.273-.633-1.289-1.805v-7.125h3.633v-.586h-3.633v-2.719l-1.758.492v2.227h-1.64v.586zm10.71 8.297c0-.516-.234-.883-.703-1.102a1.086 1.086 0 0 0-.492-.117c-.515 0-.875.235-1.078.703a1.24 1.24 0 0 0-.117.516c0 .5.226.859.68 1.078.171.078.343.117.515.117.5 0 .86-.226 1.078-.679a1.24 1.24 0 0 0 .117-.516z" fill="#fff" filter="url(#d)"/><defs><filter id="a" x="102" y="0" width="608" height="508" filterUnits="userSpaceOnUse" color-interpolation-filters="sRGB"><feFlood flood-opacity="0" result="BackgroundImageFix"/><feColorMatrix in="SourceAlpha" type="matrix" values="0 0 0 0 0 0 0 0 0 0 0 0 0 0 0 0 0 0 127 0"/><feOffset dy="4"/><feGaussianBlur stdDeviation="2"/><feColorMatrix type="matrix" values="0 0 0 0 0 0 0 0 0 0 0 0 0 0 0 0 0 0 0.25 0"/><feBlend mode="normal" in2="BackgroundImageFix" result="effect1_dropShadow"/><feBlend mode="normal" in="SourceGraphic" in2="effect1_dropShadow" result="shape"/></filter><filter id="b" x="102" y="120" width="608" height="508" filterUnits="userSpaceOnUse" color-interpolation-filters="sRGB"><feFlood flood-opacity="0" result="BackgroundImageFix"/><feColorMatrix in="SourceAlpha" type="matrix" values="0 0 0 0 0 0 0 0 0 0 0 0 0 0 0 0 0 0 127 0"/><feOffset dy="4"/><feGaussianBlur stdDeviation="2"/><feColorMatrix type="matrix" values="0 0 0 0 0 0 0 0 0 0 0 0 0 0 0 0 0 0 0.25 0"/><feBlend mode="normal" in2="BackgroundImageFix" result="effect1_dropShadow"/><feBlend mode="normal" in="SourceGraphic" in2="effect1_dropShadow" result="shape"/></filter><filter id="c" x="0" y="41" width="608" height="508" filterUnits="userSpaceOnUse" color-interpolation-filters="sRGB"><feFlood flood-opacity="0" result="BackgroundImageFix"/><feColorMatrix in="SourceAlpha" type="matrix" values="0 0 0 0 0 0 0 0 0 0 0 0 0 0 0 0 0 0 127 0"/><feOffset dy="4"/><feGaussianBlur stdDeviation="2"/><feColorMatrix type="matrix" values="0 0 0 0 0 0 0 0 0 0 0 0 0 0 0 0 0 0 0.25 0"/><feBlend mode="normal" in2="BackgroundImageFix" result="effect1_dropShadow"/><feBlend mode="normal" in="SourceGraphic" in2="effect1_dropShadow" result="shape"/></filter><filter id="d" x="81.019" y="172.766" width="426.359" height="171.688" filterUnits="userSpaceOnUse" color-interpolation-filters="sRGB"><feFlood flood-opacity="0" result="BackgroundImageFix"/><feColorMatrix in="SourceAlpha" type="matrix" values="0 0 0 0 0 0 0 0 0 0 0 0 0 0 0 0 0 0 127 0"/><feOffset dy="4"/><feGaussianBlur stdDeviation="2"/><feColorMatrix type="matrix" values="0 0 0 0 0 0 0 0 0 0 0 0 0 0 0 0 0 0 0.25 0"/><feBlend mode="normal" in2="BackgroundImageFix" result="effect1_dropShadow"/><feBlend mode="normal" in="SourceGraphic" in2="effect1_dropShadow" result="shape"/></filter></defs></svg>